<svg width="48" height="48" viewBox="0 0 48 48" fill="none" xmlns="http://www.w3.org/2000/svg">
<path d="M30.127 20.8906C28.0186 19.3416 25.1133 19.7898 22.7969 20.7871C11.677 26.1608 10.3938 36.2736 11.1943 41.1494C11.2237 41.3279 11.3176 41.4711 11.4453 41.5684L11.4258 41.5918L15 43.5L20.0371 37.624L32.502 31.2568C32.7289 31.1409 32.8801 30.9058 32.8955 30.6514C33.0863 27.5095 32.758 25.2084 32.0918 23.5596L33 22.5L30.127 20.8906Z" fill="#D4B35A"/>
<path d="M26.0078 4.50513C23.5776 3.35818 19.8643 5.14485 17.6377 8.56274C15.4049 11.9901 15.5036 15.773 17.834 17.092L17.8252 17.1057L21.4287 19.0061L23.0576 16.4846C24.3045 15.7208 25.494 14.578 26.4238 13.1506C27.3709 11.6968 27.8976 10.1781 28.0137 8.81079L29.5801 6.38599L26.1514 4.57544C26.1442 4.57165 26.1371 4.56747 26.1299 4.56372C26.1247 4.56103 26.1194 4.55858 26.1143 4.55591L26.0098 4.50122L26.0078 4.50513Z" fill="#15125E"/>
<ellipse cx="4.95619" cy="7.51023" rx="4.95619" ry="7.51023" transform="matrix(-0.886428 -0.462867 -0.545847 0.837885 33.959 8.66724)" fill="#3A35B4"/>
<path d="M15.706 43.5103L36.0658 33.2127C36.294 33.0973 36.4463 32.8625 36.462 32.6073C37.1703 21.0293 30.7096 20.9577 26.339 22.821C15.1936 28.1542 13.9072 38.1909 14.7094 43.0304C14.7858 43.4909 15.2894 43.721 15.706 43.5103Z" fill="#EBCB76"/>
</svg>
