<svg width="21" height="24" viewBox="0 0 21 24" fill="none" xmlns="http://www.w3.org/2000/svg">
<path d="M0 1.38053V22.6195C0 23.3628 0.637168 24 1.38053 24H19.2212C19.9646 24 20.6018 23.3628 20.6018 22.6195V6.53097C20.6018 6.15929 20.4425 5.84071 20.177 5.57522L15.0266 0.424779C14.7611 0.159292 14.4425 0 14.0708 0H1.38053C0.637168 0 0 0.584071 0 1.38053Z" fill="#2E2A94"/>
<path d="M14.6548 0.584133V5.68148C14.6548 5.84077 14.761 5.94697 14.9203 5.94697H20.0176C20.23 5.94697 20.3362 5.68148 20.1769 5.52219L15.0796 0.424841C14.9203 0.265549 14.6548 0.371743 14.6548 0.584133Z" fill="#2E2A94"/>
<path d="M8.59724 8.59292H12.7388H13.3229C13.7477 8.59292 14.1194 8.22124 14.1194 7.79646C14.1194 7.37168 13.7477 7 13.3229 7C11.9424 7 10.5618 7 9.18131 7C8.96892 7 8.80963 7 8.59724 7C8.17246 7 7.80078 7.37168 7.80078 7.79646C7.85388 8.22124 8.17246 8.59292 8.59724 8.59292Z" fill="white"/>
<path d="M8.59724 12.6813H12.7388H13.3229C13.7477 12.6813 14.1194 12.3096 14.1194 11.8848C14.1194 11.4601 13.7477 11.0884 13.3229 11.0884C11.9424 11.0884 10.5618 11.0884 9.18131 11.0884C8.96892 11.0884 8.80963 11.0884 8.59724 11.0884C8.17246 11.0884 7.80078 11.4601 7.80078 11.8848C7.85388 12.3096 8.17246 12.6813 8.59724 12.6813Z" fill="white"/>
<path d="M8.59724 16.7697H12.7388H13.3229C13.7477 16.7697 14.1194 16.398 14.1194 15.9732C14.1194 15.5484 13.7477 15.1768 13.3229 15.1768C11.9424 15.1768 10.5618 15.1768 9.18131 15.1768C8.96892 15.1768 8.80963 15.1768 8.59724 15.1768C8.17246 15.1768 7.80078 15.5484 7.80078 15.9732C7.85388 16.398 8.17246 16.7697 8.59724 16.7697Z" fill="white"/>
</svg>
