<svg width="28" height="28" viewBox="0 0 28 28" fill="none" xmlns="http://www.w3.org/2000/svg">
<path d="M22.2893 20.3247H5.71013C5.46584 20.3247 5.23157 20.4217 5.05884 20.5945C4.8861 20.7672 4.78906 21.0015 4.78906 21.2458C4.78906 21.4901 4.8861 21.7243 5.05884 21.8971C5.23157 22.0698 5.46584 22.1668 5.71013 22.1668H22.2893C22.5335 22.1668 22.7678 22.0698 22.9405 21.8971C23.1133 21.7243 23.2103 21.4901 23.2103 21.2458C23.2103 21.0015 23.1133 20.7672 22.9405 20.5945C22.7678 20.4217 22.5335 20.3247 22.2893 20.3247Z" fill="#2E2A94"/>
<path d="M13.9989 4.66699C13.7546 4.66699 13.5203 4.76403 13.3476 4.93677C13.1749 5.1095 13.0778 5.34377 13.0778 5.58805V15.3421L10.0475 12.3026C9.8741 12.1292 9.63886 12.0317 9.39358 12.0317C9.1483 12.0317 8.91307 12.1292 8.73963 12.3026C8.56619 12.476 8.46875 12.7113 8.46875 12.9566C8.46875 13.2018 8.56619 13.4371 8.73963 13.6105L13.3449 18.2158C13.4306 18.3022 13.5324 18.3707 13.6447 18.4174C13.7569 18.4642 13.8773 18.4883 13.9989 18.4883C14.1205 18.4883 14.2409 18.4642 14.3531 18.4174C14.4654 18.3707 14.5672 18.3022 14.6529 18.2158L19.2582 13.6105C19.344 13.5246 19.4122 13.4227 19.4586 13.3105C19.5051 13.1983 19.529 13.078 19.529 12.9566C19.529 12.8351 19.5051 12.7148 19.4586 12.6026C19.4122 12.4904 19.344 12.3885 19.2582 12.3026C19.1723 12.2167 19.0703 12.1486 18.9581 12.1021C18.8459 12.0556 18.7257 12.0317 18.6042 12.0317C18.4828 12.0317 18.3625 12.0556 18.2503 12.1021C18.1381 12.1486 18.0361 12.2167 17.9503 12.3026L14.92 15.3421V5.58805C14.92 5.34377 14.8229 5.1095 14.6502 4.93677C14.4775 4.76403 14.2432 4.66699 13.9989 4.66699Z" fill="#2E2A94"/>
</svg>
