<svg width="64" height="64" viewBox="0 0 64 64" fill="none" xmlns="http://www.w3.org/2000/svg">
<path d="M52.7983 28.7998H11.1984C10.7584 28.7998 10.3984 29.1598 10.3984 29.5998V34.3998C10.3984 46.3117 20.0864 55.9997 31.9984 55.9997C43.9103 55.9997 53.5983 46.3117 53.5983 34.3998V29.5998C53.5983 29.1598 53.2383 28.7998 52.7983 28.7998Z" fill="url(#paint0_linear_32184_9470)"/>
<path d="M32.8032 45.5998V55.9758C32.5392 55.9918 32.2672 55.9998 32.0032 55.9998C31.7392 55.9998 31.4672 55.9918 31.2032 55.9758V45.5998C31.2032 45.1598 31.5632 44.7998 32.0032 44.7998C32.4432 44.7998 32.8032 45.1598 32.8032 45.5998Z" fill="#8780FF"/>
<path d="M27.9986 45.0402V55.6242C27.4546 55.5282 26.9266 55.4082 26.3986 55.2562V45.0402C26.3986 44.6002 26.7586 44.2402 27.1986 44.2402C27.6386 44.2402 27.9986 44.6002 27.9986 45.0402Z" fill="#8780FF"/>
<path d="M23.2017 43.2482V54.1202C22.6577 53.8802 22.1217 53.6162 21.6017 53.3202V43.2482C21.6017 42.8082 21.9617 42.4482 22.4017 42.4482C22.8417 42.4482 23.2017 42.8082 23.2017 43.2482Z" fill="#8780FF"/>
<path d="M18.397 39.7922V51.1601C17.837 50.7121 17.301 50.2321 16.797 49.7281V39.7922C16.797 39.3522 17.157 38.9922 17.597 38.9922C18.037 38.9922 18.397 39.3522 18.397 39.7922Z" fill="#8780FF"/>
<path d="M37.6001 45.0402V55.2562C37.0721 55.4082 36.5441 55.5282 36.0001 55.6242V45.0402C36.0001 44.6002 36.3601 44.2402 36.8001 44.2402C37.2401 44.2402 37.6001 44.6002 37.6001 45.0402Z" fill="#8780FF"/>
<path d="M42.397 43.2482V53.3202C41.877 53.6162 41.341 53.8802 40.797 54.1202V43.2482C40.797 42.8082 41.157 42.4482 41.597 42.4482C42.037 42.4482 42.397 42.8082 42.397 43.2482Z" fill="#8780FF"/>
<path d="M47.2017 39.7922V49.7281C46.6977 50.2321 46.1617 50.7121 45.6017 51.1601V39.7922C45.6017 39.3522 45.9617 38.9922 46.4017 38.9922C46.8417 38.9922 47.2017 39.3522 47.2017 39.7922Z" fill="#8780FF"/>
<path d="M51.9986 34.9924V42.5363C51.5586 43.6403 51.0226 44.6963 50.3986 45.6963V34.9924C50.3986 34.5524 50.7586 34.1924 51.1986 34.1924C51.6386 34.1924 51.9986 34.5524 51.9986 34.9924Z" fill="#8780FF"/>
<path d="M13.6002 36.592V45.696C12.9762 44.696 12.4402 43.64 12.0002 42.536V36.592C12.0002 36.152 12.3602 35.792 12.8002 35.792C13.2402 35.792 13.6002 36.152 13.6002 36.592Z" fill="#8780FF"/>
<path d="M31.9984 51.1998C43.9277 51.1998 53.5983 41.5292 53.5983 29.5999C53.5983 17.6706 43.9277 8 31.9984 8C20.069 8 10.3984 17.6706 10.3984 29.5999C10.3984 41.5292 20.069 51.1998 31.9984 51.1998Z" fill="url(#paint1_linear_32184_9470)"/>
<path d="M32.0001 45.5995C40.8366 45.5995 48 38.4361 48 29.5995C48 20.763 40.8366 13.5996 32.0001 13.5996C23.1635 13.5996 16.0001 20.763 16.0001 29.5995C16.0001 38.4361 23.1635 45.5995 32.0001 45.5995Z" fill="url(#paint2_linear_32184_9470)"/>
<path d="M25.6016 27.1998C25.6016 27.6398 25.9616 27.9998 26.4016 27.9998H33.5215C33.1535 29.8238 31.5375 31.1998 29.6015 31.1998H26.4016C26.0656 31.1998 25.7616 31.4158 25.6496 31.7358C25.5376 32.0558 25.6416 32.4158 25.9056 32.6238L33.9055 39.0237C34.0495 39.1437 34.2335 39.1997 34.4015 39.1997C34.6335 39.1997 34.8655 39.0957 35.0255 38.8957C35.2975 38.5517 35.2415 38.0477 34.8975 37.7677L28.6816 32.7918H29.6015C32.4175 32.7918 34.7455 30.7038 35.1375 27.9918H39.2015C39.6415 27.9918 40.0015 27.6318 40.0015 27.1918C40.0015 26.7518 39.6415 26.3918 39.2015 26.3918H35.1375C34.9615 25.1438 34.3695 24.0318 33.5135 23.1918H39.2015C39.6415 23.1918 40.0015 22.8318 40.0015 22.3918C40.0015 21.9518 39.6415 21.5918 39.2015 21.5918H26.4016C25.9616 21.5918 25.6016 21.9518 25.6016 22.3918C25.6016 22.8318 25.9616 23.1918 26.4016 23.1918H29.6015C31.5295 23.1918 33.1455 24.5678 33.5215 26.3918H26.4016C25.9616 26.3918 25.6016 26.7518 25.6016 27.1918V27.1998Z" fill="#3025E0"/>
<defs>
<linearGradient id="paint0_linear_32184_9470" x1="53.5191" y1="28.6914" x2="3.86906" y2="44.9646" gradientUnits="userSpaceOnUse">
<stop stop-color="#0F00FF"/>
<stop offset="1" stop-color="white"/>
</linearGradient>
<linearGradient id="paint1_linear_32184_9470" x1="49.2926" y1="10.675" x2="-1.24885" y2="3.51755" gradientUnits="userSpaceOnUse">
<stop stop-color="#0F00FF"/>
<stop offset="1" stop-color="white"/>
</linearGradient>
<linearGradient id="paint2_linear_32184_9470" x1="3.69346" y1="57.906" x2="32.1013" y2="42.7033" gradientUnits="userSpaceOnUse">
<stop stop-color="#B096ED"/>
<stop offset="0.0014" stop-color="#B096ED"/>
<stop offset="0.299" stop-color="#CDBCF3"/>
<stop offset="0.5742" stop-color="#E2D7F7"/>
<stop offset="0.8165" stop-color="#EFE8F9"/>
<stop offset="1" stop-color="#F3EEFA"/>
</linearGradient>
</defs>
</svg>
