<svg width="64" height="64" viewBox="0 0 64 64" fill="none" xmlns="http://www.w3.org/2000/svg">
<path d="M52.1906 19.6035L32.0935 31.2067V56.0005L52.1906 44.3974V19.6035Z" fill="url(#paint0_linear_32184_9404)"/>
<path d="M11.9996 19.6025L32.0967 31.2057V55.9995L11.9996 44.3964V19.6025Z" fill="url(#paint1_linear_32184_9404)"/>
<path d="M11.9996 19.6031L32.0967 8L52.1938 19.6031L32.0967 31.2062L11.9996 19.6031Z" fill="url(#paint2_linear_32184_9404)"/>
<path d="M43.2145 24.7703L32.0935 18.3496V44.911L43.2145 38.4902V24.7703Z" fill="url(#paint3_linear_32184_9404)"/>
<path d="M20.9763 24.7703L32.0973 18.3496V44.911L20.9763 38.4902V24.7703Z" fill="url(#paint4_linear_32184_9404)"/>
<path d="M20.9762 38.491L32.0972 32.0703L43.2182 38.491L32.0972 44.9117L20.9762 38.491Z" fill="url(#paint5_linear_32184_9404)"/>
<defs>
<linearGradient id="paint0_linear_32184_9404" x1="52.1538" y1="19.4584" x2="26.9025" y2="22.3358" gradientUnits="userSpaceOnUse">
<stop stop-color="#0F00FF"/>
<stop offset="1" stop-color="white"/>
</linearGradient>
<linearGradient id="paint1_linear_32184_9404" x1="32.0599" y1="19.4574" x2="6.80865" y2="22.3348" gradientUnits="userSpaceOnUse">
<stop stop-color="#0F00FF"/>
<stop offset="1" stop-color="white"/>
</linearGradient>
<linearGradient id="paint2_linear_32184_9404" x1="-3.45844" y1="40.1309" x2="34.2412" y2="18.365" gradientUnits="userSpaceOnUse">
<stop stop-color="#B096ED"/>
<stop offset="0.0014" stop-color="#B096ED"/>
<stop offset="0.299" stop-color="#CDBCF3"/>
<stop offset="0.5742" stop-color="#E2D7F7"/>
<stop offset="0.8165" stop-color="#EFE8F9"/>
<stop offset="1" stop-color="#F3EEFA"/>
</linearGradient>
<linearGradient id="paint3_linear_32184_9404" x1="31.4958" y1="24" x2="29.8529" y2="37.6554" gradientUnits="userSpaceOnUse">
<stop stop-color="#0F00FF"/>
<stop offset="1" stop-color="white"/>
</linearGradient>
<linearGradient id="paint4_linear_32184_9404" x1="32.077" y1="18.2437" x2="18.0273" y2="19.4577" gradientUnits="userSpaceOnUse">
<stop stop-color="#0F00FF"/>
<stop offset="1" stop-color="white"/>
</linearGradient>
<linearGradient id="paint5_linear_32184_9404" x1="12.4223" y1="49.8503" x2="33.2839" y2="37.8059" gradientUnits="userSpaceOnUse">
<stop stop-color="#B096ED"/>
<stop offset="0.0014" stop-color="#B096ED"/>
<stop offset="0.299" stop-color="#CDBCF3"/>
<stop offset="0.5742" stop-color="#E2D7F7"/>
<stop offset="0.8165" stop-color="#EFE8F9"/>
<stop offset="1" stop-color="#F3EEFA"/>
</linearGradient>
</defs>
</svg>
