<svg width="64" height="64" viewBox="0 0 64 64" fill="none" xmlns="http://www.w3.org/2000/svg">
<path d="M48.0099 16.2889L40.8012 12.0996L40.8615 33.3732L48.0703 37.5625L48.0099 16.2889Z" fill="url(#paint0_linear_32184_9435)"/>
<path d="M55.1094 12.1893L47.9004 8L40.7986 12.1003L48.0074 16.2896L55.1094 12.1893Z" fill="url(#paint1_linear_32184_9435)"/>
<path d="M48.0097 16.2897L48.0701 37.5632L55.1719 33.463L55.1117 12.1895L48.0097 16.2897Z" fill="#756DFF"/>
<path d="M37.3577 18.2898L30.1487 14.1006L30.2208 39.5201L37.4297 43.7094L37.3577 18.2898Z" fill="url(#paint2_linear_32184_9435)"/>
<path d="M44.4609 14.1893L37.2522 10L30.1503 14.1002L37.3593 18.2894L44.4609 14.1893Z" fill="url(#paint3_linear_32184_9435)"/>
<path d="M37.3576 18.2895L37.4296 43.7091L44.5312 39.6088L44.4592 14.1895L37.3576 18.2895Z" fill="#756DFF"/>
<path d="M26.6951 19.4725L19.4863 15.2832L19.5724 45.6647L26.7812 49.854L26.6951 19.4725Z" fill="url(#paint4_linear_32184_9435)"/>
<path d="M33.7812 15.3777L26.5724 11.1885L19.4789 15.2838L26.6877 19.4732L33.7812 15.3777Z" fill="url(#paint5_linear_32184_9435)"/>
<path d="M26.6953 19.4724L26.7814 49.8539L33.875 45.7585L33.7888 15.377L26.6953 19.4724Z" fill="#756DFF"/>
<path d="M16.0298 19.6815L8.82102 15.4922L8.92395 51.8112L16.1328 56.0005L16.0298 19.6815Z" fill="url(#paint6_linear_32184_9435)"/>
<path d="M23.125 15.5858L15.9162 11.3965L8.82258 15.4921L16.0313 19.6814L23.125 15.5858Z" fill="url(#paint7_linear_32184_9435)"/>
<path d="M16.0297 19.6815L16.1328 56.0005L23.2263 51.9049L23.1234 15.5859L16.0297 19.6815Z" fill="#756DFF"/>
<defs>
<linearGradient id="paint0_linear_32184_9435" x1="40.8145" y1="11.9981" x2="50.0345" y2="12.5413" gradientUnits="userSpaceOnUse">
<stop stop-color="#0F00FF"/>
<stop offset="1" stop-color="white"/>
</linearGradient>
<linearGradient id="paint1_linear_32184_9435" x1="60.6131" y1="19.4776" x2="47.1684" y2="11.7409" gradientUnits="userSpaceOnUse">
<stop stop-color="#B096ED"/>
<stop offset="0.0014" stop-color="#B096ED"/>
<stop offset="0.299" stop-color="#CDBCF3"/>
<stop offset="0.5742" stop-color="#E2D7F7"/>
<stop offset="0.8165" stop-color="#EFE8F9"/>
<stop offset="1" stop-color="#F3EEFA"/>
</linearGradient>
<linearGradient id="paint2_linear_32184_9435" x1="30.1621" y1="13.9826" x2="39.4053" y2="14.4516" gradientUnits="userSpaceOnUse">
<stop stop-color="#0F00FF"/>
<stop offset="1" stop-color="white"/>
</linearGradient>
<linearGradient id="paint3_linear_32184_9435" x1="49.9646" y1="21.4773" x2="36.5202" y2="13.7406" gradientUnits="userSpaceOnUse">
<stop stop-color="#B096ED"/>
<stop offset="0.0014" stop-color="#B096ED"/>
<stop offset="0.299" stop-color="#CDBCF3"/>
<stop offset="0.5742" stop-color="#E2D7F7"/>
<stop offset="0.8165" stop-color="#EFE8F9"/>
<stop offset="1" stop-color="#F3EEFA"/>
</linearGradient>
<linearGradient id="paint4_linear_32184_9435" x1="19.4997" y1="15.1454" x2="28.7669" y2="15.5489" gradientUnits="userSpaceOnUse">
<stop stop-color="#0F00FF"/>
<stop offset="1" stop-color="white"/>
</linearGradient>
<linearGradient id="paint5_linear_32184_9435" x1="39.2817" y1="22.6593" x2="25.845" y2="14.9271" gradientUnits="userSpaceOnUse">
<stop stop-color="#B096ED"/>
<stop offset="0.0014" stop-color="#B096ED"/>
<stop offset="0.299" stop-color="#CDBCF3"/>
<stop offset="0.5742" stop-color="#E2D7F7"/>
<stop offset="0.8165" stop-color="#EFE8F9"/>
<stop offset="1" stop-color="#F3EEFA"/>
</linearGradient>
<linearGradient id="paint6_linear_32184_9435" x1="9.54978" y1="18.0005" x2="18.27" y2="17.7776" gradientUnits="userSpaceOnUse">
<stop stop-color="#0F00FF"/>
<stop offset="1" stop-color="white"/>
</linearGradient>
<linearGradient id="paint7_linear_32184_9435" x1="28.6255" y1="22.8676" x2="15.1886" y2="15.1354" gradientUnits="userSpaceOnUse">
<stop stop-color="#B096ED"/>
<stop offset="0.0014" stop-color="#B096ED"/>
<stop offset="0.299" stop-color="#CDBCF3"/>
<stop offset="0.5742" stop-color="#E2D7F7"/>
<stop offset="0.8165" stop-color="#EFE8F9"/>
<stop offset="1" stop-color="#F3EEFA"/>
</linearGradient>
</defs>
</svg>
