<svg width="64" height="64" viewBox="0 0 64 64" fill="none" xmlns="http://www.w3.org/2000/svg">
<path d="M29.5147 24.288L27.1455 11.6426H15.1492C14.6118 11.6426 14.12 11.9448 13.8774 12.4243L8.15087 23.7391C8.01587 24.0057 7.9719 24.3008 8.0124 24.5843L28.9669 31.2719C28.9639 31.1553 29.4838 24.4016 29.5147 24.288Z" fill="url(#paint0_linear_32184_9419)"/>
<path d="M32.3448 24.585H8.0116C8.04891 24.846 8.15766 25.097 8.33589 25.3067L30.9124 51.8573C31.1415 52.1269 31.4462 52.2859 31.7652 52.3384L32.3916 24.8908C32.3624 24.7908 32.3476 24.688 32.3448 24.585Z" fill="url(#paint1_linear_32184_9419)"/>
<path d="M40.6349 24.5846L32.0051 20.6377L23.6903 24.5846C23.693 24.6876 23.7078 24.7905 23.7371 24.8904L31.7725 52.338C31.9299 52.3639 32.0905 52.3635 32.2477 52.3365L41.5023 33.9119L40.5837 24.9098C40.6159 24.8037 40.6326 24.6943 40.6349 24.5846Z" fill="url(#paint2_linear_32184_9419)"/>
<path d="M40.6295 24.5848L34.9249 20.6377L31.9998 24.5846V52.3571C32.0809 52.3571 32.162 52.3506 32.2424 52.3368L41.497 33.9122L40.5783 24.91C40.6106 24.8039 40.6273 24.6945 40.6295 24.5848Z" fill="url(#paint3_linear_32184_9419)"/>
<path d="M23.6908 24.5843H32.0055C32.0081 24.4613 33.7371 21.1299 33.7018 21.0107L34.8335 17.6926L32.0055 11.6426H27.1523L23.7312 24.2372C23.7003 24.3508 23.6877 24.4677 23.6908 24.5843Z" fill="url(#paint4_linear_32184_9419)"/>
<path d="M36.8596 11.6426H31.9998V24.5843H40.6295C40.6321 24.4613 41.2788 24.3484 41.2434 24.2291L44.6394 17.0955L36.8596 11.6426Z" fill="url(#paint5_linear_32184_9419)"/>
<path d="M40.627 24.5843L48.6711 28.3912L55.9836 24.5843C56.0239 24.3005 55.9796 24.0052 55.8442 23.7385L50.0994 12.4227C49.8564 11.9441 49.3652 11.6426 48.8285 11.6426H36.8571L40.5784 24.2188C40.6136 24.338 40.6294 24.4613 40.627 24.5843Z" fill="url(#paint6_linear_32184_9419)"/>
<path d="M40.6254 24.585C40.6232 24.6947 40.6066 24.8041 40.5742 24.9102L32.2383 52.337C32.5539 52.2829 32.855 52.1242 33.0819 51.8573L55.6575 25.3077C55.8359 25.0979 55.9448 24.8463 55.982 24.5851H40.6254V24.585Z" fill="url(#paint7_linear_32184_9419)"/>
<defs>
<linearGradient id="paint0_linear_32184_9419" x1="-0.277076" y1="38.821" x2="23.462" y2="30.1471" gradientUnits="userSpaceOnUse">
<stop stop-color="#B096ED"/>
<stop offset="0.0014" stop-color="#B096ED"/>
<stop offset="0.299" stop-color="#CDBCF3"/>
<stop offset="0.5742" stop-color="#E2D7F7"/>
<stop offset="0.8165" stop-color="#EFE8F9"/>
<stop offset="1" stop-color="#F3EEFA"/>
</linearGradient>
<linearGradient id="paint1_linear_32184_9419" x1="32.3469" y1="24.4743" x2="2.30394" y2="29.9206" gradientUnits="userSpaceOnUse">
<stop stop-color="#0F00FF"/>
<stop offset="1" stop-color="white"/>
</linearGradient>
<linearGradient id="paint2_linear_32184_9419" x1="41.4697" y1="20.5112" x2="19.0994" y2="23.1036" gradientUnits="userSpaceOnUse">
<stop stop-color="#0F00FF"/>
<stop offset="1" stop-color="white"/>
</linearGradient>
<linearGradient id="paint3_linear_32184_9419" x1="41.4796" y1="20.5112" x2="29.4377" y2="21.2553" gradientUnits="userSpaceOnUse">
<stop stop-color="#0F00FF"/>
<stop offset="1" stop-color="white"/>
</linearGradient>
<linearGradient id="paint4_linear_32184_9419" x1="34.8131" y1="11.591" x2="21.0644" y2="14.034" gradientUnits="userSpaceOnUse">
<stop stop-color="#0F00FF"/>
<stop offset="1" stop-color="white"/>
</linearGradient>
<linearGradient id="paint5_linear_32184_9419" x1="44.6163" y1="11.591" x2="29.1568" y2="14.7068" gradientUnits="userSpaceOnUse">
<stop stop-color="#0F00FF"/>
<stop offset="1" stop-color="white"/>
</linearGradient>
<linearGradient id="paint6_linear_32184_9419" x1="55.9629" y1="11.5758" x2="32.8845" y2="17.0187" gradientUnits="userSpaceOnUse">
<stop stop-color="#0F00FF"/>
<stop offset="1" stop-color="white"/>
</linearGradient>
<linearGradient id="paint7_linear_32184_9419" x1="55.9385" y1="24.4743" x2="26.6316" y2="29.6488" gradientUnits="userSpaceOnUse">
<stop stop-color="#0F00FF"/>
<stop offset="1" stop-color="white"/>
</linearGradient>
</defs>
</svg>
