<svg width="15" height="16" viewBox="0 0 15 16" fill="none" xmlns="http://www.w3.org/2000/svg">
<path d="M12.4651 0H2.04651C1.50374 0 0.983205 0.215614 0.599409 0.599409C0.215614 0.983205 0 1.50374 0 2.04651V13.9535C0 14.4963 0.215614 15.0168 0.599409 15.4006C0.983205 15.7844 1.50374 16 2.04651 16H12.4651C13.0079 16 13.5284 15.7844 13.9122 15.4006C14.296 15.0168 14.5116 14.4963 14.5116 13.9535V2.04651C14.5116 1.50374 14.296 0.983205 13.9122 0.599409C13.5284 0.215614 13.0079 0 12.4651 0ZM6.17326 11.5572C6.16596 11.5572 6.15895 11.5601 6.15375 11.5652L4.27907 13.4177C4.17442 13.5222 4.03256 13.5809 3.88465 13.5809C3.73674 13.5809 3.59488 13.5222 3.49023 13.4177L2.37395 12.3014C2.27536 12.1956 2.22169 12.0556 2.22424 11.9111C2.22679 11.7665 2.28537 11.6285 2.38763 11.5262C2.48989 11.424 2.62785 11.3654 2.77245 11.3628C2.91704 11.3603 3.05699 11.414 3.16279 11.5126L3.37688 11.7267C3.66965 12.0194 4.14431 12.0194 4.43707 11.7267L5.39535 10.7684C5.44645 10.7135 5.50806 10.6696 5.57653 10.639C5.64499 10.6085 5.7189 10.5921 5.79384 10.5908C5.86879 10.5895 5.94323 10.6033 6.01272 10.6314C6.08222 10.6594 6.14535 10.7012 6.19835 10.7542C6.25135 10.8072 6.29314 10.8703 6.32121 10.9398C6.34928 11.0093 6.36306 11.0838 6.36174 11.1587C6.36042 11.2337 6.34402 11.3076 6.31351 11.376C6.28449 11.4412 6.24327 11.5001 6.19211 11.5497C6.18706 11.5546 6.18028 11.5572 6.17326 11.5572ZM6.1727 7.46419C6.16576 7.46419 6.15909 7.46692 6.15415 7.47181L4.27907 9.32465C4.17442 9.42917 4.03256 9.48788 3.88465 9.48788C3.73674 9.48788 3.59488 9.42917 3.49023 9.32465L2.37395 8.20837C2.27536 8.10257 2.22169 7.96263 2.22424 7.81803C2.22679 7.67343 2.28537 7.53547 2.38763 7.43321C2.48989 7.33095 2.62785 7.27237 2.77245 7.26982C2.91704 7.26727 3.05699 7.32095 3.16279 7.41954L3.37688 7.63363C3.66965 7.92639 4.14431 7.92639 4.43707 7.63363L5.39535 6.67535C5.50115 6.57676 5.6411 6.52309 5.78569 6.52564C5.93029 6.52819 6.06825 6.58676 6.17051 6.68903C6.27277 6.79129 6.33135 6.92925 6.3339 7.07384C6.33638 7.21461 6.28558 7.35096 6.19193 7.4557C6.18705 7.46116 6.18003 7.46419 6.1727 7.46419ZM6.18354 3.37116C6.16965 3.37116 6.15632 3.37664 6.14644 3.3864L4.27907 5.23163C4.17674 5.32315 4.04427 5.37375 3.90698 5.37375C3.76969 5.37375 3.63721 5.32315 3.53488 5.23163L2.46033 4.15708C2.43256 4.1293 2.40611 4.0999 2.3865 4.06586C2.33117 3.96979 2.30547 3.85897 2.31344 3.74749C2.32282 3.61631 2.37822 3.49266 2.46987 3.39834C2.56152 3.30401 2.68353 3.24509 2.81439 3.23195C2.92197 3.22115 3.02984 3.24186 3.12514 3.2908C3.16647 3.31203 3.20165 3.34305 3.23451 3.3759L3.39921 3.5406C3.69197 3.83337 4.16663 3.83337 4.4594 3.5406L5.41767 2.58233C5.52348 2.48374 5.66342 2.43006 5.80802 2.43261C5.95261 2.43517 6.09057 2.49374 6.19283 2.596C6.2951 2.69826 6.35367 2.83622 6.35622 2.98082C6.35864 3.11775 6.31064 3.2505 6.22182 3.35404C6.21228 3.36516 6.19819 3.37116 6.18354 3.37116ZM11.7209 12.8372H8C7.85197 12.8372 7.71001 12.7784 7.60534 12.6737C7.50066 12.5691 7.44186 12.4271 7.44186 12.2791C7.44186 12.131 7.50066 11.9891 7.60534 11.8844C7.71001 11.7797 7.85197 11.7209 8 11.7209H11.7209C11.869 11.7209 12.0109 11.7797 12.1156 11.8844C12.2203 11.9891 12.2791 12.131 12.2791 12.2791C12.2791 12.4271 12.2203 12.5691 12.1156 12.6737C12.0109 12.7784 11.869 12.8372 11.7209 12.8372ZM11.7209 8.74419H8C7.85197 8.74419 7.71001 8.68538 7.60534 8.58071C7.50066 8.47604 7.44186 8.33407 7.44186 8.18605C7.44186 8.03802 7.50066 7.89605 7.60534 7.79138C7.71001 7.68671 7.85197 7.62791 8 7.62791H11.7209C11.869 7.62791 12.0109 7.68671 12.1156 7.79138C12.2203 7.89605 12.2791 8.03802 12.2791 8.18605C12.2791 8.33407 12.2203 8.47604 12.1156 8.58071C12.0109 8.68538 11.869 8.74419 11.7209 8.74419ZM11.7209 4.65116H8C7.85197 4.65116 7.71001 4.59236 7.60534 4.48769C7.50066 4.38302 7.44186 4.24105 7.44186 4.09302C7.44186 3.945 7.50066 3.80303 7.60534 3.69836C7.71001 3.59369 7.85197 3.53488 8 3.53488H11.7209C11.869 3.53488 12.0109 3.59369 12.1156 3.69836C12.2203 3.80303 12.2791 3.945 12.2791 4.09302C12.2791 4.24105 12.2203 4.38302 12.1156 4.48769C12.0109 4.59236 11.869 4.65116 11.7209 4.65116Z" fill="#2E2A94"/>
</svg>
