<svg width="28" height="20" viewBox="0 0 28 20" fill="none" xmlns="http://www.w3.org/2000/svg">
<g clip-path="url(#clip0_37839_2609)">
<path d="M0 4C0 1.79086 1.79086 0 4 0H24C26.2091 0 28 1.79086 28 4V16C28 18.2091 26.2091 20 24 20H4C1.79086 20 0 18.2091 0 16V4Z" fill="white"/>
<path d="M3 0H97V70H3V0Z" fill="#181A93"/>
<path d="M0 0H28V6.57143H0V0Z" fill="#FFA44A"/>
<path d="M0 13.4287H28V20.0001H0V13.4287Z" fill="#1A9F0B"/>
<path d="M0 6.57129H28V13.4284H0V6.57129Z" fill="white"/>
<path d="M13.9991 12.4001C15.3136 12.4001 16.3791 11.3256 16.3791 10.0001C16.3791 8.67461 15.3136 7.6001 13.9991 7.6001C12.6847 7.6001 11.6191 8.67461 11.6191 10.0001C11.6191 11.3256 12.6847 12.4001 13.9991 12.4001Z" fill="white"/>
<path d="M13.9995 13.0855C12.3151 13.0855 10.9395 11.6983 10.9395 9.99978C10.9395 8.30128 12.3151 6.91406 13.9995 6.91406C15.6838 6.91406 17.0595 8.30128 17.0595 9.99978C17.0595 11.6983 15.6838 13.0855 13.9995 13.0855ZM13.9995 12.3141C15.2208 12.3141 16.2945 11.2314 16.2945 9.99978C16.2945 8.7682 15.2275 7.68549 13.9995 7.68549C12.7714 7.68549 11.7045 8.7682 11.7045 9.99978C11.7045 11.2314 12.7781 12.3141 13.9995 12.3141Z" fill="#181A93"/>
<path d="M14.0006 11.3713C14.7517 11.3713 15.3606 10.7573 15.3606 9.99985C15.3606 9.24243 14.7517 8.62842 14.0006 8.62842C13.2495 8.62842 12.6406 9.24243 12.6406 9.99985C12.6406 10.7573 13.2495 11.3713 14.0006 11.3713Z" fill="#181A93"/>
</g>
<path d="M4 0.5H24C25.933 0.5 27.5 2.067 27.5 4V16C27.5 17.933 25.933 19.5 24 19.5H4C2.067 19.5 0.5 17.933 0.5 16V4C0.5 2.067 2.067 0.5 4 0.5Z" stroke="#DFDFDF"/>
<defs>
<clipPath id="clip0_37839_2609">
<path d="M0 4C0 1.79086 1.79086 0 4 0H24C26.2091 0 28 1.79086 28 4V16C28 18.2091 26.2091 20 24 20H4C1.79086 20 0 18.2091 0 16V4Z" fill="white"/>
</clipPath>
</defs>
</svg>
