<svg width="16" height="16" viewBox="0 0 16 16" fill="none" xmlns="http://www.w3.org/2000/svg">
<path d="M14.6654 14.5H1.9987C1.68939 14.4996 1.39287 14.3766 1.17416 14.1579C0.955444 13.9392 0.832407 13.6426 0.832031 13.3333V2C0.832031 1.86739 0.88471 1.74021 0.978478 1.64645C1.07225 1.55268 1.19942 1.5 1.33203 1.5C1.46464 1.5 1.59182 1.55268 1.68558 1.64645C1.77935 1.74021 1.83203 1.86739 1.83203 2V13.3333C1.83212 13.3775 1.8497 13.4199 1.88094 13.4511C1.91218 13.4823 1.95452 13.4999 1.9987 13.5H14.6654C14.798 13.5 14.9252 13.5527 15.0189 13.6464C15.1127 13.7402 15.1654 13.8674 15.1654 14C15.1654 14.1326 15.1127 14.2598 15.0189 14.3536C14.9252 14.4473 14.798 14.5 14.6654 14.5Z" fill="#00A850"/>
<path d="M1.33261 7.83354C1.22397 7.83367 1.11824 7.7984 1.03142 7.73308C0.944607 7.66776 0.881428 7.57595 0.851447 7.47152C0.821465 7.36709 0.826312 7.25574 0.865255 7.15432C0.904197 7.05289 0.975116 6.96691 1.06728 6.90939L6.05429 3.79253C6.23654 3.67835 6.44684 3.61685 6.66189 3.61484C6.87694 3.61282 7.08835 3.67038 7.27271 3.78113L9.88111 5.34656C9.90903 5.36317 9.94117 5.37134 9.97364 5.37007C10.0061 5.3688 10.0375 5.35814 10.0641 5.3394L14.3752 2.25997C14.4287 2.22184 14.4891 2.19461 14.5531 2.17983C14.617 2.16505 14.6833 2.16301 14.748 2.17383C14.8128 2.18465 14.8747 2.20812 14.9304 2.24289C14.9861 2.27767 15.0344 2.32307 15.0725 2.37651C15.1106 2.42994 15.1379 2.49036 15.1527 2.55432C15.1674 2.61828 15.1695 2.68453 15.1587 2.74927C15.1478 2.81402 15.1244 2.876 15.0896 2.93168C15.0548 2.98736 15.0094 3.03564 14.956 3.07377L10.6448 6.1532C10.46 6.28547 10.2405 6.36076 10.0134 6.36978C9.78628 6.37881 9.56151 6.32117 9.36678 6.20398L6.75872 4.63887C6.7323 4.62304 6.702 4.61485 6.6712 4.61519C6.6404 4.61554 6.6103 4.62441 6.58424 4.64083L1.59726 7.75769C1.51792 7.80732 1.4262 7.83361 1.33261 7.83354Z" fill="#00A850"/>
<path d="M4.33203 11.8333C4.19943 11.8333 4.07228 11.7806 3.97852 11.6868C3.88476 11.5931 3.83207 11.4659 3.83203 11.3333V8C3.83203 7.86739 3.88471 7.74022 3.97848 7.64645C4.07225 7.55268 4.19942 7.5 4.33203 7.5C4.46464 7.5 4.59182 7.55268 4.68558 7.64645C4.77935 7.74022 4.83203 7.86739 4.83203 8V11.3333C4.832 11.4659 4.77931 11.5931 4.68555 11.6868C4.59179 11.7806 4.46463 11.8333 4.33203 11.8333Z" fill="#00A850"/>
<path d="M7.33203 11.8332C7.19943 11.8331 7.07228 11.7804 6.97852 11.6867C6.88476 11.5929 6.83207 11.4658 6.83203 11.3332V6.6665C6.83203 6.5339 6.88471 6.40672 6.97848 6.31295C7.07225 6.21918 7.19942 6.1665 7.33203 6.1665C7.46464 6.1665 7.59182 6.21918 7.68558 6.31295C7.77935 6.40672 7.83203 6.5339 7.83203 6.6665V11.3332C7.832 11.4658 7.77931 11.5929 7.68555 11.6867C7.59179 11.7804 7.46463 11.8331 7.33203 11.8332Z" fill="#00A850"/>
<path d="M10.332 11.8333C10.1994 11.8333 10.0723 11.7806 9.97852 11.6868C9.88476 11.5931 9.83207 11.4659 9.83203 11.3333V8C9.83203 7.86739 9.88471 7.74022 9.97848 7.64645C10.0722 7.55268 10.1994 7.5 10.332 7.5C10.4646 7.5 10.5918 7.55268 10.6856 7.64645C10.7794 7.74022 10.832 7.86739 10.832 8V11.3333C10.832 11.4659 10.7793 11.5931 10.6855 11.6868C10.5918 11.7806 10.4646 11.8333 10.332 11.8333Z" fill="#00A850"/>
<path d="M13.332 11.8333C13.1994 11.8333 13.0723 11.7806 12.9785 11.6868C12.8848 11.5931 12.8321 11.4659 12.832 11.3333V6C12.832 5.86739 12.8847 5.74022 12.9785 5.64645C13.0722 5.55268 13.1994 5.5 13.332 5.5C13.4646 5.5 13.5918 5.55268 13.6856 5.64645C13.7794 5.74022 13.832 5.86739 13.832 6V11.3333C13.832 11.4659 13.7793 11.5931 13.6855 11.6868C13.5918 11.7806 13.4646 11.8333 13.332 11.8333Z" fill="#00A850"/>
</svg>
