<svg width="18" height="27" viewBox="0 0 18 27" fill="none" xmlns="http://www.w3.org/2000/svg">
<path d="M11.4713 21.0908V23.7373C11.4713 25.3553 10.1597 26.6669 8.54174 26.6669C6.9238 26.6669 5.61218 25.3553 5.61218 23.7373V21.0908H11.4713Z" fill="#2E2A94"/>
<path d="M11.6859 20.5798C13.4433 21.5944 13.4707 23.2326 11.7248 24.2473C9.97904 25.2618 7.15056 25.2513 5.39317 24.2367C3.63581 23.2221 3.62689 21.5943 5.37262 20.5798C7.11859 19.5652 9.92851 19.5652 11.6859 20.5798Z" fill="#FFD500"/>
<path d="M13.1625 22.2459L13.1591 23.1723C13.1572 23.8488 12.7136 24.5236 11.823 25.0412C10.0211 26.0883 7.10156 26.0776 5.2876 25.0303C4.37488 24.5033 3.91908 23.8161 3.92103 23.13L3.92441 22.2036C3.9225 22.8898 4.3783 23.5769 5.29102 24.1039C7.10498 25.1512 10.0245 25.162 11.8264 24.1148C12.7171 23.5972 13.1606 22.9225 13.1625 22.2459Z" fill="url(#paint0_linear_26540_52601)"/>
<path d="M11.7862 20.3289C13.6001 21.3762 13.6285 23.0671 11.8263 24.1144C10.0244 25.1616 7.10486 25.1508 5.29089 24.1035C3.47696 23.0563 3.46776 21.3761 5.26968 20.329C7.07186 19.2816 9.97223 19.2816 11.7862 20.3289Z" fill="#242177"/>
<path d="M13.0192 20.9106L13.0159 22.0174C13.014 22.6728 12.5843 23.3266 11.7215 23.828C9.97575 24.8425 7.14727 24.8321 5.38988 23.8174C4.50562 23.3069 4.06404 22.6412 4.06592 21.9764L4.0692 20.8696C4.06735 21.5344 4.50893 22.2001 5.39319 22.7107C7.15058 23.7253 9.97906 23.7357 11.7248 22.7212C12.5876 22.2198 13.0174 21.5661 13.0192 20.9106Z" fill="#5659FA"/>
<path d="M11.6859 19.0539C13.4433 20.0686 13.4707 21.7067 11.7248 22.7214C9.97904 23.7359 7.15056 23.7255 5.39317 22.7108C3.63581 21.6962 3.62689 20.0685 5.37262 19.054C7.11859 18.0393 9.92851 18.0393 11.6859 19.0539Z" fill="#FFD500"/>
<path d="M13.1625 20.7195L13.1591 21.6459C13.1572 22.3225 12.7136 22.9972 11.823 23.5148C10.0211 24.562 7.10156 24.5512 5.2876 23.5039C4.37488 22.9769 3.91908 22.2898 3.92103 21.6036L3.92441 20.6772C3.9225 21.3634 4.3783 22.0506 5.29102 22.5775C7.10498 23.6248 10.0245 23.6356 11.8264 22.5884C12.7171 22.0709 13.1606 21.3961 13.1625 20.7195Z" fill="url(#paint1_linear_26540_52601)"/>
<path d="M11.7862 18.803C13.6001 19.8503 13.6285 21.5412 11.8263 22.5885C10.0244 23.6357 7.10486 23.625 5.29089 22.5777C3.47696 21.5304 3.46776 19.8502 5.26968 18.8031C7.07186 17.7558 9.97223 17.7557 11.7862 18.803Z" fill="#242177"/>
<path d="M13.0192 19.3842L13.0159 20.491C13.014 21.1465 12.5843 21.8002 11.7215 22.3016C9.97575 23.3161 7.14727 23.3057 5.38988 22.2911C4.50562 21.7806 4.06404 21.1148 4.06592 20.45L4.0692 19.3433C4.06735 20.008 4.50893 20.6738 5.39319 21.1843C7.15058 22.1989 9.97906 22.2093 11.7248 21.1948C12.5876 20.6934 13.0174 20.0397 13.0192 19.3842Z" fill="#5659FA"/>
<path d="M11.6859 17.5276C13.4433 18.5422 13.4707 20.1804 11.7248 21.195C9.97904 22.2095 7.15056 22.1991 5.39317 21.1845C3.63581 20.1699 3.62689 18.5421 5.37262 17.5276C7.11859 16.5129 9.92851 16.5129 11.6859 17.5276Z" fill="#FFD500"/>
<path d="M13.1625 19.1931L13.1591 20.1195C13.1572 20.7961 12.7136 21.4708 11.823 21.9884C10.0211 23.0356 7.10156 23.0248 5.2876 21.9775C4.37488 21.4506 3.91908 20.7634 3.92103 20.0772L3.92441 19.1509C3.9225 19.837 4.3783 20.5242 5.29102 21.0512C7.10498 22.0985 10.0245 22.1092 11.8264 21.0621C12.7171 20.5445 13.1606 19.8697 13.1625 19.1931Z" fill="url(#paint2_linear_26540_52601)"/>
<path d="M11.7862 17.2762C13.6001 18.3235 13.6285 20.0144 11.8263 21.0617C10.0244 22.1089 7.10486 22.0981 5.29089 21.0508C3.47696 20.0035 3.46776 18.3234 5.26968 17.2762C7.07186 16.2289 9.97223 16.2289 11.7862 17.2762Z" fill="#242177"/>
<path d="M11.3925 17.4446C12.9865 18.3648 13.0114 19.8507 11.4278 20.7709C9.84443 21.6911 7.27902 21.6816 5.68507 20.7614C4.09116 19.8411 4.08307 18.3648 5.66643 17.4446C7.25002 16.5243 9.79859 16.5243 11.3925 17.4446Z" fill="#FCBE0D"/>
<path d="M6.49597 19.1948L6.49945 19.6535L7.50604 20.2385L7.50257 19.7798L6.49597 19.1948Z" fill="#E0E2E2"/>
<path d="M7.50183 19.7793L7.50531 20.238L10.9271 18.2624L10.9236 17.8037L7.50183 19.7793Z" fill="#D4D6D6"/>
<path d="M6.49597 19.1943L7.50257 19.7793L10.9243 17.8037L9.91773 17.2188L6.49597 19.1943Z" fill="#ECF0F1"/>
<path d="M7.69005 19.0254C7.57618 19.0254 7.48379 18.933 7.48379 18.8191V16.6792L3.90494 8.99795C3.83525 8.84138 3.85217 8.66789 3.94885 8.53079C4.18941 8.18933 4.57355 8.38996 5.09145 8.38644C5.78919 8.43947 5.95576 7.00413 7.00267 7.20208C7.72443 7.33731 7.85249 5.98918 8.85158 6.09212L9.0248 6.11038C9.51262 6.16039 9.61993 5.64643 9.93737 5.25957C10.3487 4.64751 11.0556 4.89665 11.1133 4.89312C11.4595 4.95236 11.5807 4.62806 11.8083 4.42153C11.9247 4.29235 12.1056 4.26053 12.2596 4.3423C12.413 4.42381 12.488 4.59193 12.4463 4.76059L9.55857 15.4182V17.959C9.55857 18.0729 9.46618 18.1653 9.35231 18.1653C9.23844 18.1653 9.14606 18.0729 9.14606 17.959V15.3908C9.14606 15.3725 9.14847 15.3544 9.15317 15.3368L12.0022 4.82222L11.8121 5.03277C11.2502 5.65446 10.6566 4.92676 10.2801 5.48946C10.0109 5.79258 9.78454 6.60612 8.98156 6.52074C8.90756 6.52519 8.58624 6.41292 8.35125 6.68228C8.00164 6.99715 7.68675 7.75049 6.92666 7.60761C6.19484 7.46873 6.07681 8.87299 5.06043 8.79787C4.37713 8.76235 4.32523 8.71244 4.28603 8.76833C4.24192 8.83123 4.15132 8.50352 7.87697 16.5464C7.88972 16.5737 7.89631 16.6035 7.89631 16.6336V18.8191C7.89631 18.933 7.80392 19.0254 7.69005 19.0254Z" fill="#2E2A94"/>
<path opacity="0.3" d="M17.0139 7.42471C17.356 10.1088 16.4485 12.5885 14.7961 14.3627C13.6632 15.5791 12.9627 17.1337 12.9627 18.7959V18.9048C12.9627 19.5541 12.5584 20.2402 11.664 20.7119C9.96097 21.7044 7.15526 21.7044 5.41546 20.7119C4.53332 20.2035 4.11676 19.5541 4.11676 18.9048H4.08001V18.8057C4.08001 17.2096 3.52031 15.6369 2.40877 14.4916C0.916712 12.9541 0.00012207 10.8568 0.00012207 8.54573C0.00012207 3.51814 4.34269 -0.500352 9.48972 0.0506381C13.3615 0.465113 16.5215 3.56206 17.0139 7.42471Z" fill="#9DADFE"/>
<defs>
<linearGradient id="paint0_linear_26540_52601" x1="12.2414" y1="22.4276" x2="2.48895" y2="18.8994" gradientUnits="userSpaceOnUse">
<stop stop-color="#0F00FF"/>
<stop offset="1" stop-color="white"/>
</linearGradient>
<linearGradient id="paint1_linear_26540_52601" x1="12.2414" y1="20.9012" x2="2.48895" y2="17.3731" gradientUnits="userSpaceOnUse">
<stop stop-color="#0F00FF"/>
<stop offset="1" stop-color="white"/>
</linearGradient>
<linearGradient id="paint2_linear_26540_52601" x1="12.2414" y1="19.3749" x2="2.48895" y2="15.8467" gradientUnits="userSpaceOnUse">
<stop stop-color="#0F00FF"/>
<stop offset="1" stop-color="white"/>
</linearGradient>
</defs>
</svg>
