<svg width="96" height="96" viewBox="0 0 96 96" fill="none" xmlns="http://www.w3.org/2000/svg">
<g filter="url(#filter0_d_32187_13930)">
<rect x="16" y="10.6665" width="64" height="64" rx="8" fill="#EEEEEE"/>
<path d="M52.749 26.669C52.7561 26.6706 52.763 26.6731 52.7696 26.6762C54.5075 27.519 55.3593 29.5144 54.7644 31.3532L54.5698 31.9546L54.566 31.9664L54.0657 32.8001C53.9517 32.9901 53.8109 33.1627 53.6475 33.3125L52.8654 34.0295C52.678 34.2013 52.5236 34.4058 52.4099 34.6331L50.25 38.9531C49.9583 39.5366 50.0276 40.2359 50.4281 40.7509C51.4883 42.114 52.1399 43.7498 52.3076 45.4685L52.3727 46.1355C52.453 46.9589 52.4408 47.7887 52.3361 48.6094L52.2417 49.3485C51.9754 51.4345 50.9867 53.3613 49.4476 54.7943C48.8929 55.3107 48.2752 55.7551 47.6092 56.1167L47.3222 56.2725C45.6276 57.1924 43.73 57.6742 41.8018 57.6742H39.3423V40.5783H40.8213L44.4052 35.7658C44.5575 35.5614 44.7427 35.3837 44.9532 35.2399L48.7577 32.6417C48.9993 32.4767 49.2035 32.2626 49.3568 32.0135L52.5962 26.7494C52.6111 26.7254 52.6318 26.7055 52.6564 26.6917L52.6792 26.679C52.7004 26.6671 52.7253 26.6635 52.749 26.669Z" fill="url(#paint0_linear_32187_13930)"/>
<path d="M41.9722 40.9131H57.0955V58.6665H46.3557C43.9348 58.6665 41.9722 56.7039 41.9722 54.2829V40.9131Z" fill="url(#paint1_linear_32187_13930)"/>
<rect x="52.9312" y="40.9131" width="8.76712" height="4.38356" rx="2.19178" fill="url(#paint2_linear_32187_13930)"/>
<rect x="52.9312" y="49.8994" width="9.86301" height="4.38356" rx="2.19178" fill="url(#paint3_linear_32187_13930)"/>
<rect x="52.9312" y="45.2969" width="10.9589" height="4.60274" rx="2.30137" fill="url(#paint4_linear_32187_13930)"/>
<rect x="52.9312" y="54.2827" width="7.89041" height="4.38356" rx="2.19178" fill="url(#paint5_linear_32187_13930)"/>
<path d="M32.1094 40.0361H38.0272C39.2377 40.0361 40.219 41.0174 40.219 42.2279V58.4471H32.1094V40.0361Z" fill="url(#paint6_linear_32187_13930)"/>
<path d="M56.438 41.5708V44.8585H55.2325C54.3246 44.8585 53.5887 44.1225 53.5887 43.2146C53.5887 42.3068 54.3246 41.5708 55.2325 41.5708H56.438Z" fill="url(#paint7_linear_32187_13930)"/>
<path d="M56.438 45.9541V49.2418H55.2325C54.3246 49.2418 53.5887 48.5058 53.5887 47.5979C53.5887 46.6901 54.3246 45.9541 55.2325 45.9541H56.438Z" fill="url(#paint8_linear_32187_13930)"/>
<path d="M56.438 50.3379V53.6256H55.2325C54.3246 53.6256 53.5887 52.8896 53.5887 51.9817C53.5887 51.0739 54.3246 50.3379 55.2325 50.3379H56.438Z" fill="url(#paint9_linear_32187_13930)"/>
<path d="M56.438 54.7212V58.0089H55.2325C54.3246 58.0089 53.5887 57.2729 53.5887 56.365C53.5887 55.4572 54.3246 54.7212 55.2325 54.7212H56.438Z" fill="url(#paint10_linear_32187_13930)"/>
</g>
<defs>
<filter id="filter0_d_32187_13930" x="0" y="-0.000162601" width="96" height="96" filterUnits="userSpaceOnUse" color-interpolation-filters="sRGB">
<feFlood flood-opacity="0" result="BackgroundImageFix"/>
<feColorMatrix in="SourceAlpha" type="matrix" values="0 0 0 0 0 0 0 0 0 0 0 0 0 0 0 0 0 0 127 0" result="hardAlpha"/>
<feOffset dy="5.33333"/>
<feGaussianBlur stdDeviation="8"/>
<feComposite in2="hardAlpha" operator="out"/>
<feColorMatrix type="matrix" values="0 0 0 0 0 0 0 0 0 0 0 0 0 0 0 0 0 0 0.05 0"/>
<feBlend mode="normal" in2="BackgroundImageFix" result="effect1_dropShadow_32187_13930"/>
<feBlend mode="normal" in="SourceGraphic" in2="effect1_dropShadow_32187_13930" result="shape"/>
</filter>
<linearGradient id="paint0_linear_32187_13930" x1="40.8765" y1="58.7761" x2="59.2875" y2="17.5706" gradientUnits="userSpaceOnUse">
<stop stop-color="#0F00FF"/>
<stop offset="0.916375" stop-color="white"/>
</linearGradient>
<linearGradient id="paint1_linear_32187_13930" x1="67.3968" y1="56.6939" x2="53.2135" y2="25.4099" gradientUnits="userSpaceOnUse">
<stop stop-color="#0F00FF"/>
<stop offset="1" stop-color="white" stop-opacity="0.5"/>
</linearGradient>
<linearGradient id="paint2_linear_32187_13930" x1="56.3101" y1="40.4747" x2="59.3232" y2="47.6936" gradientUnits="userSpaceOnUse">
<stop stop-color="white"/>
<stop offset="0.899038" stop-color="#0F00FF"/>
</linearGradient>
<linearGradient id="paint3_linear_32187_13930" x1="56.7325" y1="49.4611" x2="59.4969" y2="56.9119" gradientUnits="userSpaceOnUse">
<stop stop-color="white"/>
<stop offset="0.899038" stop-color="#0F00FF"/>
</linearGradient>
<linearGradient id="paint4_linear_32187_13930" x1="57.1549" y1="44.8366" x2="59.9338" y2="52.7626" gradientUnits="userSpaceOnUse">
<stop stop-color="white"/>
<stop offset="0.899038" stop-color="#0F00FF"/>
</linearGradient>
<linearGradient id="paint5_linear_32187_13930" x1="70.914" y1="48.1674" x2="47.4912" y2="67.2091" gradientUnits="userSpaceOnUse">
<stop stop-color="white"/>
<stop offset="0.899038" stop-color="#0F00FF"/>
</linearGradient>
<linearGradient id="paint6_linear_32187_13930" x1="41.6436" y1="63.4882" x2="27.0566" y2="39.0482" gradientUnits="userSpaceOnUse">
<stop stop-color="#0F00FF"/>
<stop offset="1" stop-color="white"/>
</linearGradient>
<linearGradient id="paint7_linear_32187_13930" x1="57.3147" y1="42.8859" x2="54.4654" y2="42.2283" gradientUnits="userSpaceOnUse">
<stop stop-color="white" stop-opacity="0"/>
<stop offset="1" stop-color="white"/>
</linearGradient>
<linearGradient id="paint8_linear_32187_13930" x1="57.3147" y1="47.2692" x2="54.4654" y2="46.6116" gradientUnits="userSpaceOnUse">
<stop stop-color="white" stop-opacity="0"/>
<stop offset="1" stop-color="white"/>
</linearGradient>
<linearGradient id="paint9_linear_32187_13930" x1="57.3147" y1="51.653" x2="54.4654" y2="50.9954" gradientUnits="userSpaceOnUse">
<stop stop-color="white" stop-opacity="0"/>
<stop offset="1" stop-color="white"/>
</linearGradient>
<linearGradient id="paint10_linear_32187_13930" x1="57.3147" y1="56.0363" x2="54.4654" y2="55.3787" gradientUnits="userSpaceOnUse">
<stop stop-color="white" stop-opacity="0"/>
<stop offset="1" stop-color="white"/>
</linearGradient>
</defs>
</svg>
