<svg width="96" height="96" viewBox="0 0 96 96" fill="none" xmlns="http://www.w3.org/2000/svg">
<g filter="url(#filter0_d_32187_13893)">
<path d="M16 21.3332C16 15.4421 20.7756 10.6665 26.6667 10.6665H69.3333C75.2244 10.6665 80 15.4421 80 21.3332V63.9998C80 69.8909 75.2244 74.6665 69.3333 74.6665H26.6667C20.7756 74.6665 16 69.8909 16 63.9998V21.3332Z" fill="white"/>
<path d="M42.1591 45.1575C45.2321 45.1575 47.7327 42.658 47.7327 39.5839C47.7327 36.5108 45.2332 34.0103 42.1591 34.0103C39.086 34.0103 36.5854 36.5109 36.5854 39.5839C36.5854 42.6568 39.0849 45.1575 42.1591 45.1575Z" fill="#2E2A94"/>
<path d="M42.1592 45.8828C37.3535 45.8828 33.5884 48.3313 33.5884 51.4564V55.115C33.5884 55.5334 33.9285 55.8735 34.3469 55.8735H49.9752C50.3935 55.8735 50.7336 55.5334 50.7336 55.115V51.4564C50.7336 48.3312 46.9685 45.8828 42.1628 45.8828H42.1592Z" fill="#2E2A94"/>
<path d="M53.8397 40.6067C56.9128 40.6067 59.4133 38.1072 59.4133 35.0331C59.4133 31.96 56.9139 29.4595 53.8397 29.4595C50.7667 29.4595 48.2661 31.9589 48.2661 35.0331C48.2661 38.1061 50.7655 40.6067 53.8397 40.6067Z" fill="#2E2A94"/>
<path d="M46.0604 44.5389C47.4448 42.5906 50.4963 41.332 53.8397 41.332L53.8407 41.333C58.6464 41.333 62.4115 43.7814 62.4115 46.9066V50.5652C62.4115 50.9835 62.0714 51.3237 61.653 51.3237H51.9682C51.5498 51.3237 51.2097 50.5652 51.2097 50.5652C51.2097 50.5652 50.5884 46.9594 46.0884 45.9594C45.7482 45.7165 45.8175 44.879 46.0604 44.5389Z" fill="#2E2A94"/>
</g>
<defs>
<filter id="filter0_d_32187_13893" x="0" y="-0.000162601" width="96" height="96" filterUnits="userSpaceOnUse" color-interpolation-filters="sRGB">
<feFlood flood-opacity="0" result="BackgroundImageFix"/>
<feColorMatrix in="SourceAlpha" type="matrix" values="0 0 0 0 0 0 0 0 0 0 0 0 0 0 0 0 0 0 127 0" result="hardAlpha"/>
<feOffset dy="5.33333"/>
<feGaussianBlur stdDeviation="8"/>
<feComposite in2="hardAlpha" operator="out"/>
<feColorMatrix type="matrix" values="0 0 0 0 0 0 0 0 0 0 0 0 0 0 0 0 0 0 0.05 0"/>
<feBlend mode="normal" in2="BackgroundImageFix" result="effect1_dropShadow_32187_13893"/>
<feBlend mode="normal" in="SourceGraphic" in2="effect1_dropShadow_32187_13893" result="shape"/>
</filter>
</defs>
</svg>
