<svg width="96" height="96" viewBox="0 0 96 96" fill="none" xmlns="http://www.w3.org/2000/svg">
<g filter="url(#filter0_d_32187_13903)">
<path d="M16 21.3332C16 15.4421 20.7756 10.6665 26.6667 10.6665H69.3333C75.2244 10.6665 80 15.4421 80 21.3332V63.9998C80 69.8909 75.2244 74.6665 69.3333 74.6665H26.6667C20.7756 74.6665 16 69.8909 16 63.9998V21.3332Z" fill="white"/>
<path d="M37.6992 32.047V53.286C37.6992 54.0293 38.3364 54.6665 39.0797 54.6665H56.9205C57.6638 54.6665 58.301 54.0293 58.301 53.286V37.1975C58.301 36.8258 58.1417 36.5072 57.8762 36.2417L52.7258 31.0913C52.4603 30.8258 52.1417 30.6665 51.77 30.6665H39.0797C38.3364 30.6665 37.6992 31.2506 37.6992 32.047Z" fill="#2E2A94"/>
<path d="M52.354 31.2506V36.348C52.354 36.5073 52.4602 36.6135 52.6195 36.6135H57.7168C57.9292 36.6135 58.0354 36.348 57.8761 36.1887L52.7788 31.0913C52.6195 30.9321 52.354 31.0382 52.354 31.2506Z" fill="#2E2A94"/>
<path d="M46.2965 39.2594H50.4381H51.0221C51.4469 39.2594 51.8186 38.8877 51.8186 38.463C51.8186 38.0382 51.4469 37.6665 51.0221 37.6665C49.6416 37.6665 48.2611 37.6665 46.8805 37.6665C46.6681 37.6665 46.5088 37.6665 46.2965 37.6665C45.8717 37.6665 45.5 38.0382 45.5 38.463C45.5531 38.8877 45.8717 39.2594 46.2965 39.2594Z" fill="white"/>
<path d="M46.2965 43.3478H50.4381H51.0221C51.4469 43.3478 51.8186 42.9761 51.8186 42.5513C51.8186 42.1266 51.4469 41.7549 51.0221 41.7549C49.6416 41.7549 48.2611 41.7549 46.8805 41.7549C46.6681 41.7549 46.5088 41.7549 46.2965 41.7549C45.8717 41.7549 45.5 42.1266 45.5 42.5513C45.5531 42.9761 45.8717 43.3478 46.2965 43.3478Z" fill="white"/>
<path d="M46.2965 47.4362H50.4381H51.0221C51.4469 47.4362 51.8186 47.0645 51.8186 46.6397C51.8186 46.2149 51.4469 45.8433 51.0221 45.8433C49.6416 45.8433 48.2611 45.8433 46.8805 45.8433C46.6681 45.8433 46.5088 45.8433 46.2965 45.8433C45.8717 45.8433 45.5 46.2149 45.5 46.6397C45.5531 47.0645 45.8717 47.4362 46.2965 47.4362Z" fill="white"/>
</g>
<defs>
<filter id="filter0_d_32187_13903" x="0" y="-0.000162601" width="96" height="96" filterUnits="userSpaceOnUse" color-interpolation-filters="sRGB">
<feFlood flood-opacity="0" result="BackgroundImageFix"/>
<feColorMatrix in="SourceAlpha" type="matrix" values="0 0 0 0 0 0 0 0 0 0 0 0 0 0 0 0 0 0 127 0" result="hardAlpha"/>
<feOffset dy="5.33333"/>
<feGaussianBlur stdDeviation="8"/>
<feComposite in2="hardAlpha" operator="out"/>
<feColorMatrix type="matrix" values="0 0 0 0 0 0 0 0 0 0 0 0 0 0 0 0 0 0 0.05 0"/>
<feBlend mode="normal" in2="BackgroundImageFix" result="effect1_dropShadow_32187_13903"/>
<feBlend mode="normal" in="SourceGraphic" in2="effect1_dropShadow_32187_13903" result="shape"/>
</filter>
</defs>
</svg>
