<svg width="17" height="16" viewBox="0 0 17 16" fill="none" xmlns="http://www.w3.org/2000/svg">
<path d="M16.4103 0.46875C16.4103 0.21 16.0018 0 15.4986 0H0.911681C0.408434 0 0 0.21 0 0.46875V15.5312C0 15.79 0.408434 16 0.911681 16H15.4986C16.0018 16 16.4103 15.79 16.4103 15.5312V0.46875Z" fill="#2E2A94"/>
<path d="M5.74309 7H2.46104C2.23458 7 2.05078 7.224 2.05078 7.5V10.5C2.05078 10.776 2.23458 11 2.46104 11H5.74309C5.96955 11 6.15335 10.776 6.15335 10.5V7.5C6.15335 7.224 5.96955 7 5.74309 7Z" fill="white"/>
<path d="M14.3584 6.5C14.3584 6.776 14.1287 7 13.8456 7H10.7687C10.4856 7 10.2559 6.776 10.2559 6.5C10.2559 6.224 10.4856 6 10.7687 6H13.8456C14.1287 6 14.3584 6.224 14.3584 6.5Z" fill="white"/>
<path d="M14.3587 8.5C14.3587 8.776 14.1289 9 13.8459 9H9.74329C9.46021 9 9.23047 8.776 9.23047 8.5C9.23047 8.224 9.46021 8 9.74329 8H13.8459C14.1289 8 14.3587 8.224 14.3587 8.5Z" fill="white"/>
<path d="M13.333 10.5C13.333 10.776 13.1033 11 12.8202 11H9.74329C9.46021 11 9.23047 10.776 9.23047 10.5C9.23047 10.224 9.46021 10 9.74329 10H12.8202C13.1033 10 13.333 10.224 13.333 10.5Z" fill="white"/>
</svg>
