<svg width="29" height="27" viewBox="0 0 29 27" fill="none" xmlns="http://www.w3.org/2000/svg">
<path d="M8.57067 15.698C11.6437 15.698 14.1443 13.1986 14.1443 10.1244C14.1443 7.05133 11.6448 4.55078 8.57067 4.55078C5.49762 4.55078 2.99707 7.05139 2.99707 10.1244C2.99707 13.1974 5.4965 15.698 8.57067 15.698Z" fill="#2E2A94"/>
<path d="M8.57081 16.4233C3.76509 16.4233 0 18.8718 0 21.9969V25.6555C0 26.0739 0.340132 26.414 0.758478 26.414H16.3868C16.8051 26.414 17.1453 26.0739 17.1453 25.6555V21.9969C17.1453 18.8717 13.3802 16.4233 8.57445 16.4233H8.57081Z" fill="#2E2A94"/>
<path d="M20.2513 11.1472C23.3244 11.1472 25.8249 8.64778 25.8249 5.5736C25.8249 2.50055 23.3255 0 20.2513 0C17.1783 0 14.6777 2.49943 14.6777 5.5736C14.6777 8.64665 17.1772 11.1472 20.2513 11.1472Z" fill="#2E2A94"/>
<path d="M12.472 15.0794C13.8564 13.1311 16.9079 11.8726 20.2513 11.8726L20.2523 11.8735C25.058 11.8735 28.8231 14.3219 28.8231 17.4471V21.1057C28.8231 21.5241 28.483 21.8642 28.0646 21.8642H18.3798C17.9614 21.8642 17.6213 21.1057 17.6213 21.1057C17.6213 21.1057 17 17.4999 12.5 16.4999C12.1599 16.257 12.2291 15.4195 12.472 15.0794Z" fill="#2E2A94"/>
</svg>
