<svg width="48" height="48" viewBox="0 0 48 48" fill="none" xmlns="http://www.w3.org/2000/svg">
<path d="M22.7201 20.592L11.6555 27.0202L11.6328 35.2105L22.6975 28.7824L33.7621 22.3519L33.7847 14.1616L22.7201 20.592Z" fill="#AB8D3E"/>
<path d="M8.48588 24.4015C8.26844 24.1297 8.07591 23.8556 7.90603 23.5747C7.65235 23.1557 7.45303 22.7276 7.31033 22.295C7.1178 21.7174 7.02267 21.133 7.02494 20.5464H7.02267L7.00002 28.7344C6.99323 31.0765 8.54024 33.4231 11.6343 35.2102L11.6569 27.0198C10.3024 26.2384 9.24466 25.3482 8.48361 24.4015H8.48588Z" fill="#B79A4E"/>
<path d="M33.7848 14.1614L22.7201 20.5918L11.6578 27.0222C5.50823 23.4707 5.47425 17.713 11.583 14.1637C17.6941 10.6121 27.6352 10.6121 33.7848 14.1637V14.1614Z" fill="#EBCB76"/>
<mask id="mask0_34701_40713" style="mask-type:luminance" maskUnits="userSpaceOnUse" x="40" y="20" width="2" height="13">
<path d="M41.7739 20.4214L41.7513 28.6117C41.7467 30.0047 41.1759 31.4136 40.0117 32.7476L40.0344 24.5573C41.1986 23.2255 41.7694 21.8144 41.7739 20.4214Z" fill="white"/>
</mask>
<g mask="url(#mask0_34701_40713)">
<path d="M41.7716 20.5572C41.7626 20.8494 41.7309 21.1416 41.672 21.4338C41.6131 21.726 41.5293 22.0182 41.4206 22.3081C41.3073 22.6116 41.1646 22.9151 40.9947 23.2164C40.809 23.5471 40.587 23.8755 40.3334 24.1994C40.2382 24.3194 40.1386 24.4395 40.0344 24.5595L40.0117 32.7498C40.1159 32.6298 40.2156 32.512 40.3107 32.3897C40.5644 32.0658 40.7864 31.7374 40.9721 31.4067C41.142 31.1054 41.2847 30.8019 41.3979 30.4984C41.5066 30.2085 41.5904 29.9163 41.6493 29.6241C41.7082 29.3319 41.7422 29.0397 41.749 28.7475C41.749 28.7022 41.749 28.6592 41.749 28.6139L41.7716 20.4236C41.7716 20.4689 41.7716 20.5119 41.7716 20.5572Z" fill="#15125E"/>
</g>
<path d="M37.0884 14C42.008 16.8403 43.1632 20.9785 40.0329 24.5573L26.0215 20.4304L37.0861 14H37.0884Z" fill="#2E2A94"/>
<path d="M40.0341 24.5573L40.0114 32.7476L26 28.6207L26.0249 20.4304L40.0341 24.5573Z" fill="#15125E"/>
<path d="M36.5466 25.2518C36.5058 25.2949 36.4605 25.3357 36.4175 25.3764C36.3314 25.4602 36.2453 25.544 36.157 25.6256C36.0777 25.6981 35.9962 25.7683 35.9146 25.8385C35.8467 25.8974 35.781 25.9563 35.7108 26.0129C35.6247 26.0831 35.5364 26.1511 35.448 26.219C35.3755 26.2734 35.3076 26.33 35.2328 26.3844C35.14 26.4523 35.0426 26.518 34.9475 26.5859C34.875 26.6358 34.8025 26.6879 34.7277 26.7377C34.6258 26.8057 34.5194 26.8713 34.4129 26.937C34.3382 26.9823 34.2679 27.0299 34.1932 27.0752C34.166 27.091 34.1366 27.1069 34.1094 27.125C33.9735 27.2043 33.8353 27.2836 33.6972 27.3583C33.6451 27.3855 33.593 27.4149 33.5409 27.4421C33.414 27.5101 33.2827 27.5758 33.1513 27.6414C33.106 27.6641 33.0584 27.6867 33.0131 27.7094C32.8387 27.7932 32.662 27.877 32.4808 27.9563C32.4491 27.9699 32.4152 27.9835 32.3834 27.9971C32.2317 28.0627 32.0777 28.1284 31.9236 28.1896C31.867 28.2122 31.8081 28.2349 31.7492 28.2575C31.6065 28.3142 31.4638 28.3685 31.3189 28.4206C31.2691 28.4387 31.217 28.4591 31.1671 28.4772C30.9769 28.5452 30.7843 28.6109 30.5895 28.6743C30.3608 28.749 30.1275 28.8193 29.8942 28.8872C29.8806 28.8917 29.867 28.894 29.8534 28.8985C29.6314 28.962 29.4072 29.0208 29.1784 29.0775C29.0969 29.0979 29.0154 29.116 28.9316 29.1364C28.7707 29.1749 28.6099 29.2134 28.4491 29.2473C28.3517 29.2677 28.252 29.2881 28.1546 29.3085C28.0052 29.338 27.8579 29.3697 27.7062 29.3968C27.6269 29.4127 27.5454 29.424 27.4638 29.4376C27.2328 29.4784 27.0018 29.5146 26.7662 29.5486C26.6824 29.5599 26.5963 29.5735 26.5125 29.5848C26.2113 29.6256 25.9077 29.6641 25.602 29.6936C25.5725 29.6958 25.5431 29.6981 25.5136 29.7004C25.2758 29.723 25.0357 29.7434 24.7934 29.7592C24.7005 29.766 24.6099 29.7706 24.517 29.7751C24.3381 29.7864 24.1569 29.7955 23.9757 29.8023C23.8602 29.8068 23.7446 29.8091 23.6269 29.8136C23.4864 29.8181 23.346 29.8204 23.2056 29.8227C23.0855 29.8227 22.9655 29.8227 22.8454 29.8227C22.705 29.8227 22.5646 29.8227 22.4241 29.8181C22.2996 29.8159 22.175 29.8113 22.0504 29.8091C21.9236 29.8045 21.7945 29.8 21.6676 29.7932C21.5408 29.7864 21.4139 29.7796 21.2871 29.7728C21.1603 29.766 21.0334 29.757 20.9043 29.7479C20.7775 29.7389 20.6484 29.7275 20.5215 29.7162C20.3969 29.7049 20.2701 29.6936 20.1455 29.68C20.0187 29.6664 19.8918 29.6528 19.7627 29.6369C19.6382 29.6211 19.5113 29.6052 19.3867 29.5894C19.2622 29.5735 19.1399 29.5554 19.0175 29.535C18.8816 29.5146 18.748 29.4942 18.6144 29.4716C18.4921 29.4512 18.372 29.4308 18.2497 29.4082C18.1161 29.3833 17.9824 29.3583 17.8488 29.3312C17.7333 29.3085 17.6178 29.2836 17.5045 29.2587C17.346 29.2247 17.1897 29.1885 17.0334 29.1522C16.9247 29.1273 16.8159 29.1001 16.7095 29.0729C16.5487 29.0322 16.3901 28.9891 16.2293 28.9461C16.0934 28.9076 15.9552 28.8736 15.8193 28.8329C15.6404 28.7808 15.4682 28.7264 15.2984 28.672C15.244 28.6562 15.1942 28.6381 15.1398 28.6199C15.0243 28.5814 14.9088 28.5429 14.7978 28.5044C14.7389 28.484 14.68 28.4637 14.6234 28.4433C14.5169 28.4048 14.4127 28.3663 14.3086 28.3278C14.2542 28.3074 14.1976 28.287 14.1432 28.2643C14.0707 28.2372 14.0005 28.2077 13.9303 28.1783C13.8125 28.1307 13.697 28.0831 13.5815 28.0333C13.5135 28.0039 13.4456 27.9744 13.3776 27.945C13.2666 27.8951 13.1557 27.8453 13.0469 27.7932C12.9813 27.7638 12.9178 27.7321 12.8544 27.7003C12.7366 27.6437 12.6211 27.5826 12.5056 27.5237C12.4512 27.4965 12.3969 27.467 12.3425 27.4399C12.1726 27.3493 12.005 27.2564 11.8351 27.159L11.8125 35.3493C11.9824 35.4467 12.15 35.5396 12.3199 35.6302C12.3742 35.6596 12.4286 35.6868 12.4829 35.714C12.5985 35.7751 12.7162 35.834 12.8318 35.8907C12.8952 35.9224 12.9609 35.9518 13.0243 35.9835C13.133 36.0356 13.244 36.0855 13.3572 36.1353C13.4252 36.1647 13.4931 36.1942 13.5611 36.2236C13.6766 36.2735 13.7921 36.321 13.9099 36.3686C13.9552 36.3867 13.9982 36.4048 14.0435 36.4229C14.0707 36.4343 14.0979 36.4433 14.1228 36.4524C14.1772 36.4728 14.2315 36.4932 14.2882 36.5158C14.3924 36.5543 14.4966 36.5928 14.603 36.6313C14.6619 36.6517 14.7185 36.6721 14.7774 36.6925C14.8907 36.731 15.0039 36.7695 15.1194 36.808C15.1715 36.8261 15.2236 36.842 15.278 36.8601C15.4479 36.9145 15.62 36.9666 15.7989 37.0209C15.8624 37.039 15.9258 37.0572 15.9915 37.0775C16.064 37.0979 16.1364 37.116 16.2089 37.1364C16.3675 37.1795 16.5283 37.2225 16.6891 37.2633C16.7978 37.2904 16.9043 37.3154 17.013 37.3425C17.1693 37.3788 17.3278 37.415 17.4841 37.449C17.5407 37.4603 17.5974 37.4762 17.654 37.4875C17.7129 37.4988 17.7718 37.5102 17.8307 37.5215C17.9643 37.5487 18.0979 37.5736 18.2316 37.5985C18.3516 37.6211 18.4739 37.6415 18.5962 37.6619C18.7299 37.6846 18.8658 37.7049 18.9994 37.7253C19.0696 37.7367 19.1399 37.748 19.2101 37.7593C19.2622 37.7661 19.3165 37.7729 19.3686 37.7797C19.4932 37.7956 19.62 37.8114 19.7446 37.8273C19.8715 37.8431 19.9983 37.8567 20.1274 37.8703C20.252 37.8839 20.3788 37.8952 20.5034 37.9065C20.5759 37.9133 20.6506 37.9224 20.7231 37.9269C20.7775 37.9315 20.8318 37.9337 20.8862 37.9382C21.013 37.9473 21.1399 37.9564 21.269 37.9632C21.3958 37.97 21.5227 37.979 21.6495 37.9835C21.7763 37.9903 21.9054 37.9949 22.0323 37.9994C22.1048 38.0017 22.1795 38.0062 22.252 38.0085C22.3041 38.0085 22.3539 38.0085 22.406 38.0085C22.5464 38.0107 22.6869 38.013 22.8273 38.013C22.9474 38.013 23.0674 38.013 23.1874 38.013C23.3279 38.013 23.4683 38.0085 23.6087 38.0039C23.688 38.0039 23.7673 38.0039 23.8466 37.9994C23.8828 37.9994 23.9191 37.9949 23.9553 37.9949C24.1365 37.9881 24.3154 37.979 24.4966 37.9677C24.5895 37.9632 24.6824 37.9586 24.773 37.9518C25.0131 37.936 25.2532 37.9156 25.4932 37.8929C25.5204 37.8907 25.5476 37.8884 25.5748 37.8862C25.5748 37.8862 25.5793 37.8862 25.5816 37.8862C25.8874 37.8567 26.1909 37.8182 26.4921 37.7774C26.5782 37.7661 26.662 37.7525 26.7458 37.7412C26.9791 37.7072 27.2124 37.671 27.4434 37.6302C27.4955 37.6211 27.5476 37.6143 27.5975 37.6053C27.6269 37.6008 27.6541 37.594 27.6835 37.5872C27.833 37.56 27.9825 37.5283 28.132 37.4988C28.2294 37.4784 28.3291 37.4603 28.4265 37.4377C28.5895 37.4014 28.7481 37.3652 28.9089 37.3267C28.9904 37.3063 29.0742 37.2882 29.1558 37.2678C29.3846 37.2112 29.6088 37.15 29.8308 37.0866C29.8444 37.0821 29.8557 37.0798 29.8693 37.0753C30.1048 37.0073 30.3359 36.9371 30.5669 36.8624C30.576 36.8601 30.5828 36.8578 30.5918 36.8556C30.7775 36.7944 30.9633 36.731 31.1445 36.6676C31.1966 36.6494 31.2464 36.6313 31.2962 36.6109C31.4412 36.5588 31.5862 36.5045 31.7266 36.4479C31.7855 36.4252 31.8421 36.4026 31.901 36.3776C32.055 36.3142 32.209 36.2508 32.3585 36.1851C32.3902 36.1715 32.4242 36.1579 32.4559 36.1421C32.6371 36.0628 32.8138 35.979 32.9882 35.8952C33.0358 35.8725 33.0811 35.8499 33.1264 35.8272C33.2577 35.7616 33.3869 35.6959 33.516 35.6279C33.5681 35.6007 33.6201 35.5713 33.6722 35.5441C33.8127 35.4671 33.9508 35.3901 34.0845 35.3108C34.1117 35.295 34.1411 35.2791 34.1683 35.261C34.1751 35.2565 34.1841 35.2519 34.1909 35.2474C34.2589 35.2066 34.3223 35.1636 34.388 35.1228C34.4944 35.0571 34.6009 34.9915 34.7028 34.9235C34.7776 34.8737 34.8478 34.8216 34.9225 34.7717C35.0177 34.7061 35.1151 34.6404 35.2079 34.5702C35.2804 34.5158 35.3506 34.4614 35.4208 34.4071C35.5092 34.3391 35.5998 34.2712 35.6836 34.201C35.7538 34.1443 35.8195 34.0854 35.8874 34.0266C35.969 33.9563 36.0528 33.8861 36.1321 33.8136C36.1457 33.8 36.1615 33.7887 36.1751 33.7751C36.2498 33.7072 36.3201 33.6347 36.3903 33.5645C36.4333 33.5215 36.4786 33.4807 36.5194 33.4376C36.6462 33.3085 36.7685 33.1794 36.8841 33.0458L36.9067 24.8555C36.7912 24.9891 36.6689 25.1182 36.542 25.2473L36.5466 25.2518Z" fill="#AB8D3E"/>
<path d="M36.9117 24.8598C33 29.3355 23.5594 31.1135 15.8198 28.8349C14.2728 28.3796 13.0678 27.8745 11.8379 27.1633L22.9003 20.7329L36.9117 24.8598Z" fill="white"/>
</svg>
