<svg width="39" height="26" viewBox="0 0 39 26" fill="none" xmlns="http://www.w3.org/2000/svg">
<path d="M33.3677 7.10596H11.9317C11.4407 7.10596 11.0435 7.50323 11.0435 7.99419V18.653C11.0435 19.1439 11.4407 19.5412 11.9317 19.5412H33.3677C33.8586 19.5412 34.2559 19.1439 34.2559 18.653V7.99419C34.2559 7.50323 33.8586 7.10596 33.3677 7.10596Z" fill="url(#paint0_linear_28305_13290)"/>
<path d="M29.8169 3.55273H8.38091C7.88995 3.55273 7.49268 3.95001 7.49268 4.44097V15.0997C7.49268 15.5907 7.88995 15.988 8.38091 15.988H29.8169C30.3078 15.988 30.7051 15.5907 30.7051 15.0997V4.44097C30.7051 3.95001 30.3078 3.55273 29.8169 3.55273Z" fill="#2E2A94"/>
<path d="M26.2622 0H4.82622C4.33526 0 3.93799 0.397276 3.93799 0.888231V11.547C3.93799 12.038 4.33526 12.4352 4.82622 12.4352H26.2622C26.7531 12.4352 27.1504 12.038 27.1504 11.547V0.888231C27.1504 0.397276 26.7531 0 26.2622 0Z" fill="url(#paint1_linear_28305_13290)"/>
<path d="M10.1574 8.88242H8.38091C7.88995 8.88242 7.49268 8.48514 7.49268 7.99419C7.49268 7.50323 7.88995 7.10596 8.38091 7.10596H10.1574C10.6483 7.10596 11.0456 7.50323 11.0456 7.99419C11.0456 8.48514 10.6483 8.88242 10.1574 8.88242Z" fill="white"/>
<path d="M22.6496 5.3292H20.8731C20.3821 5.3292 19.9849 4.93192 19.9849 4.44097C19.9849 3.95001 20.3821 3.55273 20.8731 3.55273H22.6496C23.1405 3.55273 23.5378 3.95001 23.5378 4.44097C23.5378 4.93192 23.1405 5.3292 22.6496 5.3292Z" fill="white"/>
<path d="M15.5441 8.88212C17.0158 8.88212 18.2088 7.6891 18.2088 6.21743C18.2088 4.74576 17.0158 3.55273 15.5441 3.55273C14.0724 3.55273 12.8794 4.74576 12.8794 6.21743C12.8794 7.6891 14.0724 8.88212 15.5441 8.88212Z" fill="white"/>
<path d="M37.0942 25.2455L38.1883 23.3506H36.0002L37.0942 25.2455ZM37.0942 12.9287H36.9047V23.5401H37.0942H37.2837V12.9287H37.0942Z" fill="#111111"/>
<path d="M1.09424 12.9286L2.18826 11.0337H0.000221491L1.09424 12.9286ZM1.09424 0.611816H0.904749V11.2232H1.09424H1.28373V0.611816H1.09424Z" fill="#111111"/>
<defs>
<linearGradient id="paint0_linear_28305_13290" x1="34.2134" y1="7.05638" x2="8.48675" y2="16.9667" gradientUnits="userSpaceOnUse">
<stop stop-color="white"/>
<stop offset="1" stop-color="#0F00FF"/>
</linearGradient>
<linearGradient id="paint1_linear_28305_13290" x1="27.1079" y1="-0.0495732" x2="1.38128" y2="9.86077" gradientUnits="userSpaceOnUse">
<stop stop-color="white"/>
<stop offset="1" stop-color="#0F00FF"/>
</linearGradient>
</defs>
</svg>
