<svg width="80" height="80" viewBox="0 0 80 80" fill="none" xmlns="http://www.w3.org/2000/svg">
<path d="M46.5474 35.2294C44.0201 34.1906 40.9637 34.7704 38.4458 35.8544C24.0977 42.7882 22.4421 55.8374 23.4751 62.1288C23.5131 62.3593 23.6353 62.5435 23.8003 62.6689L23.7749 62.6992L28.3872 65.1611L34.8882 57.5771L50.9683 49.3632C51.2611 49.2136 51.4571 48.9112 51.4771 48.5829C51.7232 44.5292 51.2994 41.5601 50.4399 39.4326L51.6128 38.0644L47.897 35.9824C47.4738 35.6724 47.0251 35.4259 46.5591 35.2333L46.5483 35.2285L46.5474 35.2294Z" fill="url(#paint0_linear_34566_15112)"/>
<path d="M42.5908 14.8453C39.4551 13.3653 34.6631 15.6704 31.79 20.0806C28.9091 24.5029 29.0363 29.3853 32.043 31.0875L32.0322 31.1041L36.6826 33.5552L38.7842 30.3023C40.393 29.3167 41.9282 27.8422 43.1279 26.0005C44.3497 24.125 45.0288 22.1659 45.1787 20.4019L47.2002 17.272L42.7705 14.9332C42.7633 14.9294 42.7563 14.9252 42.749 14.9214C42.7434 14.9185 42.7371 14.9156 42.7314 14.9127L42.5938 14.8404L42.5908 14.8453Z" fill="url(#paint1_linear_34566_15112)"/>
<ellipse cx="6.39509" cy="9.69062" rx="6.39509" ry="9.69062" transform="matrix(-0.886428 -0.462867 -0.545847 0.837885 52.8501 20.2158)" fill="#756DFF"/>
<path d="M28.2517 65.7045L56.0444 51.6476C57.1945 36.1695 48.7261 36.0459 43.0193 38.4789C27.6853 45.8163 26.8141 60.0534 28.2517 65.7045Z" fill="url(#paint2_linear_34566_15112)"/>
<path d="M39.5223 77.4194V77.3459H37.9593V77.2724H36.9155V77.1989H36.1732V77.1254H35.6541V77.0519H35.0568V76.9783H34.5377V76.9048H34.0911V76.8313H33.7172V76.7578H33.2706V76.6843H32.8966V76.6108H32.5282V76.5373H32.2268V76.4638H31.931V76.3903H31.6351V76.3167H31.2611V76.2432H30.9653V76.1697H30.742V76.0962H30.4406V76.0227H30.2173V75.9492H29.9215V75.8757H29.6982V75.8022H29.4024V75.7287H29.1791V75.6551H29.0284V75.5816H28.8051V75.5081H28.5819V75.4346H28.3586V75.3611H28.1353V75.2876H27.912V75.2141H27.6888V75.1405H27.4655V75.067H27.3148V74.9935H27.0915V74.92H26.9464V74.8465H26.7231V74.773H26.5724V74.6995H26.3491V74.626H26.1984V74.5525H25.9752V74.4789H25.83V74.4054H25.6793V74.3319H25.5286V74.2584H25.3835V74.1849H25.1602V74.1114H25.0095V74.0379H24.8588V73.9644H24.7137V73.8908H24.5629V73.8173H24.4122V73.7438H24.2671V73.6703H24.1164V73.5968H23.9657V73.5233H23.8206V73.4498H23.6699V73.3763H23.5191V73.3027H23.374V73.2292H23.2233V73.1557H23.0726V73.0822H22.9275V73.0087H22.7768V72.9352H22.7042V72.8617H22.5535V72.7882H22.4028V72.7146H22.2577V72.6411H22.1795V72.5676H22.0344V72.4941H21.8837V72.4206H21.733V72.3471H21.6604V72.2736H21.5097V72.2001H21.3646V72.1265H21.2864V72.053H21.1413V71.9795H21.0631V71.906H20.918V71.8325H20.7673V71.759H20.6947V71.6855H20.544V71.612H20.4715V71.5384H20.3208V71.4649H20.2482V71.3914H20.0975V71.3179H20.0249V71.2444H19.8742V71.1709H19.8016V71.0974H19.6509V71.0239H19.5784V70.9503H19.4277V70.8768H19.3551V70.8033H19.277V70.7298H19.1318V70.6563H19.0537V70.5828H18.9086V70.5093H18.8304V70.4358H18.7578V70.3622H18.6071V70.2887H18.5346V70.2152H18.462V70.1417H18.3113V70.0682H18.2387V69.9947H18.1606V69.9212H18.0155V69.8477H17.9373V69.7741H17.8647V69.7006H17.7922V69.6271H17.6415V69.5536H17.5689V69.4801H17.4908V69.4066H17.4182V69.3331H17.2675V69.2596H17.1949V69.186H17.1224V69.1125H17.0442V69.039H16.9717V68.9655H16.8209V68.892H16.7484V68.8185H16.6758V68.745H16.5977V68.6715H16.5251V68.598H16.4525V68.5244H16.3018V68.4509H16.2293V68.3774H16.1511V68.3039H16.0786V68.2304H16.006V68.1569H15.9279V68.0834H15.8553V68.0098H15.7046V67.9363H15.632V67.8628H15.5595V67.7893H15.4813V67.7158H15.4087V67.6423H15.3362V67.5688H15.258V67.4953H15.1855V67.4218H15.1129V67.3482H15.0348V67.2747H14.9622V67.2012H14.8896V67.1277H14.8115V67.0542H14.7389V66.9807H14.6664V66.9072H14.5882V66.8337H14.5156V66.7601H14.4431V66.6866H14.3649V66.6131H14.2924V66.5396H14.2198V66.4661H14.1417V66.3926H14.0691V66.3191H13.9965V66.2456H13.9184V66.172H13.8458V66.0985H13.7733V66.025H13.6951V65.9515H13.6226V65.878H13.55V65.8045H13.4718V65.731H13.3993V65.5783H13.3267V65.5048H13.2486V65.4313H13.176V65.3577H13.1034V65.2842H13.0253V65.2107H12.9527V65.1372H12.8802V64.9845H12.802V64.911H12.7295V64.8375H12.6569V64.764H12.5788V64.6905H12.5062V64.617H12.4336V64.4643H12.3555V64.3908H12.2829V64.3173H12.2104V64.2438H12.1322V64.1702H12.0596V64.0176H11.9871V63.944H11.9089V63.8705H11.8364V63.797H11.7638V63.6443H11.6857V63.5708H11.6131V63.4973H11.5405V63.4238H11.4624V63.2711H11.3898V63.1976H11.3173V63.1241H11.2391V62.9714H11.1665V62.8979H11.094V62.8244H11.0158V62.6717H10.9433V62.5982H10.8707V62.5247H10.7926V62.372H10.72V62.2985H10.6474V62.1458H10.5693V62.0723H10.4967V61.9196H10.4242V61.8461H10.346V61.7726H10.2735V61.6199H10.2009V61.5464H10.1227V61.3937H10.0502V61.3202H9.97762V61.1675H9.89947V61.094H9.82691V60.9414H9.75435V60.8678H9.6762V60.7152H9.60364V60.5625H9.53107V60.489H9.45293V60.3363H9.38036V60.2628H9.3078V60.1101H9.22965V60.0366H9.15709V59.8839H9.08453V59.7312H9.00638V59.6577H8.93382V59.505H8.86125V59.3524H8.78311V59.1997H8.71054V59.1262H8.63798V58.9735H8.55983V58.8208H8.48727V58.6681H8.41471V58.5946H8.33656V58.4419H8.264V58.2893H8.19143V58.1366H8.11329V57.9839H8.04072V57.8312H7.96816V57.6785H7.89001V57.5259H7.81745V57.3732H7.74489V57.2205H7.66674V57.0678H7.59418V56.9151H7.52161V56.7625H7.44347V56.6098H7.3709V56.4571H7.29834V56.3044H7.22019V56.1517H7.14763V55.9255H7.07507V55.7729H6.99692V55.6202H6.92436V55.4675H6.85179V55.3148H6.77365V55.0886H6.70108V54.936H6.62852V54.7098H6.55037V54.5571H6.47781V54.3309H6.40525V54.1782H6.3271V53.952H6.25454V53.7258H6.18197V53.5732H6.10383V53.347H6.03126V53.1208H5.9587V52.8946H5.88055V52.6684H5.80799V52.4422H5.73543V52.216H5.65728V51.9898H5.58472V51.8371H5.51215V51.5374H5.43401V51.3112H5.36144V51.0115H5.28888V50.7118H5.21073V50.4856H5.13817V50.1859H5.06561V49.9597H4.98746V49.5809H4.9149V49.2812H4.84233V48.9815H4.76419V48.6026H4.69162V48.3029H4.61906V47.924H4.54091V47.4716H4.46835V47.0192H4.39579V46.6404H4.31764V46.1145H4.24508V45.5094H4.17251V44.9043H4.09437V44.1523H4.0218V43.174H3.94924V41.438H3.87109V40.1543H3.94924V38.4975H4.0218V37.5192H4.09437V36.6879H4.17251V36.0829H4.24508V35.557H4.31764V35.0311H4.39579V34.5787H4.46835V34.1263H4.54091V33.7474H4.61906V33.295H4.69162V32.9953H4.76419V32.6956H4.84233V32.3168H4.9149V32.0171H4.98746V31.7174H5.06561V31.4177H5.13817V31.1915H5.21073V30.8918H5.28888V30.6656H5.36144V30.3659H5.43401V30.0662H5.51215V29.84H5.58472V29.6138H5.65728V29.3876H5.73543V29.1614H5.80799V28.9352H5.88055V28.709H5.9587V28.4828H6.03126V28.2566H6.10383V28.1039H6.18197V27.8778H6.25454V27.7251H6.3271V27.4989H6.40525V27.2727H6.47781V27.12H6.55037V26.8938H6.62852V26.7411H6.70108V26.5149H6.77365V26.3623H6.85179V26.2096H6.92436V26.0569H6.99692V25.8307H7.07507V25.678H7.14763V25.5254H7.22019V25.3727H7.29834V25.22H7.3709V24.9938H7.44347V24.8411H7.52161V24.6884H7.59418V24.5358H7.66674V24.3831H7.74489V24.2304H7.81745V24.0777H7.89001V23.925H7.96816V23.7724H8.04072V23.6197H8.11329V23.5462H8.19143V23.3935H8.264V23.2408H8.33656V23.0881H8.41471V22.9355H8.48727V22.7828H8.55983V22.7093H8.63798V22.5566H8.71054V22.4039H8.78311V22.2512H8.86125V22.1777H8.93382V22.025H9.00638V21.8724H9.08453V21.7988H9.15709V21.6462H9.22965V21.4935H9.3078V21.42H9.38036V21.2673H9.45293V21.1938H9.53107V21.0411H9.60364V20.8884H9.6762V20.8149H9.75435V20.6622H9.82691V20.5887H9.89947V20.436H9.97762V20.3625H10.0502V20.2098H10.1227V20.1363H10.2009V19.9837H10.2735V19.9101H10.346V19.7575H10.4242V19.6839H10.4967V19.6104H10.5693V19.4578H10.6474V19.3842H10.72V19.2316H10.7926V19.1581H10.8707V19.0845H10.9433V18.9319H11.0158V18.8583H11.094V18.7057H11.1665V18.6322H11.2391V18.5586H11.3173V18.4851H11.3898V18.3325H11.4624V18.2589H11.5405V18.1854H11.6131V18.0327H11.6857V17.9592H11.7638V17.8857H11.8364V17.8122H11.9089V17.6595H11.9871V17.586H12.0596V17.5125H12.1322V17.439H12.2104V17.2863H12.2829V17.2128H12.3555V17.1393H12.4336V17.0658H12.5062V16.9923H12.5788V16.9188H12.6569V16.7661H12.7295V16.6926H12.802V16.619H12.8802V16.5455H12.9527V16.472H13.0253V16.3985H13.1034V16.2458H13.176V16.1723H13.2486V16.0988H13.3267V16.0253H13.3993V15.9518H13.4718V15.8783H13.55V15.8048H13.6226V15.7312H13.6951V15.6577H13.7733V15.5842H13.8458V15.5107H13.9184V15.4372H13.9965V15.3637H14.0691V15.2902H14.1417V15.1375H14.2198V15.064H14.2924V14.9905H14.3649V14.917H14.4431V14.8434H14.5156V14.7699H14.5882V14.6964H14.6664V14.6229H14.7389V14.5494H14.8115V14.4759H14.8896V14.4024H15.0348V14.3289H15.1129V14.2553H15.1855V14.1818H15.258V14.1083H15.3362V14.0348H15.4087V13.9613H15.4813V13.8878H15.5595V13.8143H15.632V13.7408H15.7046V13.6672H15.7827V13.5937H15.8553V13.5202H15.9279V13.4467H16.006V13.3732H16.1511V13.2997H16.2293V13.2262H16.3018V13.1527H16.3744V13.0791H16.4525V13.0056H16.5251V12.9321H16.5977V12.8586H16.7484V12.7851H16.8209V12.7116H16.8991V12.6381H16.9717V12.5646H17.0442V12.491H17.1224V12.4175H17.2675V12.344H17.3456V12.2705H17.4182V12.197H17.5689V12.1235H17.6415V12.05H17.714V11.9765H17.7922V11.9029H17.9373V11.8294H18.0155V11.7559H18.088V11.6824H18.1606V11.6089H18.3113V11.5354H18.3839V11.4619H18.462V11.3884H18.6071V11.3148H18.6853V11.2413H18.7578V11.1678H18.9086V11.0943H18.9811V11.0208H19.1318V10.9473H19.2044V10.8738H19.277V10.8003H19.4277V10.7267H19.5002V10.6532H19.6509V10.5797H19.7235V10.5062H19.8016V10.4327H19.9468V10.3592H20.0249V10.2857H20.17V10.2122H20.2482V10.1386H20.3933V10.0651H20.544V9.99162H20.6166V9.91811H20.7673V9.8446H20.8399V9.77109H20.9906V9.69758H21.0631V9.62406H21.2139V9.55055H21.3646V9.47704H21.4371V9.40353H21.5878V9.33001H21.733V9.2565H21.8111V9.18299H21.9562V9.10948H22.1069V9.03596H22.2577V8.96245H22.3302V8.88894H22.4809V8.81543H22.6261V8.74191H22.7042V8.6684H22.8493V8.59489H23V8.52138H23.1507V8.44787H23.2959V8.37435H23.4466V8.30084H23.5973V8.22733H23.7424V8.15382H23.8931V8.0803H24.0438V8.00679H24.189V7.93328H24.3397V7.85977H24.4904V7.78625H24.6355V7.71274H24.7862V7.63923H24.9369V7.56572H25.0821V7.4922H25.3053V7.41869H25.456V7.34518H25.6068V7.27167H25.7519V7.19815H25.9026V7.12464H26.1259V7.05113H26.2766V6.97762H26.4998V6.90411H26.645V6.83059H26.8682V6.75708H27.019V6.68357H27.2422V6.61006H27.3929V6.53654H27.6162V6.46303H27.7613V6.38952H27.9846V6.31601H28.2079V6.24249H28.4312V6.16898H28.6544V6.09547H28.8777V6.02196H29.101V5.94844H29.3243V5.87493H29.5475V5.80142H29.8489V5.72791H30.0722V5.65439H30.3681V5.58088H30.5913V5.50737H30.8872V5.43386H31.1104V5.36035H31.4119V5.28683H31.7803V5.21332H32.0817V5.13981H32.3775V5.0663H32.7515V4.99278H33.0473V4.91927H33.4939V4.84576H33.9404V4.77225H34.3144V4.69873H34.761V4.62522H35.3526V4.55171H35.9499V4.4782H36.469V4.40468H37.4402V4.33117H38.4785V4.25766H41.9057V4.33117H43.0946V4.40468H43.837V4.4782H44.585V4.55171H45.2548V4.62522H45.7014V4.69873H46.1479V4.77225H46.5944V4.84576H47.041V4.91927H47.4094V4.99278H47.7834V5.0663H48.0792V5.13981H48.3806V5.21332H48.6765V5.28683H49.0505V5.36035H49.3463V5.43386H49.6421V5.50737H49.9435V5.58088H50.1668V5.65439H50.3901V5.72791H50.6859V5.80142H50.9092V5.87493H51.1325V5.94844H51.3557V6.02196H51.6516V6.09547H51.8749V6.16898H52.0981V6.24249H52.2488V6.31601H52.4721V6.38952H52.6954V6.46303H52.8461V6.53654H53.0694V6.61006H53.2926V6.68357H53.4378V6.75708H53.661V6.83059H53.8843V6.90411H54.035V6.97762H54.2583V7.05113H54.409V7.12464H54.5541V7.19815H54.7048V7.27167H54.9281V7.34518H55.0788V7.41869H55.224V7.4922H55.3747V7.56572H55.5979V7.63923H55.7487V7.71274H55.8938V7.78625H56.0445V7.85977H56.1952V7.93328H56.3403V8.00679H56.491V8.0803H56.6417V8.15382H56.7869V8.22733H56.9376V8.30084H57.0883V8.37435H57.2334V8.44787H57.3841V8.52138H57.4567V8.59489H57.6074V8.6684H57.7581V8.74191H57.9032V8.81543H58.0539V8.88894H58.2047V8.96245H58.3498V9.03596H58.4279V9.10948H58.5731V9.18299H58.7238V9.2565H58.7963V9.33001H58.947V9.40353H59.0978V9.47704H59.1703V9.55055H59.321V9.62406H59.3936V9.69758H59.5443V9.77109H59.6894V9.8446H59.7676V9.91811H59.9127V9.99162H60.0634V10.0651H60.136V10.1386H60.2867V10.2122H60.3592V10.2857H60.51V10.3592H60.5825V10.4327H60.7332V10.5062H60.8058V10.5797H60.8839V10.6532H61.0291V10.7267H61.1072V10.8003H61.2523V10.8738H61.3305V10.9473H61.4756V11.0208H61.5538V11.0943H61.6263V11.1678H61.777V11.2413H61.8496V11.3148H62.0003V11.3884H62.0729V11.4619H62.1454V11.5354H62.2961V11.6089H62.3687V11.6824H62.4469V11.7559H62.592V11.8294H62.6701V11.9029H62.7427V11.9765H62.8153V12.05H62.8934V12.1235H63.0385V12.197H63.1167V12.2705H63.1892V12.344H63.2618V12.4175H63.4125V12.491H63.4851V12.5646H63.5632V12.6381H63.6358V12.7116H63.7865V12.7851H63.8591V12.8586H63.9316V12.9321H64.0098V13.0056H64.1549V13.0791H64.233V13.1527H64.3056V13.2262H64.3782V13.2997H64.4563V13.3732H64.5289V13.4467H64.6014V13.5202H64.6796V13.5937H64.7521V13.6672H64.8247V13.7408H64.9029V13.8143H65.048V13.8878H65.1261V13.9613H65.1987V14.0348H65.2713V14.1083H65.3494V14.1818H65.422V14.2553H65.4945V14.3289H65.5727V14.4024H65.6452V14.4759H65.7178V14.5494H65.796V14.6229H65.8685V14.6964H65.9411V14.7699H66.0192V14.8434H66.0918V14.917H66.1644V14.9905H66.2425V15.064H66.3151V15.1375H66.3876V15.211H66.4658V15.2845H66.5383V15.358H66.6109V15.4315H66.689V15.5051H66.7616V15.5786H66.8342V15.6521H66.9123V15.7256H66.9849V15.7991H67.0574V15.8726H67.1356V15.9461H67.2082V16.0196H67.2807V16.1723H67.3589V16.2458H67.4314V16.3193H67.504V16.3929H67.5821V16.4664H67.6547V16.5399H67.7273V16.6134H67.8054V16.7661H67.878V16.8396H67.9505V16.9131H68.0287V16.9866H68.1012V17.0601H68.1738V17.2128H68.252V17.2863H68.3245V17.3598H68.3971V17.4333H68.4752V17.5069H68.5478V17.6595H68.6204V17.733H68.6985V17.8066H68.7711V17.8801H68.8436V17.9536H68.9218V18.1063H68.9943V18.1798H69.0669V18.2533H69.1451V18.406H69.2176V18.4795H69.2902V18.553H69.3683V18.7057H69.4409V18.7792H69.5135V18.8527H69.5916V19.0054H69.6642V19.0789H69.7367V19.2316H69.8149V19.3051H69.8874V19.3786H69.96V19.5313H70.0381V19.6048H70.1107V19.6783H70.1833V19.831H70.2614V19.9045H70.334V19.978H70.4065V20.1307H70.4847V20.2834H70.5573V20.3569H70.6298V20.5095H70.708V20.5831H70.7805V20.7357H70.8531V20.8093H70.9312V20.9619H71.0038V21.0354H71.0764V21.1881H71.1545V21.2616H71.2271V21.4143H71.2996V21.4878H71.3778V21.6405H71.4503V21.7932H71.5229V21.8667H71.6011V22.0194H71.6736V22.1721H71.7462V22.4718H71.8243V23.1503H71.7462V23.3765H71.6736V23.5292H71.6011V23.6819H71.5229V23.7554H71.4503V23.8289H71.3778V23.9024H71.2996V24.0551H71.1545V24.1286H71.0764V24.2021H70.8531V24.2756H70.5573V24.3492H70.334V24.2756H69.8149V24.2021H69.6642V24.1286H69.5135V24.0551H69.3683V23.9816H69.2902V23.9081H69.2176V23.8346H69.1451V23.7611H69.0669V23.6875H68.9943V23.5349H68.9218V23.3822H68.8436V23.3087H68.7711V23.156H68.6985V23.0033H68.6204V22.9298H68.5478V22.7771H68.4752V22.7036H68.3971V22.5509H68.3245V22.4774H68.252V22.3247H68.1738V22.2512H68.1012V22.0985H68.0287V22.025H67.9505V21.8724H67.878V21.7988H67.8054V21.6462H67.7273V21.5726H67.6547V21.42H67.5821V21.3465H67.504V21.2729H67.4314V21.1203H67.3589V21.0468H67.2807V20.9732H67.2082V20.8206H67.1356V20.747H67.0574V20.6735H66.9849V20.5209H66.9123V20.4473H66.8342V20.2947H66.7616V20.2212H66.689V20.1476H66.6109V19.995H66.5383V19.9214H66.4658V19.8479H66.3876V19.7744H66.3151V19.7009H66.2425V19.5482H66.1644V19.4747H66.0918V19.4012H66.0192V19.3277H65.9411V19.2542H65.8685V19.1015H65.796V19.028H65.7178V18.9545H65.6452V18.881H65.5727V18.8075H65.4945V18.6548H65.422V18.5813H65.3494V18.5077H65.2713V18.4342H65.1987V18.3607H65.1261V18.2872H65.048V18.2137H64.9754V18.1402H64.9029V17.9875H64.8247V17.914H64.7521V17.8405H64.6796V17.767H64.6014V17.6935H64.5289V17.6199H64.4563V17.5464H64.3782V17.4729H64.3056V17.3994H64.233V17.3259H64.1549V17.2524H64.0823V17.1789H64.0098V17.1054H63.9316V17.0318H63.8591V16.9583H63.7865V16.8848H63.7083V16.8113H63.6358V16.7378H63.5632V16.6643H63.4851V16.5908H63.4125V16.5173H63.3399V16.4437H63.2618V16.3702H63.1892V16.2967H63.1167V16.2232H63.0385V16.1497H62.8934V16.0762H62.8153V16.0027H62.7427V15.9292H62.6701V15.8556H62.592V15.7821H62.5194V15.7086H62.4469V15.6351H62.3687V15.5616H62.2961V15.4881H62.2236V15.4146H62.1454V15.3411H62.0003V15.2676H61.9222V15.194H61.8496V15.1205H61.777V15.047H61.6263V14.9735H61.5538V14.9H61.4756V14.8265H61.403V14.753H61.2523V14.6795H61.1798V14.6059H61.1072V14.5324H61.0291V14.4589H60.8839V14.3854H60.8058V14.3119H60.7332V14.2384H60.6607V14.1649H60.5825V14.0914H60.4374V14.0178H60.3592V13.9443H60.2867V13.8708H60.136V13.7973H60.0634V13.7238H59.9127V13.6503H59.8401V13.5768H59.7676V13.5033H59.6169V13.4297H59.5443V13.3562H59.3936V13.2827H59.321V13.2092H59.1703V13.1357H59.0978V13.0622H59.0196V12.9887H58.8745V12.9152H58.7963V12.8416H58.6512V12.7681H58.5731V12.6946H58.4279V12.6211H58.3498V12.5476H58.2047V12.4741H58.0539V12.4006H57.9814V12.3271H57.8307V12.2535H57.68V12.18H57.6074V12.1065H57.4567V12.033H57.3841V11.9595H57.2334V11.886H57.0883V11.8125H57.0101V11.739H56.865V11.6654H56.7143V11.5919H56.5636V11.5184H56.4185V11.4449H56.3403V11.3714H56.1952V11.2979H56.0445V11.2244H55.8938V11.1509H55.7487V11.0773H55.5979V11.0038H55.4472V10.9303H55.3021V10.8568H55.1514V10.7833H55.0788V10.7098H54.9281V10.6363H54.7774V10.5628H54.5541V10.4892H54.409V10.4157H54.2583V10.3422H54.1076V10.2687H53.8843V10.1952H53.7392V10.1217H53.5885V10.0482H53.4378V9.97466H53.2926V9.90115H53.0694V9.82764H52.9187V9.75412H52.6954V9.68061H52.5447V9.6071H52.3214V9.53359H52.0981V9.46007H51.953V9.38656H51.7297V9.31305H51.5065V9.23954H51.3557V9.16602H51.1325V9.09251H50.9092V9.019H50.6859V8.94549H50.4627V8.87197H50.2394V8.79846H49.9435V8.72495H49.7203V8.65144H49.497V8.57793H49.2737V8.50441H48.9723V8.4309H48.6765V8.35739H48.3806V8.28388H48.0792V8.21036H47.7834V8.13685H47.4094V8.06334H47.1136V7.98983H46.8177V7.91631H46.3712V7.8428H45.9246V7.76929H45.4781V7.69578H45.0315V7.62226H44.585V7.54875H43.837V7.47524H43.0946V7.40173H42.2741V7.32821H38.3333V7.40173H37.3621V7.47524H36.6197V7.54875H36.0225V7.62226H35.4308V7.69578H34.9842V7.76929H34.5377V7.8428H34.1637V7.91631H33.7172V7.98983H33.3432V8.06334H33.0473V8.13685H32.7515V8.21036H32.3775V8.28388H32.0817V8.35739H31.7803V8.4309H31.557V8.50441H31.2611V8.57793H31.0379V8.65144H30.742V8.72495H30.5188V8.79846H30.2955V8.87197H30.0722V8.94549H29.8489V9.019H29.6257V9.09251H29.4024V9.16602H29.1791V9.23954H28.9559V9.31305H28.7326V9.38656H28.5819V9.46007H28.3586V9.53359H28.2079V9.6071H27.9846V9.68061H27.7613V9.75412H27.6162V9.82764H27.3929V9.90115H27.2422V9.97466H27.0915V10.0482H26.9464V10.1217H26.7231V10.1952H26.5724V10.2687H26.4217V10.3422H26.2766V10.4157H26.1259V10.4892H25.9026V10.5628H25.7519V10.6363H25.6068V10.7098H25.456V10.7833H25.3053V10.8568H25.2328V10.9303H25.0821V11.0038H24.9369V11.0773H24.7862V11.1509H24.6355V11.2244H24.4904V11.2979H24.3397V11.3714H24.189V11.4449H24.1164V11.5184H23.9657V11.5919H23.8206V11.6654H23.6699V11.739H23.5973V11.8125H23.4466V11.886H23.2959V11.9595H23.1507V12.033H23.0726V12.1065H22.9275V12.18H22.7768V12.2535H22.7042V12.3271H22.5535V12.4006H22.4809V12.4741H22.3302V12.5476H22.2577V12.6211H22.1069V12.6946H22.0344V12.7681H21.8837V12.8416H21.733V12.9152H21.6604V12.9887H21.5878V13.0622H21.4371V13.1357H21.3646V13.2092H21.2139V13.2827H21.1413V13.3562H20.9906V13.4297H20.918V13.5033H20.8399V13.5768H20.6947V13.6503H20.6166V13.7238H20.4715V13.7973H20.3933V13.8708H20.3208V13.9443H20.17V14.0178H20.0975V14.0914H20.0249V14.1649H19.9468V14.2384H19.8016V14.3119H19.7235V14.3854H19.6509V14.4589H19.5784V14.5324H19.4277V14.6059H19.3551V14.6795H19.277V14.753H19.1318V14.8265H19.0537V14.9H18.9811V14.9735H18.9086V15.047H18.8304V15.1205H18.7578V15.194H18.6071V15.2676H18.5346V15.3411H18.462V15.4146H18.3839V15.4881H18.3113V15.5616H18.2387V15.6351H18.1606V15.7086H18.0155V15.7821H17.9373V15.8556H17.8647V15.9292H17.7922V16.0027H17.714V16.0762H17.6415V16.1497H17.5689V16.2232H17.4908V16.2967H17.4182V16.3702H17.3456V16.4437H17.2675V16.5173H17.1949V16.5908H17.1224V16.6643H17.0442V16.7378H16.9717V16.8113H16.8209V16.8848H16.7484V16.9583H16.6758V17.0318H16.5977V17.1054H16.5251V17.258H16.4525V17.3316H16.3744V17.4051H16.3018V17.4786H16.2293V17.5521H16.1511V17.6256H16.0786V17.6991H16.006V17.7726H15.9279V17.8461H15.8553V17.9197H15.7827V17.9932H15.7046V18.0667H15.632V18.1402H15.5595V18.2137H15.4813V18.2872H15.4087V18.4399H15.3362V18.5134H15.258V18.5869H15.1855V18.6604H15.1129V18.7339H15.0348V18.8075H14.9622V18.9601H14.8896V19.0336H14.8115V19.1072H14.7389V19.1807H14.6664V19.2542H14.5882V19.3277H14.5156V19.4804H14.4431V19.5539H14.3649V19.6274H14.2924V19.7009H14.2198V19.8536H14.1417V19.9271H14.0691V20.0006H13.9965V20.1533H13.9184V20.2268H13.8458V20.3003H13.7733V20.3738H13.6951V20.5265H13.6226V20.6H13.55V20.6735H13.4718V20.8262H13.3993V20.8997H13.3267V20.9732H13.2486V21.1259H13.176V21.1994H13.1034V21.3521H13.0253V21.4256H12.9527V21.4991H12.8802V21.6518H12.802V21.7253H12.7295V21.878H12.6569V21.9515H12.5788V22.1042H12.5062V22.1777H12.4336V22.3304H12.3555V22.4039H12.2829V22.5566H12.2104V22.7093H12.1322V22.7828H12.0596V22.9355H11.9871V23.009H11.9089V23.1616H11.8364V23.2352H11.7638V23.3878H11.6857V23.5405H11.6131V23.614H11.5405V23.7667H11.4624V23.9194H11.3898V24.0721H11.3173V24.1456H11.2391V24.2983H11.1665V24.4509H11.094V24.6036H11.0158V24.6771H10.9433V24.8298H10.8707V24.9825H10.7926V25.1352H10.72V25.2879H10.6474V25.4405H10.5693V25.5932H10.4967V25.7459H10.4242V25.8986H10.346V26.0513H10.2735V26.2039H10.2009V26.3566H10.1227V26.5093H10.0502V26.662H9.97762V26.8882H9.89947V27.0408H9.82691V27.1935H9.75435V27.3462H9.6762V27.4989H9.60364V27.7251H9.53107V27.8778H9.45293V28.1039H9.38036V28.2566H9.3078V28.4828H9.22965V28.6355H9.15709V28.8617H9.08453V29.0144H9.00638V29.2406H8.93382V29.4667H8.86125V29.6929H8.78311V29.9191H8.71054V30.1453H8.63798V30.3715H8.55983V30.5977H8.48727V30.8239H8.41471V31.0501H8.33656V31.2763H8.264V31.576H8.19143V31.8757H8.11329V32.1019H8.04072V32.4016H7.96816V32.7013H7.89001V33.001H7.81745V33.3007H7.74489V33.6796H7.66674V33.9793H7.59418V34.3581H7.52161V34.8105H7.44347V35.1894H7.3709V35.6418H7.29834V36.1677H7.22019V36.7727H7.14763V37.3778H7.07507V38.3561H6.99692V39.6397H6.92436V42.0543H6.99692V43.2588H7.07507V44.2371H7.14763V44.8421H7.22019V45.4472H7.29834V45.9731H7.3709V46.4255H7.44347V46.8779H7.52161V47.2567H7.59418V47.7091H7.66674V48.0088H7.74489V48.3085H7.81745V48.6082H7.89001V48.9871H7.96816V49.2868H8.04072V49.513H8.11329V49.8127H8.19143V50.1124H8.264V50.3386H8.33656V50.6383H8.41471V50.8645H8.48727V51.0907H8.55983V51.3169H8.63798V51.5431H8.71054V51.7693H8.78311V51.9955H8.86125V52.2217H8.93382V52.4478H9.00638V52.6005H9.08453V52.8267H9.15709V52.9794H9.22965V53.2056H9.3078V53.3583H9.38036V53.5845H9.45293V53.7371H9.53107V53.9633H9.60364V54.116H9.6762V54.2687H9.75435V54.4214H9.82691V54.6476H9.89947V54.8002H9.97762V54.9529H10.0502V55.1056H10.1227V55.2583H10.2009V55.4845H10.2735V55.6371H10.346V55.7898H10.4242V55.9425H10.4967V56.016H10.5693V56.1687H10.6474V56.3214H10.72V56.4741H10.7926V56.6267H10.8707V56.7794H10.9433V56.9321H11.0158V57.0848H11.094V57.2375H11.1665V57.311H11.2391V57.4637H11.3173V57.6163H11.3898V57.769H11.4624V57.8425H11.5405V57.9952H11.6131V58.1479H11.6857V58.3006H11.7638V58.3741H11.8364V58.5268H11.9089V58.6003H11.9871V58.7529H12.0596V58.8265H12.1322V58.9791H12.2104V59.1318H12.2829V59.2053H12.3555V59.358H12.4336V59.4315H12.5062V59.5842H12.5788V59.6577H12.6569V59.8104H12.7295V59.8839H12.802V60.0366H12.8802V60.1101H12.9527V60.1836H13.0253V60.3363H13.1034V60.4098H13.176V60.5625H13.2486V60.636H13.3267V60.7095H13.3993V60.8622H13.4718V60.9357H13.55V61.0884H13.6226V61.1619H13.6951V61.2354H13.7733V61.3089H13.8458V61.4616H13.9184V61.5351H13.9965V61.6086H14.0691V61.7613H14.1417V61.8348H14.2198V61.9083H14.2924V61.9818H14.3649V62.1345H14.4431V62.208H14.5156V62.2815H14.5882V62.3551H14.6664V62.5077H14.7389V62.5812H14.8115V62.6548H14.8896V62.7283H14.9622V62.8018H15.0348V62.8753H15.1129V62.9488H15.1855V63.1015H15.258V63.175H15.3362V63.2485H15.4087V63.322H15.4813V63.3955H15.5595V63.469H15.632V63.5426H15.7046V63.6161H15.7827V63.7688H15.8553V63.8423H15.9279V63.9158H16.006V63.9893H16.0786V64.0628H16.1511V64.1363H16.2293V64.2098H16.3018V64.2833H16.3744V64.3569H16.4525V64.4304H16.5251V64.5039H16.5977V64.5774H16.6758V64.6509H16.7484V64.7244H16.8209V64.7979H16.8991V64.8714H16.9717V64.9449H17.0442V65.0185H17.1224V65.092H17.1949V65.1655H17.2675V65.239H17.3456V65.3125H17.4182V65.386H17.4908V65.4595H17.5689V65.533H17.6415V65.6066H17.7922V65.6801H17.8647V65.7536H17.9373V65.8271H18.0155V65.9006H18.088V65.9741H18.1606V66.0476H18.2387V66.1211H18.3113V66.1947H18.462V66.2682H18.5346V66.3417H18.6071V66.4152H18.6853V66.4887H18.7578V66.5622H18.8304V66.6357H18.9086V66.7092H19.0537V66.7828H19.1318V66.8563H19.2044V66.9298H19.277V67.0033H19.4277V67.0768H19.5002V67.1503H19.5784V67.2238H19.6509V67.2973H19.8016V67.3709H19.8742V67.4444H19.9468V67.5179H20.0975V67.5914H20.17V67.6649H20.2482V67.7384H20.3208V67.8119H20.4715V67.8854H20.544V67.959H20.6947V68.0325H20.7673V68.106H20.8399V68.1795H20.9906V68.253H21.0631V68.3265H21.2139V68.4H21.2864V68.4735H21.3646V68.5471H21.5097V68.6206H21.5878V68.6941H21.733V68.7676H21.8111V68.8411H21.9562V68.9146H22.0344V68.9881H22.1795V69.0616H22.2577V69.1352H22.4028V69.2087H22.5535V69.2822H22.6261V69.3557H22.7768V69.4292H22.8493V69.5027H23V69.5762H23.0726V69.6497H23.2233V69.7233H23.374V69.7968H23.5191V69.8703H23.5973V69.9438H23.7424V70.0173H23.8931V70.0908H24.0438V70.1643H24.1164V70.2378H24.2671V70.3114H24.4122V70.3849H24.5629V70.4584H24.7137V70.5319H24.8588V70.6054H25.0095V70.6789H25.1602V70.7524H25.3053V70.8259H25.3835V70.8995H25.5286V70.973H25.6793V71.0465H25.83V71.12H25.9752V71.1935H26.1984V71.267H26.3491V71.3405H26.4998V71.414H26.645V71.4875H26.8682V71.5611H27.019V71.6346H27.1697V71.7081H27.3148V71.7816H27.5381V71.8551H27.6888V71.9286H27.912V72.0021H28.0628V72.0756H28.286V72.1492H28.4312V72.2227H28.6544V72.2962H28.8051V72.3697H29.0284V72.4432H29.2517V72.5167H29.475V72.5902H29.6982V72.6637H29.9215V72.7373H30.1448V72.8108H30.3681V72.8843H30.5913V72.9578H30.8872V73.0313H31.1104V73.1048H31.4119V73.1783H31.6351V73.2518H31.931V73.3254H32.2268V73.3989H32.5282V73.4724H32.8966V73.5459H33.198V73.6194H33.4939V73.6929H33.9404V73.7664H34.3144V73.8399H34.761V73.9135H35.1294V73.987H35.7266V74.0605H36.3239V74.134H36.9155V74.2075H37.8086V74.281H39.0757V74.3545H41.4592V74.281H42.7206V74.2075H43.4686V74.134H44.211V74.0605H44.8083V73.987H45.2548V73.9135H45.7014V73.8399H46.1479V73.7664H46.5944V73.6929H46.9628V73.6194H47.2643V73.5459H47.6327V73.4724H47.9341V73.3989H48.2299V73.3254H48.5258V73.2518H48.8997V73.1783H49.123V73.1048H49.3463V73.0313H49.5696V72.9578H49.8654V72.8843H50.0887V72.8108H50.3119V72.7373H50.6134V72.6637H50.8366V72.5902H51.0599V72.5167H51.205V72.4432H51.4283V72.3697H51.6516V72.2962H51.8023V72.2227H52.0256V72.1492H52.2488V72.0756H52.3996V72.0021H52.6228V71.9286H52.8461V71.8551H52.9912V71.7816H53.1419V71.7081H53.3652V71.6346H53.5159V71.5611H53.661V71.4875H53.8118V71.414H54.035V71.3405H54.1857V71.267H54.3309V71.1935H54.4816V71.12H54.6323V71.0465H54.8556V70.973H55.0007V70.8995H55.1514V70.8259H55.224V70.7524H55.3747V70.6789H55.5254V70.6054H55.6705V70.5319H55.8212V70.4584H55.9719V70.3849H56.1171V70.3114H56.2678V70.2378H56.4185V70.1643H56.491V70.0908H56.6417V70.0173H56.7869V69.9438H56.9376V69.8703H57.0101V69.7968H57.1609V69.7233H57.3116V69.6497H57.3841V69.5762H57.5348V69.5027H57.68V69.4292H57.7581V69.3557H57.9032V69.2822H57.9814V69.2087H58.1265V69.1352H58.2772V69.0616H58.3498V68.9881H58.5005V68.9146H58.6512V68.8411H58.7238V68.7676H58.7963V68.6941H58.947V68.6206H59.0196V68.5471H59.1703V68.4735H59.2429V68.4H59.3936V68.3265H59.4662V68.253H59.5443V68.1795H59.6894V68.106H59.7676V68.0325H59.9127V67.959H59.9908V67.8854H60.136V67.8119H60.2141V67.7384H60.2867V67.6649H60.4374V67.5914H60.51V67.5179H60.5825V67.4444H60.6607V67.3709H60.8058V67.2973H60.8839V67.2238H60.9565V67.1503H61.0291V67.0768H61.1798V67.0033H61.2523V66.9298H61.3305V66.8563H61.403V66.7828H61.5538V66.7092H61.6263V66.6357H61.6989V66.5622H61.777V66.4887H61.9222V66.4152H62.0003V66.3417H62.0729V66.2682H62.1454V66.1947H62.2236V66.1211H62.2961V66.0476H62.3687V65.9741H62.4469V65.9006H62.592V65.8271H62.6701V65.7536H62.7427V65.6801H62.8153V65.6066H62.8934V65.533H62.966V65.4595H63.0385V65.386H63.1167V65.3125H63.1892V65.239H63.2618V65.1655H63.3399V65.092H63.4851V65.0185H63.5632V64.9449H63.6358V64.8714H63.7083V64.7979H63.7865V64.7244H63.8591V64.6509H63.9316V64.5774H64.0098V64.5039H64.0823V64.3512H64.1549V64.2777H64.233V64.2042H64.3056V64.1307H64.3782V64.0571H64.4563V63.9836H64.5289V63.9101H64.6014V63.8366H64.6796V63.7631H64.7521V63.6896H64.8247V63.6161H64.9029V63.5426H64.9754V63.469H65.048V63.3955H65.1261V63.322H65.1987V63.2485H65.2713V63.0958H65.3494V63.0223H65.422V62.9488H65.4945V62.8753H65.5727V62.8018H65.6452V62.6491H65.7178V62.5756H65.796V62.5021H65.8685V62.4286H65.9411V62.3551H66.0192V62.2815H66.0918V62.1289H66.1644V62.0554H66.2425V61.9818H66.3151V61.9083H66.3876V61.8348H66.4658V61.6821H66.5383V61.6086H66.6109V61.5351H66.689V61.3824H66.7616V61.3089H66.8342V61.2354H66.9123V61.0827H66.9849V61.0092H67.0574V60.9357H67.1356V60.783H67.2082V60.7095H67.2807V60.636H67.3589V60.4833H67.4314V60.4098H67.504V60.2571H67.5821V60.1836H67.6547V60.1101H67.7273V59.9574H67.8054V59.8839H67.878V59.7312H67.9505V59.6577H68.0287V59.505H68.1012V59.4315H68.1738V59.2788H68.252V59.2053H68.3245V59.0527H68.3971V58.9791H68.4752V58.8265H68.5478V58.7529H68.6204V58.6003H68.6985V58.5268H68.7711V58.3741H68.8436V58.2214H68.9218V58.1479H68.9943V57.9952H69.0669V57.8425H69.1451V57.769H69.2176V57.6955H69.2902V57.622H69.4409V57.5485H69.5916V57.475H69.7367V57.4015H69.8874V57.3279H70.708V57.4015H71.0038V57.475H71.0764V57.5485H71.2271V57.622H71.2996V57.6955H71.3778V57.769H71.4503V57.8425H71.5229V57.916H71.6011V58.1422H71.6736V58.2949H71.7462V58.5211H71.8243V59.1997H71.7462V59.4259H71.6736V59.5785H71.6011V59.7312H71.5229V59.8839H71.4503V59.9574H71.3778V60.1101H71.2996V60.2628H71.2271V60.3363H71.1545V60.489H71.0764V60.5625H71.0038V60.7152H70.9312V60.7887H70.8531V60.9414H70.7805V61.0149H70.708V61.1675H70.6298V61.2411H70.5573V61.3937H70.4847V61.5464H70.4065V61.6199H70.334V61.6934H70.2614V61.8461H70.1833V61.9196H70.1107V62.0723H70.0381V62.1458H69.96V62.2193H69.8874V62.372H69.8149V62.4455H69.7367V62.519H69.6642V62.6717H69.5916V62.7452H69.5135V62.8187H69.4409V62.9714H69.3683V63.0449H69.2902V63.1976H69.2176V63.2711H69.1451V63.3446H69.0669V63.4973H68.9943V63.5708H68.9218V63.6443H68.8436V63.7179H68.7711V63.8705H68.6985V63.944H68.6204V64.0176H68.5478V64.0911H68.4752V64.1646H68.3971V64.3173H68.3245V64.3908H68.252V64.4643H68.1738V64.5378H68.1012V64.6113H68.0287V64.6848H67.9505V64.8375H67.878V64.911H67.8054V64.9845H67.7273V65.058H67.6547V65.1316H67.5821V65.2842H67.504V65.3577H67.4314V65.4313H67.3589V65.5048H67.2807V65.5783H67.2082V65.6518H67.1356V65.7253H67.0574V65.7988H66.9849V65.8723H66.9123V65.9459H66.8342V66.0194H66.7616V66.0929H66.689V66.1664H66.6109V66.2399H66.5383V66.3134H66.4658V66.4661H66.3876V66.5396H66.3151V66.6131H66.2425V66.6866H66.1644V66.7601H66.0918V66.8337H66.0192V66.9072H65.9411V66.9807H65.8685V67.0542H65.796V67.1277H65.7178V67.2012H65.6452V67.2747H65.5727V67.3482H65.4945V67.4218H65.3494V67.4953H65.2713V67.5688H65.1987V67.6423H65.1261V67.7158H65.048V67.7893H64.9754V67.8628H64.9029V67.9363H64.8247V68.0098H64.7521V68.0834H64.6796V68.1569H64.6014V68.2304H64.4563V68.3039H64.3782V68.3774H64.3056V68.4509H64.233V68.5244H64.1549V68.598H64.0823V68.6715H64.0098V68.745H63.9316V68.8185H63.7865V68.892H63.7083V68.9655H63.6358V69.039H63.5632V69.1125H63.4125V69.186H63.3399V69.2596H63.2618V69.3331H63.1892V69.4066H63.0385V69.4801H62.966V69.5536H62.8934V69.6271H62.8153V69.7006H62.6701V69.7741H62.592V69.8477H62.5194V69.9212H62.4469V69.9947H62.2961V70.0682H62.2236V70.1417H62.1454V70.2152H62.0003V70.2887H61.9222V70.3622H61.8496V70.4358H61.6989V70.5093H61.6263V70.5828H61.4756V70.6563H61.403V70.7298H61.2523V70.8033H61.1798V70.8768H61.1072V70.9503H60.9565V71.0239H60.8839V71.0974H60.7332V71.1709H60.6607V71.2444H60.5825V71.3179H60.4374V71.3914H60.3592V71.4649H60.2141V71.5384H60.0634V71.612H59.9908V71.6855H59.8401V71.759H59.7676V71.8325H59.6169V71.906H59.4662V71.9795H59.3936V72.053H59.2429V72.1265H59.0978V72.2001H59.0196V72.2736H58.8745V72.3471H58.7963V72.4206H58.6512V72.4941H58.5005V72.5676H58.4279V72.6411H58.2772V72.7146H58.1265V72.7882H57.9814V72.8617H57.8307V72.9352H57.68V73.0087H57.5348V73.0822H57.4567V73.1557H57.3116V73.2292H57.1609V73.3027H57.0101V73.3763H56.865V73.4498H56.7143V73.5233H56.5636V73.5968H56.4185V73.6703H56.2678V73.7438H56.1171V73.8173H55.9719V73.8908H55.8212V73.9644H55.6705V74.0379H55.4472V74.1114H55.3021V74.1849H55.1514V74.2584H55.0007V74.3319H54.8556V74.4054H54.6323V74.4789H54.4816V74.5525H54.3309V74.626H54.1857V74.6995H53.9625V74.773H53.7392V74.8465H53.5885V74.92H53.3652V74.9935H53.1419V75.067H52.9912V75.1405H52.768V75.2141H52.5447V75.2876H52.3996V75.3611H52.1763V75.4346H51.953V75.5081H51.7297V75.5816H51.5065V75.6551H51.2832V75.7287H50.9818V75.8022H50.7585V75.8757H50.5352V75.9492H50.3119V76.0227H50.0161V76.0962H49.7928V76.1697H49.497V76.2432H49.1956V76.3167H48.8997V76.3903H48.5258V76.4638H48.2299V76.5373H47.9341V76.6108H47.6327V76.6843H47.2643V76.7578H46.8177V76.8313H46.3712V76.9048H45.9246V76.9783H45.4781V77.0519H44.9534V77.1254H44.211V77.1989H43.4686V77.2724H42.7206V77.3459H41.0852V77.4194" fill="url(#paint3_linear_34566_15112)"/>
<defs>
<linearGradient id="paint0_linear_34566_15112" x1="26.5" y1="25.5" x2="44.7105" y2="54.2851" gradientUnits="userSpaceOnUse">
<stop stop-color="#0F00FF"/>
<stop offset="1" stop-color="white"/>
</linearGradient>
<linearGradient id="paint1_linear_34566_15112" x1="31.7243" y1="8.62467" x2="43.2671" y2="26.512" gradientUnits="userSpaceOnUse">
<stop stop-color="#0F00FF"/>
<stop offset="1" stop-color="white"/>
</linearGradient>
<linearGradient id="paint2_linear_34566_15112" x1="54.1935" y1="16.7742" x2="64.1615" y2="60.0488" gradientUnits="userSpaceOnUse">
<stop stop-color="#0F00FF"/>
<stop offset="1" stop-color="white"/>
</linearGradient>
<linearGradient id="paint3_linear_34566_15112" x1="20.064" y1="9.15471" x2="60.2611" y2="69.8955" gradientUnits="userSpaceOnUse">
<stop stop-color="#FFCF00"/>
<stop offset="1" stop-color="#FAAD19"/>
</linearGradient>
</defs>
</svg>
