<svg width="1256" height="456" viewBox="0 0 1256 456" fill="none" xmlns="http://www.w3.org/2000/svg">
<g filter="url(#filter0_d_34701_40648)">
<path d="M12 16C12 11.5817 15.5817 8 20 8H1236C1240.42 8 1244 11.5817 1244 16V432C1244 436.418 1240.42 440 1236 440H20C15.5817 440 12 436.418 12 432V16Z" fill="#242177"/>
</g>
<mask id="path-2-inside-1_34701_40648" fill="white">
<path d="M58 340H1215V364H58V340Z"/>
</mask>
<path d="M58 340V340.4H1215V340V339.6H58V340Z" fill="#BDCBFF" mask="url(#path-2-inside-1_34701_40648)"/>
<path d="M165.291 353.493C165.238 353.022 165.019 352.658 164.635 352.399C164.25 352.137 163.766 352.006 163.183 352.006C162.765 352.006 162.404 352.073 162.099 352.205C161.794 352.335 161.557 352.513 161.388 352.742C161.223 352.968 161.14 353.224 161.14 353.513C161.14 353.755 161.196 353.964 161.309 354.139C161.425 354.315 161.576 354.462 161.761 354.582C161.95 354.698 162.152 354.795 162.368 354.875C162.583 354.951 162.79 355.014 162.989 355.064L163.983 355.322C164.308 355.402 164.641 355.51 164.983 355.646C165.324 355.781 165.641 355.96 165.932 356.183C166.224 356.405 166.459 356.68 166.638 357.008C166.821 357.336 166.912 357.729 166.912 358.186C166.912 358.763 166.763 359.275 166.464 359.722C166.169 360.17 165.74 360.523 165.177 360.781C164.617 361.04 163.939 361.169 163.143 361.169C162.381 361.169 161.721 361.048 161.165 360.806C160.608 360.564 160.172 360.221 159.857 359.777C159.542 359.33 159.368 358.799 159.335 358.186H160.876C160.906 358.554 161.025 358.861 161.234 359.106C161.446 359.348 161.716 359.528 162.045 359.648C162.376 359.764 162.739 359.822 163.133 359.822C163.568 359.822 163.954 359.754 164.292 359.618C164.633 359.479 164.902 359.286 165.097 359.041C165.293 358.793 165.39 358.503 165.39 358.171C165.39 357.87 165.304 357.623 165.132 357.43C164.963 357.238 164.733 357.079 164.441 356.953C164.153 356.827 163.826 356.716 163.461 356.62L162.258 356.292C161.443 356.07 160.797 355.743 160.319 355.312C159.845 354.882 159.608 354.312 159.608 353.602C159.608 353.016 159.768 352.504 160.086 352.066C160.404 351.629 160.835 351.289 161.378 351.047C161.922 350.802 162.535 350.679 163.218 350.679C163.907 350.679 164.515 350.8 165.042 351.042C165.573 351.284 165.99 351.617 166.295 352.041C166.6 352.462 166.759 352.946 166.773 353.493H165.291ZM168.245 352.141V350.818H173.386V352.141H168.245ZM168.245 361V359.678H173.386V361H168.245ZM171.586 350.818V361H170.045V350.818H171.586Z" fill="white"/>
<path d="M474.311 350.818V361H472.77V352.891H472.685C472.632 352.991 472.51 353.098 472.317 353.214C472.128 353.33 471.885 353.432 471.586 353.518C471.291 353.604 470.95 353.647 470.562 353.647V352.384C470.937 352.384 471.263 352.318 471.542 352.185C471.823 352.053 472.062 351.894 472.258 351.708C472.453 351.519 472.602 351.342 472.705 351.176C472.808 351.007 472.866 350.888 472.879 350.818H474.311ZM476.415 350.818H478.16L480.82 355.447H480.929L483.589 350.818H485.334L481.64 357.003V361H480.109V357.003L476.415 350.818Z" fill="white"/>
<path d="M783.143 361V359.886L786.589 356.317C786.957 355.929 787.26 355.589 787.499 355.298C787.741 355.003 787.921 354.723 788.04 354.457C788.16 354.192 788.219 353.911 788.219 353.612C788.219 353.274 788.14 352.982 787.981 352.737C787.822 352.489 787.605 352.298 787.33 352.165C787.054 352.03 786.745 351.962 786.4 351.962C786.035 351.962 785.717 352.036 785.445 352.185C785.174 352.335 784.965 352.545 784.819 352.817C784.673 353.089 784.6 353.407 784.6 353.771H783.134C783.134 353.152 783.276 352.61 783.561 352.146C783.846 351.682 784.237 351.322 784.734 351.067C785.232 350.808 785.797 350.679 786.43 350.679C787.069 350.679 787.633 350.807 788.12 351.062C788.611 351.314 788.993 351.658 789.268 352.096C789.544 352.53 789.681 353.021 789.681 353.567C789.681 353.945 789.61 354.315 789.467 354.676C789.328 355.037 789.085 355.44 788.737 355.884C788.388 356.325 787.905 356.86 787.285 357.49L785.261 359.608V359.683H789.845V361H783.143ZM791.083 350.818H792.828L795.488 355.447H795.597L798.257 350.818H800.002L796.308 357.003V361H794.777V357.003L791.083 350.818Z" fill="white"/>
<path d="M1097.32 358.345H1098.88C1098.91 358.66 1099.02 358.929 1099.2 359.151C1099.39 359.369 1099.63 359.535 1099.93 359.648C1100.23 359.76 1100.56 359.817 1100.92 359.817C1101.31 359.817 1101.66 359.75 1101.97 359.618C1102.28 359.485 1102.53 359.29 1102.71 359.031C1102.89 358.773 1102.97 358.455 1102.97 358.077C1102.97 357.739 1102.89 357.427 1102.73 357.142C1102.57 356.857 1102.31 356.628 1101.97 356.456C1101.62 356.284 1101.16 356.197 1100.6 356.197H1099.69V355.034L1102.14 352.21V352.136H1097.82V350.818H1104.15V351.932L1101.42 355.054V355.134C1101.89 355.163 1102.32 355.261 1102.7 355.427C1103.09 355.593 1103.41 355.811 1103.69 356.083C1103.96 356.352 1104.17 356.66 1104.31 357.008C1104.46 357.356 1104.53 357.729 1104.53 358.126C1104.53 358.713 1104.38 359.233 1104.06 359.688C1103.75 360.142 1103.32 360.498 1102.78 360.756C1102.23 361.012 1101.61 361.139 1100.91 361.139C1100.25 361.139 1099.66 361.027 1099.13 360.801C1098.6 360.576 1098.18 360.254 1097.85 359.837C1097.53 359.419 1097.36 358.922 1097.32 358.345ZM1105.75 350.818H1107.49L1110.15 355.447H1110.26L1112.92 350.818H1114.67L1110.97 357.003V361H1109.44V357.003L1105.75 350.818Z" fill="white"/>
<path d="M26.0263 46.9403C26.0263 46.3106 26.1638 45.7505 26.4389 45.2599C26.7173 44.7694 27.0968 44.3833 27.5774 44.1016C28.0613 43.8198 28.6115 43.679 29.228 43.679C29.8511 43.679 30.4046 43.8248 30.8885 44.1165C31.3724 44.4048 31.7519 44.8026 32.027 45.3097C32.3021 45.8134 32.4363 46.3902 32.4297 47.0398C32.4231 47.358 32.375 47.6877 32.2855 48.0291C32.196 48.3705 32.0452 48.75 31.8331 49.1676C31.621 49.5852 31.3293 50.0691 30.9581 50.6193L28.6712 54H27.3189L30.0036 50.0824C29.8842 50.1222 29.7599 50.1553 29.6307 50.1818C29.5047 50.2083 29.3771 50.2216 29.2479 50.2216C28.6314 50.2216 28.0795 50.0791 27.5923 49.794C27.1084 49.509 26.7256 49.1196 26.4439 48.6257C26.1655 48.1319 26.0263 47.5701 26.0263 46.9403ZM27.1996 46.9403C27.1996 47.3712 27.2857 47.7507 27.4581 48.0788C27.6304 48.407 27.8691 48.6638 28.174 48.8494C28.4789 49.035 28.8303 49.1278 29.228 49.1278C29.6257 49.1278 29.977 49.0367 30.282 48.8544C30.5869 48.6688 30.8255 48.4136 30.9979 48.0888C31.1702 47.7607 31.2564 47.3845 31.2564 46.9602C31.2564 46.5294 31.1702 46.1482 30.9979 45.8168C30.8255 45.4853 30.5869 45.2251 30.282 45.0362C29.977 44.8473 29.6257 44.7528 29.228 44.7528C28.8303 44.7528 28.4789 44.8473 28.174 45.0362C27.8691 45.2218 27.6304 45.4803 27.4581 45.8118C27.2857 46.1399 27.1996 46.5161 27.1996 46.9403ZM37.625 54.1392C36.8759 54.1392 36.2379 53.9354 35.7109 53.5277C35.1839 53.1167 34.7813 52.5218 34.5028 51.7429C34.2244 50.9607 34.0852 50.0161 34.0852 48.9091C34.0852 47.8087 34.2244 46.8691 34.5028 46.0902C34.7846 45.308 35.1889 44.7114 35.7159 44.3004C36.2462 43.8861 36.8826 43.679 37.625 43.679C38.3674 43.679 39.0021 43.8861 39.5291 44.3004C40.0594 44.7114 40.4638 45.308 40.7422 46.0902C41.0239 46.8691 41.1648 47.8087 41.1648 48.9091C41.1648 50.0161 41.0256 50.9607 40.7472 51.7429C40.4688 52.5218 40.0661 53.1167 39.5391 53.5277C39.0121 53.9354 38.3741 54.1392 37.625 54.1392ZM37.625 53.0455C38.3674 53.0455 38.9441 52.6875 39.3551 51.9716C39.7661 51.2557 39.9716 50.2348 39.9716 48.9091C39.9716 48.0275 39.8771 47.2768 39.6882 46.657C39.5026 46.0372 39.2341 45.5649 38.8828 45.2401C38.5348 44.9152 38.1155 44.7528 37.625 44.7528C36.8892 44.7528 36.3142 45.1158 35.8999 45.8416C35.4856 46.5642 35.2784 47.5866 35.2784 48.9091C35.2784 49.7907 35.3712 50.5398 35.5568 51.1562C35.7424 51.7727 36.0092 52.2417 36.3572 52.5632C36.7086 52.8847 37.1312 53.0455 37.625 53.0455Z" fill="white"/>
<path d="M28.9384 86.1392C28.2556 86.1392 27.6524 86.0182 27.1287 85.7763C26.6084 85.531 26.2024 85.1946 25.9107 84.767C25.619 84.3362 25.4748 83.8456 25.4782 83.2955C25.4748 82.8646 25.5594 82.4669 25.7317 82.1023C25.9041 81.7344 26.1394 81.4278 26.4377 81.1825C26.7393 80.9339 27.0757 80.7765 27.4469 80.7102V80.6506C26.9597 80.5246 26.5719 80.2512 26.2836 79.8303C25.9952 79.406 25.8527 78.9238 25.856 78.3835C25.8527 77.8665 25.9836 77.4041 26.2488 76.9964C26.5139 76.5888 26.8785 76.2673 27.3425 76.032C27.8098 75.7966 28.3418 75.679 28.9384 75.679C29.5284 75.679 30.0553 75.7966 30.5194 76.032C30.9834 76.2673 31.348 76.5888 31.6131 76.9964C31.8816 77.4041 32.0175 77.8665 32.0208 78.3835C32.0175 78.9238 31.87 79.406 31.5783 79.8303C31.29 80.2512 30.9071 80.5246 30.4299 80.6506V80.7102C30.7978 80.7765 31.1292 80.9339 31.4242 81.1825C31.7192 81.4278 31.9545 81.7344 32.1301 82.1023C32.3058 82.4669 32.3953 82.8646 32.3986 83.2955C32.3953 83.8456 32.2462 84.3362 31.9512 84.767C31.6595 85.1946 31.2535 85.531 30.7331 85.7763C30.2161 86.0182 29.6178 86.1392 28.9384 86.1392ZM28.9384 85.0455C29.3991 85.0455 29.7968 84.9709 30.1316 84.8217C30.4663 84.6726 30.7248 84.4621 30.9071 84.1903C31.0894 83.9186 31.1822 83.6004 31.1855 83.2358C31.1822 82.8513 31.0828 82.5116 30.8873 82.2166C30.6917 81.9216 30.4249 81.6896 30.0868 81.5206C29.7521 81.3516 29.3693 81.267 28.9384 81.267C28.5042 81.267 28.1164 81.3516 27.775 81.5206C27.437 81.6896 27.1702 81.9216 26.9746 82.2166C26.7824 82.5116 26.6879 82.8513 26.6912 83.2358C26.6879 83.6004 26.7757 83.9186 26.9547 84.1903C27.137 84.4621 27.3972 84.6726 27.7353 84.8217C28.0733 84.9709 28.4744 85.0455 28.9384 85.0455ZM28.9384 80.2131C29.303 80.2131 29.6261 80.1402 29.9078 79.9943C30.1929 79.8485 30.4166 79.6446 30.579 79.3828C30.7414 79.121 30.8243 78.8144 30.8276 78.4631C30.8243 78.1184 30.7431 77.8184 30.584 77.5632C30.4249 77.3047 30.2045 77.1058 29.9228 76.9666C29.641 76.8241 29.3129 76.7528 28.9384 76.7528C28.5572 76.7528 28.2241 76.8241 27.9391 76.9666C27.6541 77.1058 27.4337 77.3047 27.2779 77.5632C27.1221 77.8184 27.0459 78.1184 27.0492 78.4631C27.0459 78.8144 27.1238 79.121 27.2828 79.3828C27.4453 79.6446 27.669 79.8485 27.954 79.9943C28.2391 80.1402 28.5672 80.2131 28.9384 80.2131ZM37.625 86.1392C36.8759 86.1392 36.2379 85.9354 35.7109 85.5277C35.1839 85.1167 34.7813 84.5218 34.5028 83.7429C34.2244 82.9607 34.0852 82.0161 34.0852 80.9091C34.0852 79.8087 34.2244 78.8691 34.5028 78.0902C34.7846 77.308 35.1889 76.7114 35.7159 76.3004C36.2462 75.8861 36.8826 75.679 37.625 75.679C38.3674 75.679 39.0021 75.8861 39.5291 76.3004C40.0594 76.7114 40.4638 77.308 40.7422 78.0902C41.0239 78.8691 41.1648 79.8087 41.1648 80.9091C41.1648 82.0161 41.0256 82.9607 40.7472 83.7429C40.4688 84.5218 40.0661 85.1167 39.5391 85.5277C39.0121 85.9354 38.3741 86.1392 37.625 86.1392ZM37.625 85.0455C38.3674 85.0455 38.9441 84.6875 39.3551 83.9716C39.7661 83.2557 39.9716 82.2348 39.9716 80.9091C39.9716 80.0275 39.8771 79.2768 39.6882 78.657C39.5026 78.0372 39.2341 77.5649 38.8828 77.2401C38.5348 76.9152 38.1155 76.7528 37.625 76.7528C36.8892 76.7528 36.3142 77.1158 35.8999 77.8416C35.4856 78.5642 35.2784 79.5866 35.2784 80.9091C35.2784 81.7907 35.3712 82.5398 35.5568 83.1562C35.7424 83.7727 36.0092 84.2417 36.3572 84.5632C36.7086 84.8847 37.1312 85.0455 37.625 85.0455Z" fill="white"/>
<path d="M26.8429 118L31.3968 108.991V108.912H26.1468V107.818H32.6696V108.972L28.1355 118H26.8429ZM37.625 118.139C36.8759 118.139 36.2379 117.935 35.7109 117.528C35.1839 117.117 34.7813 116.522 34.5028 115.743C34.2244 114.961 34.0852 114.016 34.0852 112.909C34.0852 111.809 34.2244 110.869 34.5028 110.09C34.7846 109.308 35.1889 108.711 35.7159 108.3C36.2462 107.886 36.8826 107.679 37.625 107.679C38.3674 107.679 39.0021 107.886 39.5291 108.3C40.0594 108.711 40.4638 109.308 40.7422 110.09C41.0239 110.869 41.1648 111.809 41.1648 112.909C41.1648 114.016 41.0256 114.961 40.7472 115.743C40.4688 116.522 40.0661 117.117 39.5391 117.528C39.0121 117.935 38.3741 118.139 37.625 118.139ZM37.625 117.045C38.3674 117.045 38.9441 116.687 39.3551 115.972C39.7661 115.256 39.9716 114.235 39.9716 112.909C39.9716 112.027 39.8771 111.277 39.6882 110.657C39.5026 110.037 39.2341 109.565 38.8828 109.24C38.5348 108.915 38.1155 108.753 37.625 108.753C36.8892 108.753 36.3142 109.116 35.8999 109.842C35.4856 110.564 35.2784 111.587 35.2784 112.909C35.2784 113.791 35.3712 114.54 35.5568 115.156C35.7424 115.773 36.0092 116.242 36.3572 116.563C36.7086 116.885 37.1312 117.045 37.625 117.045Z" fill="white"/>
<path d="M26.0263 146.778C26.0329 146.46 26.081 146.13 26.1705 145.789C26.2599 145.448 26.4107 145.068 26.6229 144.651C26.835 144.233 27.1267 143.749 27.4979 143.199L29.7848 139.818H31.1371L28.4524 143.736C28.5717 143.696 28.6944 143.663 28.8203 143.636C28.9496 143.61 29.0788 143.597 29.2081 143.597C29.8246 143.597 30.3748 143.739 30.8587 144.024C31.3459 144.309 31.7287 144.699 32.0071 145.192C32.2888 145.686 32.4297 146.248 32.4297 146.878C32.4297 147.508 32.2905 148.068 32.0121 148.558C31.737 149.049 31.3575 149.435 30.8736 149.717C30.393 149.998 29.8445 150.139 29.228 150.139C28.6049 150.139 28.0514 149.995 27.5675 149.707C27.0836 149.415 26.7041 149.017 26.429 148.513C26.1539 148.006 26.0196 147.428 26.0263 146.778ZM27.1996 146.858C27.1996 147.289 27.2857 147.67 27.4581 148.001C27.6304 148.333 27.8691 148.593 28.174 148.782C28.4789 148.971 28.8303 149.065 29.228 149.065C29.6257 149.065 29.977 148.973 30.282 148.787C30.5869 148.598 30.8255 148.339 30.9979 148.011C31.1702 147.68 31.2564 147.302 31.2564 146.878C31.2564 146.447 31.1702 146.067 30.9979 145.739C30.8255 145.411 30.5869 145.154 30.282 144.969C29.977 144.783 29.6257 144.69 29.228 144.69C28.8303 144.69 28.4789 144.783 28.174 144.969C27.8691 145.151 27.6304 145.406 27.4581 145.734C27.2857 146.059 27.1996 146.434 27.1996 146.858ZM37.625 150.139C36.8759 150.139 36.2379 149.935 35.7109 149.528C35.1839 149.117 34.7813 148.522 34.5028 147.743C34.2244 146.961 34.0852 146.016 34.0852 144.909C34.0852 143.809 34.2244 142.869 34.5028 142.09C34.7846 141.308 35.1889 140.711 35.7159 140.3C36.2462 139.886 36.8826 139.679 37.625 139.679C38.3674 139.679 39.0021 139.886 39.5291 140.3C40.0594 140.711 40.4638 141.308 40.7422 142.09C41.0239 142.869 41.1648 143.809 41.1648 144.909C41.1648 146.016 41.0256 146.961 40.7472 147.743C40.4688 148.522 40.0661 149.117 39.5391 149.528C39.0121 149.935 38.3741 150.139 37.625 150.139ZM37.625 149.045C38.3674 149.045 38.9441 148.687 39.3551 147.972C39.7661 147.256 39.9716 146.235 39.9716 144.909C39.9716 144.027 39.8771 143.277 39.6882 142.657C39.5026 142.037 39.2341 141.565 38.8828 141.24C38.5348 140.915 38.1155 140.753 37.625 140.753C36.8892 140.753 36.3142 141.116 35.8999 141.842C35.4856 142.564 35.2784 143.587 35.2784 144.909C35.2784 145.791 35.3712 146.54 35.5568 147.156C35.7424 147.773 36.0092 148.242 36.3572 148.563C36.7086 148.885 37.1312 149.045 37.625 149.045Z" fill="white"/>
<path d="M28.9682 182.139C28.3849 182.139 27.8596 182.023 27.3922 181.791C26.9249 181.559 26.5504 181.241 26.2686 180.837C25.9869 180.432 25.8328 179.972 25.8063 179.455H26.9995C27.0459 179.915 27.2547 180.296 27.6259 180.598C28.0004 180.896 28.4479 181.045 28.9682 181.045C29.3858 181.045 29.757 180.948 30.0819 180.752C30.41 180.557 30.6668 180.288 30.8525 179.947C31.0414 179.602 31.1358 179.213 31.1358 178.778C31.1358 178.334 31.0381 177.938 30.8425 177.59C30.6503 177.239 30.3851 176.962 30.0471 176.76C29.709 176.558 29.3229 176.455 28.8887 176.452C28.5771 176.448 28.2573 176.496 27.9292 176.596C27.601 176.692 27.3309 176.816 27.1188 176.969L25.9654 176.83L26.5819 171.818H31.8716V172.912H27.6159L27.258 175.915H27.3176C27.5265 175.749 27.7883 175.612 28.1032 175.502C28.418 175.393 28.7462 175.338 29.0875 175.338C29.7106 175.338 30.2658 175.487 30.753 175.786C31.2435 176.08 31.628 176.485 31.9064 176.999C32.1882 177.512 32.329 178.099 32.329 178.759C32.329 179.408 32.1832 179.988 31.8915 180.499C31.6032 181.006 31.2054 181.407 30.6983 181.702C30.1912 181.993 29.6145 182.139 28.9682 182.139ZM37.625 182.139C36.8759 182.139 36.2379 181.935 35.7109 181.528C35.1839 181.117 34.7813 180.522 34.5028 179.743C34.2244 178.961 34.0852 178.016 34.0852 176.909C34.0852 175.809 34.2244 174.869 34.5028 174.09C34.7846 173.308 35.1889 172.711 35.7159 172.3C36.2462 171.886 36.8826 171.679 37.625 171.679C38.3674 171.679 39.0021 171.886 39.5291 172.3C40.0594 172.711 40.4638 173.308 40.7422 174.09C41.0239 174.869 41.1648 175.809 41.1648 176.909C41.1648 178.016 41.0256 178.961 40.7472 179.743C40.4688 180.522 40.0661 181.117 39.5391 181.528C39.0121 181.935 38.3741 182.139 37.625 182.139ZM37.625 181.045C38.3674 181.045 38.9441 180.687 39.3551 179.972C39.7661 179.256 39.9716 178.235 39.9716 176.909C39.9716 176.027 39.8771 175.277 39.6882 174.657C39.5026 174.037 39.2341 173.565 38.8828 173.24C38.5348 172.915 38.1155 172.753 37.625 172.753C36.8892 172.753 36.3142 173.116 35.8999 173.842C35.4856 174.564 35.2784 175.587 35.2784 176.909C35.2784 177.791 35.3712 178.54 35.5568 179.156C35.7424 179.773 36.0092 180.242 36.3572 180.563C36.7086 180.885 37.1312 181.045 37.625 181.045Z" fill="white"/>
<path d="M25.0829 211.912V210.898L29.1596 203.818H30.3727L26.3954 210.739V210.818H32.4409V211.912H25.0829ZM29.8755 214V211.614V211.131V207.636H31.0488V214H29.8755ZM37.625 214.139C36.8759 214.139 36.2379 213.935 35.7109 213.528C35.1839 213.117 34.7813 212.522 34.5028 211.743C34.2244 210.961 34.0852 210.016 34.0852 208.909C34.0852 207.809 34.2244 206.869 34.5028 206.09C34.7846 205.308 35.1889 204.711 35.7159 204.3C36.2462 203.886 36.8826 203.679 37.625 203.679C38.3674 203.679 39.0021 203.886 39.5291 204.3C40.0594 204.711 40.4638 205.308 40.7422 206.09C41.0239 206.869 41.1648 207.809 41.1648 208.909C41.1648 210.016 41.0256 210.961 40.7472 211.743C40.4688 212.522 40.0661 213.117 39.5391 213.528C39.0121 213.935 38.3741 214.139 37.625 214.139ZM37.625 213.045C38.3674 213.045 38.9441 212.687 39.3551 211.972C39.7661 211.256 39.9716 210.235 39.9716 208.909C39.9716 208.027 39.8771 207.277 39.6882 206.657C39.5026 206.037 39.2341 205.565 38.8828 205.24C38.5348 204.915 38.1155 204.753 37.625 204.753C36.8892 204.753 36.3142 205.116 35.8999 205.842C35.4856 206.564 35.2784 207.587 35.2784 208.909C35.2784 209.791 35.3712 210.54 35.5568 211.156C35.7424 211.773 36.0092 212.242 36.3572 212.563C36.7086 212.885 37.1312 213.045 37.625 213.045Z" fill="white"/>
<path d="M25.3539 243.455H26.6067C26.6432 243.799 26.7608 244.091 26.9597 244.33C27.1619 244.565 27.4237 244.744 27.7452 244.866C28.0667 244.986 28.423 245.045 28.8141 245.045C29.2383 245.045 29.6195 244.974 29.9576 244.832C30.2956 244.689 30.5641 244.477 30.763 244.195C30.9618 243.91 31.0613 243.557 31.0613 243.136C31.0613 242.768 30.9751 242.427 30.8027 242.112C30.6304 241.794 30.3536 241.537 29.9725 241.342C29.5913 241.146 29.0859 241.048 28.4561 241.048H27.6408V240.054L30.1863 236.991V236.912H25.851V235.818H31.8766V236.713L29.1522 240.014V240.094C29.5897 240.114 29.9973 240.203 30.3752 240.362C30.7563 240.521 31.0878 240.737 31.3695 241.009C31.6545 241.28 31.8766 241.597 32.0357 241.958C32.1948 242.319 32.2743 242.712 32.2743 243.136C32.2743 243.716 32.1252 244.233 31.8269 244.688C31.5319 245.138 31.1226 245.493 30.5989 245.751C30.0785 246.01 29.477 246.139 28.7942 246.139C28.191 246.139 27.6358 246.033 27.1287 245.821C26.6216 245.609 26.209 245.302 25.8908 244.901C25.5726 244.5 25.3936 244.018 25.3539 243.455ZM37.625 246.139C36.8759 246.139 36.2379 245.935 35.7109 245.528C35.1839 245.117 34.7813 244.522 34.5028 243.743C34.2244 242.961 34.0852 242.016 34.0852 240.909C34.0852 239.809 34.2244 238.869 34.5028 238.09C34.7846 237.308 35.1889 236.711 35.7159 236.3C36.2462 235.886 36.8826 235.679 37.625 235.679C38.3674 235.679 39.0021 235.886 39.5291 236.3C40.0594 236.711 40.4638 237.308 40.7422 238.09C41.0239 238.869 41.1648 239.809 41.1648 240.909C41.1648 242.016 41.0256 242.961 40.7472 243.743C40.4688 244.522 40.0661 245.117 39.5391 245.528C39.0121 245.935 38.3741 246.139 37.625 246.139ZM37.625 245.045C38.3674 245.045 38.9441 244.687 39.3551 243.972C39.7661 243.256 39.9716 242.235 39.9716 240.909C39.9716 240.027 39.8771 239.277 39.6882 238.657C39.5026 238.037 39.2341 237.565 38.8828 237.24C38.5348 236.915 38.1155 236.753 37.625 236.753C36.8892 236.753 36.3142 237.116 35.8999 237.842C35.4856 238.564 35.2784 239.587 35.2784 240.909C35.2784 241.791 35.3712 242.54 35.5568 243.156C35.7424 243.773 36.0092 244.242 36.3572 244.563C36.7086 244.885 37.1312 245.045 37.625 245.045Z" fill="white"/>
<path d="M25.8274 278V277.105L29.1882 273.426C29.5826 272.995 29.9074 272.621 30.1626 272.303C30.4179 271.981 30.6068 271.679 30.7294 271.398C30.8554 271.113 30.9183 270.814 30.9183 270.503C30.9183 270.145 30.8321 269.835 30.6598 269.573C30.4908 269.311 30.2588 269.109 29.9638 268.967C29.6688 268.824 29.3374 268.753 28.9695 268.753C28.5784 268.753 28.237 268.834 27.9453 268.996C27.657 269.156 27.4332 269.379 27.2741 269.668C27.1184 269.956 27.0405 270.294 27.0405 270.682H25.8672C25.8672 270.085 26.0047 269.562 26.2798 269.111C26.5549 268.66 26.9295 268.309 27.4034 268.057C27.8807 267.805 28.416 267.679 29.0092 267.679C29.6058 267.679 30.1345 267.805 30.5952 268.057C31.0559 268.309 31.4171 268.648 31.679 269.076C31.9408 269.504 32.0717 269.979 32.0717 270.503C32.0717 270.877 32.0038 271.244 31.8679 271.602C31.7353 271.956 31.5033 272.352 31.1719 272.79C30.8438 273.224 30.388 273.754 29.8047 274.381L27.5178 276.827V276.906H32.2507V278H25.8274ZM37.625 278.139C36.8759 278.139 36.2379 277.935 35.7109 277.528C35.1839 277.117 34.7813 276.522 34.5028 275.743C34.2244 274.961 34.0852 274.016 34.0852 272.909C34.0852 271.809 34.2244 270.869 34.5028 270.09C34.7846 269.308 35.1889 268.711 35.7159 268.3C36.2462 267.886 36.8826 267.679 37.625 267.679C38.3674 267.679 39.0021 267.886 39.5291 268.3C40.0594 268.711 40.4638 269.308 40.7422 270.09C41.0239 270.869 41.1648 271.809 41.1648 272.909C41.1648 274.016 41.0256 274.961 40.7472 275.743C40.4688 276.522 40.0661 277.117 39.5391 277.528C39.0121 277.935 38.3741 278.139 37.625 278.139ZM37.625 277.045C38.3674 277.045 38.9441 276.687 39.3551 275.972C39.7661 275.256 39.9716 274.235 39.9716 272.909C39.9716 272.027 39.8771 271.277 39.6882 270.657C39.5026 270.037 39.2341 269.565 38.8828 269.24C38.5348 268.915 38.1155 268.753 37.625 268.753C36.8892 268.753 36.3142 269.116 35.8999 269.842C35.4856 270.564 35.2784 271.587 35.2784 272.909C35.2784 273.791 35.3712 274.54 35.5568 275.156C35.7424 275.773 36.0092 276.242 36.3572 276.563C36.7086 276.885 37.1312 277.045 37.625 277.045Z" fill="white"/>
<path d="M31.3857 299.818V310H30.1527V301.608H30.0732C30.0268 301.701 29.9074 301.807 29.7152 301.926C29.523 302.042 29.2744 302.145 28.9695 302.234C28.6645 302.321 28.3165 302.364 27.9254 302.364V301.33C28.3198 301.33 28.6612 301.258 28.9496 301.116C29.2379 300.973 29.4782 300.806 29.6705 300.614C29.866 300.421 30.0135 300.247 30.1129 300.092C30.2157 299.936 30.2753 299.845 30.2919 299.818H31.3857ZM37.625 310.139C36.8759 310.139 36.2379 309.935 35.7109 309.528C35.1839 309.117 34.7813 308.522 34.5028 307.743C34.2244 306.961 34.0852 306.016 34.0852 304.909C34.0852 303.809 34.2244 302.869 34.5028 302.09C34.7846 301.308 35.1889 300.711 35.7159 300.3C36.2462 299.886 36.8826 299.679 37.625 299.679C38.3674 299.679 39.0021 299.886 39.5291 300.3C40.0594 300.711 40.4638 301.308 40.7422 302.09C41.0239 302.869 41.1648 303.809 41.1648 304.909C41.1648 306.016 41.0256 306.961 40.7472 307.743C40.4688 308.522 40.0661 309.117 39.5391 309.528C39.0121 309.935 38.3741 310.139 37.625 310.139ZM37.625 309.045C38.3674 309.045 38.9441 308.687 39.3551 307.972C39.7661 307.256 39.9716 306.235 39.9716 304.909C39.9716 304.027 39.8771 303.277 39.6882 302.657C39.5026 302.037 39.2341 301.565 38.8828 301.24C38.5348 300.915 38.1155 300.753 37.625 300.753C36.8892 300.753 36.3142 301.116 35.8999 301.842C35.4856 302.564 35.2784 303.587 35.2784 304.909C35.2784 305.791 35.3712 306.54 35.5568 307.156C35.7424 307.773 36.0092 308.242 36.3572 308.563C36.7086 308.885 37.1312 309.045 37.625 309.045Z" fill="white"/>
<path d="M37.625 342.139C36.8759 342.139 36.2379 341.935 35.7109 341.528C35.1839 341.117 34.7813 340.522 34.5028 339.743C34.2244 338.961 34.0852 338.016 34.0852 336.909C34.0852 335.809 34.2244 334.869 34.5028 334.09C34.7846 333.308 35.1889 332.711 35.7159 332.3C36.2462 331.886 36.8826 331.679 37.625 331.679C38.3674 331.679 39.0021 331.886 39.5291 332.3C40.0594 332.711 40.4638 333.308 40.7422 334.09C41.0239 334.869 41.1648 335.809 41.1648 336.909C41.1648 338.016 41.0256 338.961 40.7472 339.743C40.4688 340.522 40.0661 341.117 39.5391 341.528C39.0121 341.935 38.3741 342.139 37.625 342.139ZM37.625 341.045C38.3674 341.045 38.9441 340.687 39.3551 339.972C39.7661 339.256 39.9716 338.235 39.9716 336.909C39.9716 336.027 39.8771 335.277 39.6882 334.657C39.5026 334.037 39.2341 333.565 38.8828 333.24C38.5348 332.915 38.1155 332.753 37.625 332.753C36.8892 332.753 36.3142 333.116 35.8999 333.842C35.4856 334.564 35.2784 335.587 35.2784 336.909C35.2784 337.791 35.3712 338.54 35.5568 339.156C35.7424 339.773 36.0092 340.242 36.3572 340.563C36.7086 340.885 37.1312 341.045 37.625 341.045Z" fill="white"/>
<circle cx="4" cy="4" r="4" transform="matrix(1 0 0 -1 398 414)" fill="#7986FD"/>
<path d="M415.233 404.818H416.705L420.165 413.27H420.284L423.744 404.818H425.216V415H424.062V407.264H423.963L420.781 415H419.668L416.486 407.264H416.386V415H415.233V404.818ZM430.631 415.159C429.942 415.159 429.337 414.995 428.817 414.667C428.3 414.339 427.895 413.88 427.604 413.29C427.315 412.7 427.171 412.01 427.171 411.222C427.171 410.426 427.315 409.732 427.604 409.138C427.895 408.545 428.3 408.085 428.817 407.756C429.337 407.428 429.942 407.264 430.631 407.264C431.321 407.264 431.924 407.428 432.441 407.756C432.961 408.085 433.366 408.545 433.654 409.138C433.946 409.732 434.091 410.426 434.091 411.222C434.091 412.01 433.946 412.7 433.654 413.29C433.366 413.88 432.961 414.339 432.441 414.667C431.924 414.995 431.321 415.159 430.631 415.159ZM430.631 414.105C431.155 414.105 431.586 413.971 431.924 413.702C432.262 413.434 432.512 413.081 432.675 412.643C432.837 412.206 432.918 411.732 432.918 411.222C432.918 410.711 432.837 410.236 432.675 409.795C432.512 409.354 432.262 408.998 431.924 408.726C431.586 408.454 431.155 408.318 430.631 408.318C430.108 408.318 429.677 408.454 429.339 408.726C429.001 408.998 428.75 409.354 428.588 409.795C428.425 410.236 428.344 410.711 428.344 411.222C428.344 411.732 428.425 412.206 428.588 412.643C428.75 413.081 429.001 413.434 429.339 413.702C429.677 413.971 430.108 414.105 430.631 414.105ZM439.203 407.364V408.358H435.246V407.364H439.203ZM436.4 405.534H437.573V412.812C437.573 413.144 437.621 413.393 437.717 413.558C437.816 413.721 437.942 413.83 438.095 413.886C438.251 413.939 438.415 413.966 438.587 413.966C438.716 413.966 438.822 413.959 438.905 413.946C438.988 413.929 439.054 413.916 439.104 413.906L439.343 414.96C439.263 414.99 439.152 415.02 439.01 415.05C438.867 415.083 438.686 415.099 438.468 415.099C438.136 415.099 437.811 415.028 437.493 414.886C437.178 414.743 436.917 414.526 436.708 414.234C436.502 413.943 436.4 413.575 436.4 413.131V405.534ZM440.968 415V407.364H442.142V415H440.968ZM441.565 406.091C441.336 406.091 441.139 406.013 440.973 405.857C440.811 405.701 440.73 405.514 440.73 405.295C440.73 405.077 440.811 404.889 440.973 404.734C441.139 404.578 441.336 404.5 441.565 404.5C441.794 404.5 441.989 404.578 442.152 404.734C442.317 404.889 442.4 405.077 442.4 405.295C442.4 405.514 442.317 405.701 442.152 405.857C441.989 406.013 441.794 406.091 441.565 406.091ZM444.291 404.818H445.464V413.011C445.464 413.383 445.505 413.643 445.588 413.792C445.671 413.941 445.842 414.012 446.1 414.006C446.24 413.999 446.342 413.989 446.409 413.976C446.478 413.959 446.541 413.943 446.597 413.926L446.836 414.94C446.733 414.97 446.604 414.997 446.448 415.02C446.293 415.046 446.13 415.06 445.961 415.06C445.404 415.06 444.987 414.907 444.708 414.602C444.43 414.297 444.291 413.873 444.291 413.33V404.818ZM450.797 415.159C450.161 415.159 449.599 414.998 449.112 414.677C448.625 414.352 448.243 413.895 447.968 413.305C447.693 412.711 447.556 412.01 447.556 411.202C447.556 410.4 447.693 409.704 447.968 409.114C448.243 408.524 448.626 408.068 449.117 407.746C449.607 407.425 450.174 407.264 450.817 407.264C451.314 407.264 451.707 407.347 451.995 407.513C452.287 407.675 452.509 407.861 452.662 408.07C452.817 408.275 452.938 408.444 453.025 408.577H453.124V407.364H454.297V415H453.164V413.827H453.025C452.938 413.966 452.816 414.142 452.657 414.354C452.498 414.562 452.27 414.75 451.975 414.915C451.681 415.078 451.288 415.159 450.797 415.159ZM450.956 414.105C451.427 414.105 451.825 413.982 452.15 413.737C452.474 413.489 452.721 413.146 452.89 412.708C453.059 412.267 453.144 411.759 453.144 411.182C453.144 410.612 453.061 410.113 452.895 409.685C452.73 409.254 452.484 408.92 452.159 408.681C451.835 408.439 451.434 408.318 450.956 408.318C450.459 408.318 450.045 408.446 449.713 408.701C449.385 408.953 449.138 409.296 448.973 409.73C448.81 410.161 448.729 410.645 448.729 411.182C448.729 411.725 448.812 412.219 448.978 412.663C449.147 413.104 449.395 413.455 449.723 413.717C450.055 413.976 450.466 414.105 450.956 414.105ZM456.609 404.818H457.782V413.011C457.782 413.383 457.824 413.643 457.907 413.792C457.989 413.941 458.16 414.012 458.419 414.006C458.558 413.999 458.661 413.989 458.727 413.976C458.797 413.959 458.859 413.943 458.916 413.926L459.154 414.94C459.052 414.97 458.922 414.997 458.767 415.02C458.611 415.046 458.449 415.06 458.279 415.06C457.723 415.06 457.305 414.907 457.027 414.602C456.748 414.297 456.609 413.873 456.609 413.33V404.818ZM472.92 409.909C472.92 410.983 472.726 411.911 472.338 412.693C471.95 413.475 471.418 414.079 470.742 414.503C470.066 414.927 469.294 415.139 468.425 415.139C467.557 415.139 466.785 414.927 466.108 414.503C465.432 414.079 464.9 413.475 464.513 412.693C464.125 411.911 463.931 410.983 463.931 409.909C463.931 408.835 464.125 407.907 464.513 407.125C464.9 406.343 465.432 405.74 466.108 405.315C466.785 404.891 467.557 404.679 468.425 404.679C469.294 404.679 470.066 404.891 470.742 405.315C471.418 405.74 471.95 406.343 472.338 407.125C472.726 407.907 472.92 408.835 472.92 409.909ZM471.726 409.909C471.726 409.027 471.579 408.283 471.284 407.677C470.992 407.07 470.596 406.611 470.096 406.3C469.599 405.988 469.042 405.832 468.425 405.832C467.809 405.832 467.25 405.988 466.75 406.3C466.253 406.611 465.857 407.07 465.562 407.677C465.27 408.283 465.124 409.027 465.124 409.909C465.124 410.791 465.27 411.535 465.562 412.141C465.857 412.748 466.253 413.207 466.75 413.518C467.25 413.83 467.809 413.986 468.425 413.986C469.042 413.986 469.599 413.83 470.096 413.518C470.596 413.207 470.992 412.748 471.284 412.141C471.579 411.535 471.726 410.791 471.726 409.909ZM480.243 409.074L479.189 409.372C479.122 409.196 479.025 409.026 478.895 408.86C478.769 408.691 478.597 408.552 478.378 408.442C478.16 408.333 477.88 408.278 477.538 408.278C477.071 408.278 476.681 408.386 476.37 408.602C476.062 408.814 475.907 409.084 475.907 409.412C475.907 409.704 476.014 409.934 476.226 410.103C476.438 410.272 476.769 410.413 477.22 410.526L478.354 410.804C479.036 410.97 479.545 411.223 479.88 411.565C480.215 411.903 480.382 412.339 480.382 412.872C480.382 413.31 480.256 413.701 480.004 414.045C479.756 414.39 479.407 414.662 478.96 414.861C478.513 415.06 477.992 415.159 477.399 415.159C476.62 415.159 475.975 414.99 475.465 414.652C474.955 414.314 474.631 413.82 474.496 413.17L475.609 412.892C475.715 413.303 475.916 413.611 476.211 413.817C476.509 414.022 476.898 414.125 477.379 414.125C477.926 414.125 478.36 414.009 478.682 413.777C479.006 413.542 479.169 413.26 479.169 412.932C479.169 412.667 479.076 412.445 478.89 412.266C478.705 412.083 478.42 411.947 478.035 411.858L476.763 411.56C476.063 411.394 475.55 411.137 475.221 410.789C474.897 410.438 474.734 409.999 474.734 409.472C474.734 409.041 474.855 408.66 475.097 408.328C475.342 407.997 475.675 407.737 476.096 407.548C476.521 407.359 477.001 407.264 477.538 407.264C478.294 407.264 478.887 407.43 479.318 407.761C479.752 408.093 480.06 408.53 480.243 409.074ZM483.878 415L481.551 407.364H482.784L484.435 413.21H484.515L486.145 407.364H487.398L489.009 413.19H489.088L490.739 407.364H491.972L489.645 415H488.492L486.821 409.134H486.702L485.032 415H483.878ZM496.147 415.159C495.51 415.159 494.949 414.998 494.461 414.677C493.974 414.352 493.593 413.895 493.318 413.305C493.043 412.711 492.905 412.01 492.905 411.202C492.905 410.4 493.043 409.704 493.318 409.114C493.593 408.524 493.976 408.068 494.466 407.746C494.957 407.425 495.524 407.264 496.167 407.264C496.664 407.264 497.057 407.347 497.345 407.513C497.637 407.675 497.859 407.861 498.011 408.07C498.167 408.275 498.288 408.444 498.374 408.577H498.474V407.364H499.647V415H498.513V413.827H498.374C498.288 413.966 498.165 414.142 498.006 414.354C497.847 414.562 497.62 414.75 497.325 414.915C497.03 415.078 496.637 415.159 496.147 415.159ZM496.306 414.105C496.777 414.105 497.174 413.982 497.499 413.737C497.824 413.489 498.071 413.146 498.24 412.708C498.409 412.267 498.493 411.759 498.493 411.182C498.493 410.612 498.411 410.113 498.245 409.685C498.079 409.254 497.834 408.92 497.509 408.681C497.184 408.439 496.783 408.318 496.306 408.318C495.809 408.318 495.394 408.446 495.063 408.701C494.735 408.953 494.488 409.296 494.322 409.73C494.16 410.161 494.079 410.645 494.079 411.182C494.079 411.725 494.162 412.219 494.327 412.663C494.496 413.104 494.745 413.455 495.073 413.717C495.404 413.976 495.815 414.105 496.306 414.105ZM501.959 404.818H503.132V413.011C503.132 413.383 503.173 413.643 503.256 413.792C503.339 413.941 503.51 414.012 503.768 414.006C503.907 413.999 504.01 413.989 504.077 413.976C504.146 413.959 504.209 413.943 504.265 413.926L504.504 414.94C504.401 414.97 504.272 414.997 504.116 415.02C503.961 415.046 503.798 415.06 503.629 415.06C503.072 415.06 502.655 414.907 502.376 414.602C502.098 414.297 501.959 413.873 501.959 413.33V404.818ZM517.752 404.818V415H516.559L511.011 407.006H510.911V415H509.678V404.818H510.871L516.44 412.832H516.539V404.818H517.752ZM523.262 415.159C522.526 415.159 521.891 414.997 521.358 414.672C520.827 414.344 520.418 413.886 520.13 413.3C519.845 412.71 519.702 412.024 519.702 411.241C519.702 410.459 519.845 409.77 520.13 409.173C520.418 408.573 520.819 408.106 521.333 407.771C521.85 407.433 522.453 407.264 523.143 407.264C523.54 407.264 523.933 407.33 524.321 407.463C524.709 407.596 525.062 407.811 525.38 408.109C525.698 408.404 525.952 408.795 526.14 409.283C526.329 409.77 526.424 410.37 526.424 411.082V411.58H520.537V410.565H525.231C525.231 410.134 525.144 409.75 524.972 409.412C524.803 409.074 524.561 408.807 524.246 408.612C523.935 408.416 523.567 408.318 523.143 408.318C522.675 408.318 522.271 408.434 521.93 408.666C521.591 408.895 521.331 409.193 521.149 409.561C520.967 409.929 520.876 410.323 520.876 410.744V411.42C520.876 411.997 520.975 412.486 521.174 412.887C521.376 413.285 521.656 413.588 522.014 413.797C522.372 414.002 522.788 414.105 523.262 414.105C523.57 414.105 523.849 414.062 524.097 413.976C524.349 413.886 524.566 413.754 524.748 413.578C524.931 413.399 525.072 413.177 525.171 412.912L526.305 413.23C526.185 413.615 525.985 413.953 525.703 414.244C525.421 414.533 525.073 414.758 524.659 414.92C524.245 415.08 523.779 415.159 523.262 415.159ZM528.879 407.364L530.708 410.486L532.538 407.364H533.89L531.424 411.182L533.89 415H532.538L530.708 412.037L528.879 415H527.526L529.952 411.182L527.526 407.364H528.879ZM538.885 407.364V408.358H534.928V407.364H538.885ZM536.081 405.534H537.254V412.812C537.254 413.144 537.302 413.393 537.399 413.558C537.498 413.721 537.624 413.83 537.776 413.886C537.932 413.939 538.096 413.966 538.269 413.966C538.398 413.966 538.504 413.959 538.587 413.946C538.67 413.929 538.736 413.916 538.786 413.906L539.024 414.96C538.945 414.99 538.834 415.02 538.691 415.05C538.549 415.083 538.368 415.099 538.149 415.099C537.818 415.099 537.493 415.028 537.175 414.886C536.86 414.743 536.598 414.526 536.389 414.234C536.184 413.943 536.081 413.575 536.081 413.131V405.534ZM544.19 405.912V404.818H551.826V405.912H548.624V415H547.392V405.912H544.19ZM552.777 415V407.364H553.911V408.517H553.99C554.126 408.139 554.376 407.833 554.741 407.597C555.105 407.362 555.518 407.244 555.979 407.244C556.191 407.244 556.376 407.269 556.536 407.319C556.695 407.369 556.834 407.437 556.953 407.523L556.555 408.517C556.473 408.474 556.375 408.441 556.262 408.418C556.153 408.391 556.025 408.378 555.879 408.378C555.508 408.378 555.177 408.456 554.885 408.612C554.597 408.767 554.368 408.979 554.199 409.248C554.033 409.516 553.95 409.823 553.95 410.168V415H552.777ZM558.15 415V407.364H559.323V415H558.15ZM558.747 406.091C558.518 406.091 558.321 406.013 558.155 405.857C557.993 405.701 557.911 405.514 557.911 405.295C557.911 405.077 557.993 404.889 558.155 404.734C558.321 404.578 558.518 404.5 558.747 404.5C558.975 404.5 559.171 404.578 559.333 404.734C559.499 404.889 559.582 405.077 559.582 405.295C559.582 405.514 559.499 405.701 559.333 405.857C559.171 406.013 558.975 406.091 558.747 406.091ZM561.472 404.818H562.646V413.011C562.646 413.383 562.687 413.643 562.77 413.792C562.853 413.941 563.023 414.012 563.282 414.006C563.421 413.999 563.524 413.989 563.59 413.976C563.66 413.959 563.723 413.943 563.779 413.926L564.018 414.94C563.915 414.97 563.786 414.997 563.63 415.02C563.474 415.046 563.312 415.06 563.143 415.06C562.586 415.06 562.168 414.907 561.89 414.602C561.612 414.297 561.472 413.873 561.472 413.33V404.818ZM565.3 404.818H566.474V413.011C566.474 413.383 566.515 413.643 566.598 413.792C566.681 413.941 566.852 414.012 567.11 414.006C567.249 413.999 567.352 413.989 567.418 413.976C567.488 413.959 567.551 413.943 567.607 413.926L567.846 414.94C567.743 414.97 567.614 414.997 567.458 415.02C567.302 415.046 567.14 415.06 566.971 415.06C566.414 415.06 565.996 414.907 565.718 414.602C565.44 414.297 565.3 413.873 565.3 413.33V404.818ZM568.923 415V407.364H570.097V415H568.923ZM569.52 406.091C569.291 406.091 569.094 406.013 568.928 405.857C568.766 405.701 568.685 405.514 568.685 405.295C568.685 405.077 568.766 404.889 568.928 404.734C569.094 404.578 569.291 404.5 569.52 404.5C569.749 404.5 569.944 404.578 570.107 404.734C570.272 404.889 570.355 405.077 570.355 405.295C570.355 405.514 570.272 405.701 570.107 405.857C569.944 406.013 569.749 406.091 569.52 406.091ZM575.348 415.159C574.659 415.159 574.054 414.995 573.533 414.667C573.016 414.339 572.612 413.88 572.32 413.29C572.032 412.7 571.888 412.01 571.888 411.222C571.888 410.426 572.032 409.732 572.32 409.138C572.612 408.545 573.016 408.085 573.533 407.756C574.054 407.428 574.659 407.264 575.348 407.264C576.037 407.264 576.641 407.428 577.158 407.756C577.678 408.085 578.082 408.545 578.371 409.138C578.662 409.732 578.808 410.426 578.808 411.222C578.808 412.01 578.662 412.7 578.371 413.29C578.082 413.88 577.678 414.339 577.158 414.667C576.641 414.995 576.037 415.159 575.348 415.159ZM575.348 414.105C575.872 414.105 576.303 413.971 576.641 413.702C576.979 413.434 577.229 413.081 577.391 412.643C577.554 412.206 577.635 411.732 577.635 411.222C577.635 410.711 577.554 410.236 577.391 409.795C577.229 409.354 576.979 408.998 576.641 408.726C576.303 408.454 575.872 408.318 575.348 408.318C574.824 408.318 574.393 408.454 574.055 408.726C573.717 408.998 573.467 409.354 573.305 409.795C573.142 410.236 573.061 410.711 573.061 411.222C573.061 411.732 573.142 412.206 573.305 412.643C573.467 413.081 573.717 413.434 574.055 413.702C574.393 413.971 574.824 414.105 575.348 414.105ZM581.773 410.406V415H580.599V407.364H581.733V408.557H581.832C582.011 408.169 582.283 407.857 582.648 407.622C583.012 407.384 583.483 407.264 584.059 407.264C584.577 407.264 585.029 407.37 585.417 407.582C585.805 407.791 586.106 408.109 586.322 408.537C586.537 408.961 586.645 409.498 586.645 410.148V415H585.471V410.227C585.471 409.627 585.316 409.16 585.004 408.825C584.693 408.487 584.265 408.318 583.721 408.318C583.347 408.318 583.012 408.399 582.717 408.562C582.425 408.724 582.195 408.961 582.026 409.273C581.857 409.584 581.773 409.962 581.773 410.406ZM596.027 415H592.885V404.818H596.167C597.154 404.818 597.999 405.022 598.702 405.43C599.405 405.834 599.943 406.416 600.318 407.175C600.692 407.93 600.88 408.835 600.88 409.889C600.88 410.95 600.691 411.863 600.313 412.629C599.935 413.391 599.385 413.978 598.662 414.388C597.94 414.796 597.061 415 596.027 415ZM594.118 413.906H595.948C596.79 413.906 597.487 413.744 598.041 413.419C598.594 413.094 599.007 412.632 599.279 412.032C599.551 411.432 599.686 410.718 599.686 409.889C599.686 409.067 599.552 408.36 599.284 407.766C599.015 407.17 598.614 406.712 598.081 406.394C597.547 406.073 596.882 405.912 596.087 405.912H594.118V413.906ZM605.891 415.159C605.202 415.159 604.597 414.995 604.076 414.667C603.559 414.339 603.155 413.88 602.863 413.29C602.575 412.7 602.431 412.01 602.431 411.222C602.431 410.426 602.575 409.732 602.863 409.138C603.155 408.545 603.559 408.085 604.076 407.756C604.597 407.428 605.202 407.264 605.891 407.264C606.58 407.264 607.184 407.428 607.701 407.756C608.221 408.085 608.625 408.545 608.914 409.138C609.205 409.732 609.351 410.426 609.351 411.222C609.351 412.01 609.205 412.7 608.914 413.29C608.625 413.88 608.221 414.339 607.701 414.667C607.184 414.995 606.58 415.159 605.891 415.159ZM605.891 414.105C606.415 414.105 606.846 413.971 607.184 413.702C607.522 413.434 607.772 413.081 607.934 412.643C608.097 412.206 608.178 411.732 608.178 411.222C608.178 410.711 608.097 410.236 607.934 409.795C607.772 409.354 607.522 408.998 607.184 408.726C606.846 408.454 606.415 408.318 605.891 408.318C605.367 408.318 604.936 408.454 604.598 408.726C604.26 408.998 604.01 409.354 603.848 409.795C603.685 410.236 603.604 410.711 603.604 411.222C603.604 411.732 603.685 412.206 603.848 412.643C604.01 413.081 604.26 413.434 604.598 413.702C604.936 413.971 605.367 414.105 605.891 414.105ZM611.142 404.818H612.316V413.011C612.316 413.383 612.357 413.643 612.44 413.792C612.523 413.941 612.693 414.012 612.952 414.006C613.091 413.999 613.194 413.989 613.26 413.976C613.33 413.959 613.393 413.943 613.449 413.926L613.688 414.94C613.585 414.97 613.456 414.997 613.3 415.02C613.144 415.046 612.982 415.06 612.813 415.06C612.256 415.06 611.838 414.907 611.56 414.602C611.281 414.297 611.142 413.873 611.142 413.33V404.818ZM614.97 404.818H616.144V413.011C616.144 413.383 616.185 413.643 616.268 413.792C616.351 413.941 616.521 414.012 616.78 414.006C616.919 413.999 617.022 413.989 617.088 413.976C617.158 413.959 617.221 413.943 617.277 413.926L617.516 414.94C617.413 414.97 617.284 414.997 617.128 415.02C616.972 415.046 616.81 415.06 616.641 415.06C616.084 415.06 615.666 414.907 615.388 414.602C615.11 414.297 614.97 413.873 614.97 413.33V404.818ZM621.477 415.159C620.841 415.159 620.279 414.998 619.792 414.677C619.304 414.352 618.923 413.895 618.648 413.305C618.373 412.711 618.235 412.01 618.235 411.202C618.235 410.4 618.373 409.704 618.648 409.114C618.923 408.524 619.306 408.068 619.797 407.746C620.287 407.425 620.854 407.264 621.497 407.264C621.994 407.264 622.387 407.347 622.675 407.513C622.967 407.675 623.189 407.861 623.341 408.07C623.497 408.275 623.618 408.444 623.704 408.577H623.804V407.364H624.977V415H623.843V413.827H623.704C623.618 413.966 623.495 414.142 623.336 414.354C623.177 414.562 622.95 414.75 622.655 414.915C622.36 415.078 621.967 415.159 621.477 415.159ZM621.636 414.105C622.107 414.105 622.504 413.982 622.829 413.737C623.154 413.489 623.401 413.146 623.57 412.708C623.739 412.267 623.824 411.759 623.824 411.182C623.824 410.612 623.741 410.113 623.575 409.685C623.409 409.254 623.164 408.92 622.839 408.681C622.514 408.439 622.113 408.318 621.636 408.318C621.139 408.318 620.725 408.446 620.393 408.701C620.065 408.953 619.818 409.296 619.652 409.73C619.49 410.161 619.409 410.645 619.409 411.182C619.409 411.725 619.492 412.219 619.657 412.663C619.826 413.104 620.075 413.455 620.403 413.717C620.734 413.976 621.145 414.105 621.636 414.105ZM627.289 415V407.364H628.422V408.517H628.502C628.638 408.139 628.888 407.833 629.252 407.597C629.617 407.362 630.03 407.244 630.49 407.244C630.703 407.244 630.888 407.269 631.047 407.319C631.206 407.369 631.346 407.437 631.465 407.523L631.067 408.517C630.984 408.474 630.886 408.441 630.774 408.418C630.664 408.391 630.537 408.378 630.391 408.378C630.02 408.378 629.688 408.456 629.397 408.612C629.108 408.767 628.88 408.979 628.711 409.248C628.545 409.516 628.462 409.823 628.462 410.168V415H627.289ZM645.349 409.909C645.349 410.983 645.155 411.911 644.768 412.693C644.38 413.475 643.848 414.079 643.172 414.503C642.496 414.927 641.723 415.139 640.855 415.139C639.987 415.139 639.214 414.927 638.538 414.503C637.862 414.079 637.33 413.475 636.942 412.693C636.555 411.911 636.361 410.983 636.361 409.909C636.361 408.835 636.555 407.907 636.942 407.125C637.33 406.343 637.862 405.74 638.538 405.315C639.214 404.891 639.987 404.679 640.855 404.679C641.723 404.679 642.496 404.891 643.172 405.315C643.848 405.74 644.38 406.343 644.768 407.125C645.155 407.907 645.349 408.835 645.349 409.909ZM644.156 409.909C644.156 409.027 644.009 408.283 643.714 407.677C643.422 407.07 643.026 406.611 642.525 406.3C642.028 405.988 641.471 405.832 640.855 405.832C640.238 405.832 639.68 405.988 639.18 406.3C638.682 406.611 638.286 407.07 637.991 407.677C637.7 408.283 637.554 409.027 637.554 409.909C637.554 410.791 637.7 411.535 637.991 412.141C638.286 412.748 638.682 413.207 639.18 413.518C639.68 413.83 640.238 413.986 640.855 413.986C641.471 413.986 642.028 413.83 642.525 413.518C643.026 413.207 643.422 412.748 643.714 412.141C644.009 411.535 644.156 410.791 644.156 409.909ZM647.263 417.864V407.364H648.397V408.577H648.536C648.622 408.444 648.742 408.275 648.894 408.07C649.05 407.861 649.272 407.675 649.56 407.513C649.852 407.347 650.246 407.264 650.743 407.264C651.386 407.264 651.953 407.425 652.444 407.746C652.934 408.068 653.317 408.524 653.592 409.114C653.867 409.704 654.005 410.4 654.005 411.202C654.005 412.01 653.867 412.711 653.592 413.305C653.317 413.895 652.936 414.352 652.449 414.677C651.961 414.998 651.4 415.159 650.763 415.159C650.273 415.159 649.88 415.078 649.585 414.915C649.29 414.75 649.063 414.562 648.904 414.354C648.745 414.142 648.622 413.966 648.536 413.827H648.437V417.864H647.263ZM648.417 411.182C648.417 411.759 648.501 412.267 648.67 412.708C648.839 413.146 649.086 413.489 649.411 413.737C649.736 413.982 650.134 414.105 650.604 414.105C651.095 414.105 651.504 413.976 651.832 413.717C652.164 413.455 652.412 413.104 652.578 412.663C652.747 412.219 652.831 411.725 652.831 411.182C652.831 410.645 652.749 410.161 652.583 409.73C652.421 409.296 652.174 408.953 651.842 408.701C651.514 408.446 651.101 408.318 650.604 408.318C650.127 408.318 649.726 408.439 649.401 408.681C649.076 408.92 648.831 409.254 648.665 409.685C648.5 410.113 648.417 410.612 648.417 411.182ZM655.795 417.864V407.364H656.928V408.577H657.067C657.153 408.444 657.273 408.275 657.425 408.07C657.581 407.861 657.803 407.675 658.091 407.513C658.383 407.347 658.778 407.264 659.275 407.264C659.918 407.264 660.484 407.425 660.975 407.746C661.465 408.068 661.848 408.524 662.123 409.114C662.398 409.704 662.536 410.4 662.536 411.202C662.536 412.01 662.398 412.711 662.123 413.305C661.848 413.895 661.467 414.352 660.98 414.677C660.493 414.998 659.931 415.159 659.295 415.159C658.804 415.159 658.411 415.078 658.116 414.915C657.821 414.75 657.594 414.562 657.435 414.354C657.276 414.142 657.153 413.966 657.067 413.827H656.968V417.864H655.795ZM656.948 411.182C656.948 411.759 657.032 412.267 657.202 412.708C657.371 413.146 657.617 413.489 657.942 413.737C658.267 413.982 658.665 414.105 659.135 414.105C659.626 414.105 660.035 413.976 660.363 413.717C660.695 413.455 660.943 413.104 661.109 412.663C661.278 412.219 661.363 411.725 661.363 411.182C661.363 410.645 661.28 410.161 661.114 409.73C660.952 409.296 660.705 408.953 660.373 408.701C660.045 408.446 659.633 408.318 659.135 408.318C658.658 408.318 658.257 408.439 657.932 408.681C657.608 408.92 657.362 409.254 657.197 409.685C657.031 410.113 656.948 410.612 656.948 411.182ZM667.428 415.159C666.739 415.159 666.134 414.995 665.613 414.667C665.096 414.339 664.692 413.88 664.4 413.29C664.112 412.7 663.968 412.01 663.968 411.222C663.968 410.426 664.112 409.732 664.4 409.138C664.692 408.545 665.096 408.085 665.613 407.756C666.134 407.428 666.739 407.264 667.428 407.264C668.117 407.264 668.721 407.428 669.238 407.756C669.758 408.085 670.162 408.545 670.451 409.138C670.742 409.732 670.888 410.426 670.888 411.222C670.888 412.01 670.742 412.7 670.451 413.29C670.162 413.88 669.758 414.339 669.238 414.667C668.721 414.995 668.117 415.159 667.428 415.159ZM667.428 414.105C667.952 414.105 668.383 413.971 668.721 413.702C669.059 413.434 669.309 413.081 669.471 412.643C669.634 412.206 669.715 411.732 669.715 411.222C669.715 410.711 669.634 410.236 669.471 409.795C669.309 409.354 669.059 408.998 668.721 408.726C668.383 408.454 667.952 408.318 667.428 408.318C666.904 408.318 666.474 408.454 666.135 408.726C665.797 408.998 665.547 409.354 665.385 409.795C665.222 410.236 665.141 410.711 665.141 411.222C665.141 411.732 665.222 412.206 665.385 412.643C665.547 413.081 665.797 413.434 666.135 413.702C666.474 413.971 666.904 414.105 667.428 414.105ZM672.679 415V407.364H673.813V408.517H673.892C674.028 408.139 674.279 407.833 674.643 407.597C675.008 407.362 675.42 407.244 675.881 407.244C676.093 407.244 676.279 407.269 676.438 407.319C676.597 407.369 676.736 407.437 676.855 407.523L676.458 408.517C676.375 408.474 676.277 408.441 676.164 408.418C676.055 408.391 675.927 408.378 675.782 408.378C675.41 408.378 675.079 408.456 674.787 408.612C674.499 408.767 674.27 408.979 674.101 409.248C673.935 409.516 673.853 409.823 673.853 410.168V415H672.679ZM681.852 407.364V408.358H677.895V407.364H681.852ZM679.048 405.534H680.221V412.812C680.221 413.144 680.269 413.393 680.365 413.558C680.465 413.721 680.591 413.83 680.743 413.886C680.899 413.939 681.063 413.966 681.235 413.966C681.365 413.966 681.471 413.959 681.554 413.946C681.636 413.929 681.703 413.916 681.752 413.906L681.991 414.96C681.912 414.99 681.801 415.02 681.658 415.05C681.516 415.083 681.335 415.099 681.116 415.099C680.785 415.099 680.46 415.028 680.142 414.886C679.827 414.743 679.565 414.526 679.356 414.234C679.151 413.943 679.048 413.575 679.048 413.131V405.534ZM688.429 411.878V407.364H689.603V415H688.429V413.707H688.35C688.171 414.095 687.892 414.425 687.515 414.697C687.137 414.965 686.659 415.099 686.083 415.099C685.605 415.099 685.181 414.995 684.81 414.786C684.439 414.574 684.147 414.256 683.935 413.832C683.723 413.404 683.617 412.866 683.617 412.216V407.364H684.79V412.136C684.79 412.693 684.946 413.137 685.257 413.469C685.572 413.8 685.973 413.966 686.461 413.966C686.752 413.966 687.049 413.891 687.35 413.742C687.655 413.593 687.911 413.364 688.116 413.056C688.325 412.748 688.429 412.355 688.429 411.878ZM692.925 410.406V415H691.752V407.364H692.885V408.557H692.985C693.164 408.169 693.435 407.857 693.8 407.622C694.164 407.384 694.635 407.264 695.212 407.264C695.729 407.264 696.181 407.37 696.569 407.582C696.957 407.791 697.258 408.109 697.474 408.537C697.689 408.961 697.797 409.498 697.797 410.148V415H696.624V410.227C696.624 409.627 696.468 409.16 696.156 408.825C695.845 408.487 695.417 408.318 694.874 408.318C694.499 408.318 694.164 408.399 693.869 408.562C693.578 408.724 693.347 408.961 693.178 409.273C693.009 409.584 692.925 409.962 692.925 410.406ZM699.941 415V407.364H701.114V415H699.941ZM700.538 406.091C700.309 406.091 700.112 406.013 699.946 405.857C699.784 405.701 699.702 405.514 699.702 405.295C699.702 405.077 699.784 404.889 699.946 404.734C700.112 404.578 700.309 404.5 700.538 404.5C700.766 404.5 700.962 404.578 701.124 404.734C701.29 404.889 701.373 405.077 701.373 405.295C701.373 405.514 701.29 405.701 701.124 405.857C700.962 406.013 700.766 406.091 700.538 406.091ZM706.584 407.364V408.358H702.627V407.364H706.584ZM703.78 405.534H704.954V412.812C704.954 413.144 705.002 413.393 705.098 413.558C705.197 413.721 705.323 413.83 705.476 413.886C705.631 413.939 705.796 413.966 705.968 413.966C706.097 413.966 706.203 413.959 706.286 413.946C706.369 413.929 706.435 413.916 706.485 413.906L706.724 414.96C706.644 414.99 706.533 415.02 706.39 415.05C706.248 415.083 706.067 415.099 705.849 415.099C705.517 415.099 705.192 415.028 704.874 414.886C704.559 414.743 704.297 414.526 704.089 414.234C703.883 413.943 703.78 413.575 703.78 413.131V405.534ZM709.105 417.864C708.906 417.864 708.729 417.847 708.573 417.814C708.417 417.784 708.309 417.754 708.25 417.724L708.548 416.69C708.833 416.763 709.085 416.79 709.304 416.77C709.523 416.75 709.716 416.652 709.885 416.477C710.058 416.304 710.215 416.024 710.358 415.636L710.577 415.04L707.753 407.364H709.025L711.133 413.449H711.213L713.321 407.364H714.594L711.352 416.114C711.206 416.508 711.026 416.835 710.81 417.093C710.595 417.355 710.345 417.549 710.059 417.675C709.778 417.801 709.46 417.864 709.105 417.864Z" fill="white"/>
<circle cx="4" cy="4" r="4" transform="matrix(1 0 0 -1 740 414)" fill="#FF9811"/>
<path d="M757.233 415V404.818H760.793C761.502 404.818 762.087 404.941 762.548 405.186C763.008 405.428 763.351 405.754 763.577 406.165C763.802 406.573 763.915 407.026 763.915 407.523C763.915 407.96 763.837 408.321 763.681 408.607C763.529 408.892 763.326 409.117 763.075 409.283C762.826 409.448 762.556 409.571 762.264 409.651V409.75C762.576 409.77 762.889 409.879 763.204 410.078C763.519 410.277 763.782 410.562 763.994 410.933C764.206 411.304 764.312 411.759 764.312 412.295C764.312 412.806 764.196 413.265 763.964 413.673C763.732 414.08 763.366 414.403 762.866 414.642C762.365 414.881 761.714 415 760.912 415H757.233ZM758.466 413.906H760.912C761.717 413.906 762.289 413.75 762.627 413.439C762.969 413.124 763.139 412.743 763.139 412.295C763.139 411.951 763.051 411.633 762.876 411.341C762.7 411.046 762.45 410.811 762.125 410.635C761.8 410.456 761.416 410.366 760.972 410.366H758.466V413.906ZM758.466 409.293H760.753C761.124 409.293 761.459 409.22 761.757 409.074C762.059 408.928 762.297 408.723 762.473 408.457C762.652 408.192 762.741 407.881 762.741 407.523C762.741 407.075 762.586 406.696 762.274 406.384C761.963 406.069 761.469 405.912 760.793 405.912H758.466V409.293ZM771.907 407.364C771.847 406.86 771.605 406.469 771.181 406.19C770.757 405.912 770.236 405.773 769.62 405.773C769.169 405.773 768.775 405.846 768.436 405.991C768.102 406.137 767.84 406.338 767.651 406.593C767.465 406.848 767.373 407.138 767.373 407.463C767.373 407.735 767.437 407.969 767.566 408.164C767.699 408.356 767.868 408.517 768.074 408.646C768.279 408.772 768.494 408.877 768.72 408.96C768.945 409.039 769.152 409.104 769.341 409.153L770.375 409.432C770.641 409.501 770.935 409.598 771.26 409.72C771.588 409.843 771.902 410.01 772.2 410.222C772.502 410.431 772.75 410.7 772.946 411.028C773.141 411.356 773.239 411.759 773.239 412.236C773.239 412.786 773.095 413.283 772.806 413.727C772.521 414.171 772.104 414.524 771.554 414.786C771.007 415.048 770.342 415.179 769.56 415.179C768.831 415.179 768.199 415.061 767.666 414.826C767.136 414.591 766.718 414.263 766.413 413.842C766.111 413.421 765.941 412.932 765.901 412.375H767.174C767.207 412.759 767.336 413.078 767.561 413.33C767.79 413.578 768.078 413.764 768.426 413.886C768.778 414.006 769.156 414.065 769.56 414.065C770.031 414.065 770.453 413.989 770.828 413.837C771.202 413.681 771.499 413.465 771.718 413.19C771.936 412.912 772.046 412.587 772.046 412.216C772.046 411.878 771.951 411.603 771.762 411.391C771.574 411.179 771.325 411.006 771.017 410.874C770.708 410.741 770.375 410.625 770.017 410.526L768.765 410.168C767.969 409.939 767.339 409.612 766.875 409.188C766.411 408.764 766.179 408.209 766.179 407.523C766.179 406.953 766.333 406.455 766.642 406.031C766.953 405.604 767.371 405.272 767.895 405.037C768.422 404.798 769.01 404.679 769.659 404.679C770.316 404.679 770.899 404.797 771.409 405.032C771.92 405.264 772.324 405.582 772.623 405.987C772.924 406.391 773.083 406.85 773.1 407.364H771.907ZM775.266 415V404.818H781.411V405.912H776.499V409.352H781.093V410.446H776.499V413.906H781.491V415H775.266ZM790.574 415.139C789.99 415.139 789.465 415.023 788.998 414.791C788.53 414.559 788.156 414.241 787.874 413.837C787.592 413.432 787.438 412.972 787.412 412.455H788.605C788.651 412.915 788.86 413.296 789.231 413.598C789.606 413.896 790.053 414.045 790.574 414.045C790.991 414.045 791.363 413.948 791.687 413.752C792.015 413.557 792.272 413.288 792.458 412.947C792.647 412.602 792.741 412.213 792.741 411.778C792.741 411.334 792.644 410.938 792.448 410.59C792.256 410.239 791.991 409.962 791.653 409.76C791.314 409.558 790.928 409.455 790.494 409.452C790.183 409.448 789.863 409.496 789.535 409.596C789.206 409.692 788.936 409.816 788.724 409.969L787.571 409.83L788.187 404.818H793.477V405.912H789.221L788.863 408.915H788.923C789.132 408.749 789.394 408.612 789.709 408.502C790.023 408.393 790.352 408.338 790.693 408.338C791.316 408.338 791.871 408.487 792.358 408.786C792.849 409.08 793.233 409.485 793.512 409.999C793.794 410.512 793.934 411.099 793.934 411.759C793.934 412.408 793.789 412.988 793.497 413.499C793.209 414.006 792.811 414.407 792.304 414.702C791.797 414.993 791.22 415.139 790.574 415.139ZM799.23 415.139C798.481 415.139 797.843 414.935 797.316 414.528C796.789 414.117 796.387 413.522 796.108 412.743C795.83 411.961 795.691 411.016 795.691 409.909C795.691 408.809 795.83 407.869 796.108 407.09C796.39 406.308 796.794 405.711 797.321 405.3C797.852 404.886 798.488 404.679 799.23 404.679C799.973 404.679 800.608 404.886 801.135 405.3C801.665 405.711 802.069 406.308 802.348 407.09C802.629 407.869 802.77 408.809 802.77 409.909C802.77 411.016 802.631 411.961 802.353 412.743C802.074 413.522 801.672 414.117 801.145 414.528C800.618 414.935 799.98 415.139 799.23 415.139ZM799.23 414.045C799.973 414.045 800.55 413.687 800.961 412.972C801.372 412.256 801.577 411.235 801.577 409.909C801.577 409.027 801.483 408.277 801.294 407.657C801.108 407.037 800.84 406.565 800.488 406.24C800.14 405.915 799.721 405.753 799.23 405.753C798.495 405.753 797.92 406.116 797.505 406.842C797.091 407.564 796.884 408.587 796.884 409.909C796.884 410.791 796.977 411.54 797.162 412.156C797.348 412.773 797.615 413.242 797.963 413.563C798.314 413.885 798.737 414.045 799.23 414.045ZM807.98 415.139C807.231 415.139 806.593 414.935 806.066 414.528C805.539 414.117 805.137 413.522 804.858 412.743C804.58 411.961 804.441 411.016 804.441 409.909C804.441 408.809 804.58 407.869 804.858 407.09C805.14 406.308 805.544 405.711 806.071 405.3C806.602 404.886 807.238 404.679 807.98 404.679C808.723 404.679 809.358 404.886 809.885 405.3C810.415 405.711 810.819 406.308 811.098 407.09C811.379 407.869 811.52 408.809 811.52 409.909C811.52 411.016 811.381 411.961 811.103 412.743C810.824 413.522 810.422 414.117 809.895 414.528C809.368 414.935 808.73 415.139 807.98 415.139ZM807.98 414.045C808.723 414.045 809.3 413.687 809.711 412.972C810.122 412.256 810.327 411.235 810.327 409.909C810.327 409.027 810.233 408.277 810.044 407.657C809.858 407.037 809.59 406.565 809.238 406.24C808.89 405.915 808.471 405.753 807.98 405.753C807.245 405.753 806.67 406.116 806.255 406.842C805.841 407.564 805.634 408.587 805.634 409.909C805.634 410.791 805.727 411.54 805.912 412.156C806.098 412.773 806.365 413.242 806.713 413.563C807.064 413.885 807.487 414.045 807.98 414.045ZM816.969 405.912V404.818H824.605V405.912H821.404V415H820.171V405.912H816.969ZM826.508 415V404.818H829.949C830.744 404.818 831.397 404.954 831.907 405.226C832.418 405.494 832.796 405.864 833.041 406.335C833.286 406.805 833.409 407.34 833.409 407.94C833.409 408.54 833.286 409.072 833.041 409.536C832.796 410 832.42 410.365 831.912 410.63C831.405 410.892 830.757 411.023 829.969 411.023H827.184V409.909H829.929C830.472 409.909 830.91 409.83 831.241 409.67C831.576 409.511 831.818 409.286 831.967 408.994C832.12 408.699 832.196 408.348 832.196 407.94C832.196 407.533 832.12 407.176 831.967 406.871C831.815 406.567 831.571 406.331 831.236 406.165C830.902 405.996 830.459 405.912 829.909 405.912H827.741V415H826.508ZM831.301 410.426L833.807 415H832.375L829.909 410.426H831.301ZM834.907 405.912V404.818H839.759V405.912H834.907ZM834.907 415V413.906H839.759V415H834.907ZM837.949 404.818V415H836.716V404.818H837.949Z" fill="white"/>
<path d="M99 209C99 204.582 102.582 201 107 201H158C162.418 201 166 204.582 166 209V340H99V209Z" fill="url(#paint0_linear_34701_40648)"/>
<path d="M168 252C168 247.582 171.582 244 176 244H227C231.418 244 235 247.582 235 252V340H168V252Z" fill="url(#paint1_linear_34701_40648)"/>
<path d="M1038 47C1038 42.5817 1041.58 39 1046 39H1097C1101.42 39 1105 42.5817 1105 47V340H1038V47Z" fill="url(#paint2_linear_34701_40648)"/>
<path d="M1107 100C1107 95.5817 1110.58 92 1115 92H1166C1170.42 92 1174 95.5817 1174 100V340H1107V100Z" fill="url(#paint3_linear_34701_40648)"/>
<path d="M409 112C409 107.582 412.582 104 417 104H468C472.418 104 476 107.582 476 112V340H409V112Z" fill="url(#paint4_linear_34701_40648)"/>
<path d="M478 185C478 180.582 481.582 177 486 177H537C541.418 177 545 180.582 545 185V340H478V185Z" fill="url(#paint5_linear_34701_40648)"/>
<path d="M723 69C723 64.5817 726.582 61 731 61H782C786.418 61 790 64.5817 790 69V340H723V69Z" fill="url(#paint6_linear_34701_40648)"/>
<path d="M792 93C792 88.5817 795.582 85 800 85H851C855.418 85 859 88.5817 859 93V340H792V93Z" fill="url(#paint7_linear_34701_40648)"/>
<path d="M929 39L929 347" stroke="white" stroke-width="0.5" stroke-dasharray="3 3"/>
<path d="M1215 135L47 135" stroke="white" stroke-width="0.5" stroke-dasharray="3 3"/>
<rect x="933" y="59" width="73" height="32" rx="4" fill="#332AB5"/>
<circle cx="4" cy="4" r="4" transform="matrix(1 0 0 -1 941 79)" fill="#FF9811"/>
<path d="M957.803 69.8182V80H955.953V72.1747H955.869C955.802 72.2775 955.676 72.3885 955.491 72.5078C955.305 72.6238 955.067 72.7232 954.775 72.8061C954.487 72.889 954.15 72.9304 953.766 72.9304V71.4389C954.117 71.4389 954.43 71.3776 954.705 71.255C954.98 71.1323 955.214 70.9799 955.406 70.7976C955.602 70.6153 955.753 70.4347 955.859 70.2557C955.965 70.0767 956.023 69.9309 956.033 69.8182H957.803ZM960.215 78.1108V76.6442L964.108 69.8182H965.893L962.089 76.5149V76.5945H968.135V78.1108H960.215ZM965.072 80V77.6783L965.112 77.0071V73.6364H966.807V80H965.072ZM973.263 80.1392C972.6 80.1392 972.007 80.0149 971.483 79.7663C970.959 79.5144 970.544 79.1697 970.235 78.7322C969.93 78.2947 969.768 77.7943 969.748 77.2308H971.538C971.571 77.6484 971.752 77.9898 972.08 78.255C972.408 78.5168 972.802 78.6477 973.263 78.6477C973.624 78.6477 973.946 78.5649 974.227 78.3991C974.509 78.2334 974.731 78.0031 974.894 77.7081C975.056 77.4131 975.136 77.0767 975.132 76.6989C975.136 76.3144 975.054 75.973 974.889 75.6747C974.723 75.3764 974.496 75.1428 974.208 74.9737C973.919 74.8014 973.588 74.7152 973.213 74.7152C972.908 74.7119 972.608 74.7682 972.313 74.8842C972.018 75.0002 971.785 75.1527 971.612 75.3416L969.947 75.0682L970.479 69.8182H976.385V71.3594H972.005L971.712 74.0589H971.771C971.96 73.8369 972.227 73.6529 972.572 73.5071C972.917 73.358 973.294 73.2834 973.705 73.2834C974.322 73.2834 974.872 73.4292 975.356 73.7209C975.84 74.0092 976.221 74.407 976.499 74.9141C976.778 75.4212 976.917 76.0012 976.917 76.6541C976.917 77.3269 976.761 77.9268 976.45 78.4538C976.142 78.9775 975.712 79.3902 975.162 79.6918C974.615 79.9901 973.982 80.1392 973.263 80.1392ZM979.369 80.1094C979.068 80.1094 978.809 80.0033 978.594 79.7912C978.378 79.5791 978.272 79.3205 978.276 79.0156C978.272 78.7173 978.378 78.4621 978.594 78.25C978.809 78.0379 979.068 77.9318 979.369 77.9318C979.661 77.9318 979.915 78.0379 980.13 78.25C980.349 78.4621 980.46 78.7173 980.463 79.0156C980.46 79.2178 980.407 79.4018 980.304 79.5675C980.205 79.7332 980.072 79.8658 979.906 79.9652C979.744 80.0613 979.565 80.1094 979.369 80.1094ZM982.346 80L986.676 71.429V71.3594H981.65V69.8182H988.585V71.3942L984.26 80H982.346ZM989.612 76.7237C989.619 76.379 989.667 76.0327 989.756 75.6847C989.849 75.3333 989.995 74.9621 990.194 74.571C990.393 74.1766 990.653 73.7424 990.974 73.2685L993.311 69.8182H995.2L992.66 73.5369C992.782 73.5038 992.91 73.4773 993.042 73.4574C993.175 73.4342 993.311 73.4226 993.45 73.4226C994.07 73.4226 994.622 73.5634 995.106 73.8452C995.593 74.1269 995.976 74.5163 996.254 75.0135C996.532 75.5107 996.672 76.0824 996.672 76.7287C996.672 77.4015 996.519 77.9948 996.214 78.5085C995.913 79.0189 995.497 79.4183 994.966 79.7067C994.439 79.995 993.84 80.1392 993.167 80.1392C992.507 80.1392 991.907 80 991.367 79.7216C990.83 79.4432 990.403 79.0488 990.084 78.5384C989.766 78.0279 989.609 77.4231 989.612 76.7237ZM991.407 76.7635C991.407 77.1314 991.48 77.4579 991.626 77.7429C991.775 78.0279 991.98 78.2517 992.242 78.4141C992.507 78.5765 992.812 78.6577 993.157 78.6577C993.498 78.6577 993.8 78.5781 994.062 78.419C994.323 78.2566 994.529 78.0346 994.678 77.7528C994.827 77.4678 994.902 77.1413 994.902 76.7734C994.902 76.4055 994.827 76.0807 994.678 75.799C994.529 75.514 994.323 75.2919 994.062 75.1328C993.8 74.9704 993.498 74.8892 993.157 74.8892C992.812 74.8892 992.507 74.9687 992.242 75.1278C991.98 75.2869 991.775 75.5073 991.626 75.7891C991.48 76.0708 991.407 76.3956 991.407 76.7635Z" fill="white"/>
<rect x="933" y="95" width="77" height="32" rx="4" fill="#332AB5"/>
<circle cx="4" cy="4" r="4" transform="matrix(1 0 0 -1 941 115)" fill="#7986FD"/>
<path d="M953.905 116V114.668L957.44 111.202C957.778 110.861 958.059 110.558 958.285 110.293C958.51 110.027 958.679 109.771 958.792 109.522C958.905 109.273 958.961 109.008 958.961 108.727C958.961 108.405 958.888 108.13 958.742 107.901C958.596 107.669 958.396 107.49 958.141 107.364C957.885 107.238 957.595 107.175 957.271 107.175C956.936 107.175 956.643 107.245 956.391 107.384C956.139 107.52 955.943 107.714 955.804 107.966C955.668 108.218 955.6 108.518 955.6 108.866H953.845C953.845 108.219 953.993 107.658 954.288 107.18C954.583 106.703 954.989 106.334 955.506 106.072C956.026 105.81 956.623 105.679 957.295 105.679C957.978 105.679 958.578 105.807 959.095 106.062C959.612 106.317 960.013 106.667 960.298 107.111C960.587 107.555 960.731 108.062 960.731 108.632C960.731 109.013 960.658 109.388 960.512 109.756C960.366 110.124 960.109 110.531 959.741 110.979C959.377 111.426 958.865 111.968 958.205 112.604L956.45 114.389V114.459H960.885V116H953.905ZM962.441 113.231H964.305C964.329 113.516 964.425 113.761 964.594 113.967C964.763 114.169 964.985 114.325 965.26 114.434C965.535 114.54 965.842 114.593 966.18 114.593C966.538 114.593 966.857 114.532 967.139 114.409C967.421 114.283 967.641 114.104 967.8 113.872C967.963 113.637 968.044 113.352 968.044 113.017C968.044 112.709 967.966 112.429 967.81 112.177C967.658 111.922 967.424 111.719 967.109 111.57C966.795 111.418 966.392 111.342 965.901 111.342H964.892V110.014L967.249 107.429V107.359H962.943V105.818H969.575V107.151L966.841 110.094V110.173C967.345 110.213 967.789 110.319 968.173 110.491C968.561 110.664 968.886 110.884 969.148 111.153C969.41 111.421 969.607 111.723 969.739 112.058C969.872 112.392 969.938 112.744 969.938 113.112C969.938 113.708 969.774 114.233 969.446 114.688C969.121 115.142 968.674 115.498 968.104 115.756C967.537 116.012 966.891 116.139 966.165 116.139C965.469 116.139 964.844 116.02 964.29 115.781C963.74 115.543 963.301 115.206 962.973 114.772C962.645 114.335 962.468 113.821 962.441 113.231ZM971.551 112.724C971.558 112.379 971.606 112.033 971.696 111.685C971.788 111.333 971.934 110.962 972.133 110.571C972.332 110.177 972.592 109.742 972.914 109.268L975.25 105.818H977.14L974.599 109.537C974.722 109.504 974.849 109.477 974.982 109.457C975.114 109.434 975.25 109.423 975.39 109.423C976.009 109.423 976.561 109.563 977.045 109.845C977.532 110.127 977.915 110.516 978.194 111.013C978.472 111.511 978.611 112.082 978.611 112.729C978.611 113.402 978.459 113.995 978.154 114.509C977.852 115.019 977.436 115.418 976.906 115.707C976.379 115.995 975.779 116.139 975.106 116.139C974.447 116.139 973.847 116 973.306 115.722C972.77 115.443 972.342 115.049 972.024 114.538C971.706 114.028 971.548 113.423 971.551 112.724ZM973.346 112.763C973.346 113.131 973.419 113.458 973.565 113.743C973.714 114.028 973.92 114.252 974.181 114.414C974.447 114.576 974.752 114.658 975.096 114.658C975.438 114.658 975.739 114.578 976.001 114.419C976.263 114.257 976.468 114.035 976.618 113.753C976.767 113.468 976.841 113.141 976.841 112.773C976.841 112.406 976.767 112.081 976.618 111.799C976.468 111.514 976.263 111.292 976.001 111.133C975.739 110.97 975.438 110.889 975.096 110.889C974.752 110.889 974.447 110.969 974.181 111.128C973.92 111.287 973.714 111.507 973.565 111.789C973.419 112.071 973.346 112.396 973.346 112.763ZM981.352 116.109C981.05 116.109 980.792 116.003 980.576 115.791C980.361 115.579 980.255 115.321 980.258 115.016C980.255 114.717 980.361 114.462 980.576 114.25C980.792 114.038 981.05 113.932 981.352 113.932C981.643 113.932 981.897 114.038 982.112 114.25C982.331 114.462 982.442 114.717 982.445 115.016C982.442 115.218 982.389 115.402 982.286 115.567C982.187 115.733 982.054 115.866 981.889 115.965C981.726 116.061 981.547 116.109 981.352 116.109ZM987.651 116.194C986.832 116.194 986.129 115.987 985.543 115.572C984.959 115.155 984.51 114.553 984.195 113.768C983.884 112.979 983.728 112.029 983.728 110.919C983.731 109.809 983.889 108.864 984.2 108.085C984.515 107.303 984.964 106.706 985.548 106.295C986.134 105.884 986.835 105.679 987.651 105.679C988.466 105.679 989.167 105.884 989.754 106.295C990.34 106.706 990.789 107.303 991.101 108.085C991.416 108.867 991.573 109.812 991.573 110.919C991.573 112.033 991.416 112.984 991.101 113.773C990.789 114.558 990.34 115.158 989.754 115.572C989.17 115.987 988.469 116.194 987.651 116.194ZM987.651 114.638C988.287 114.638 988.789 114.325 989.157 113.698C989.528 113.068 989.714 112.142 989.714 110.919C989.714 110.11 989.629 109.431 989.46 108.881C989.291 108.33 989.053 107.916 988.744 107.638C988.436 107.356 988.072 107.215 987.651 107.215C987.018 107.215 986.517 107.53 986.149 108.16C985.781 108.786 985.596 109.706 985.593 110.919C985.589 111.731 985.67 112.414 985.836 112.967C986.005 113.521 986.244 113.938 986.552 114.22C986.86 114.499 987.227 114.638 987.651 114.638ZM996.989 116.194C996.17 116.194 995.467 115.987 994.881 115.572C994.297 115.155 993.848 114.553 993.533 113.768C993.222 112.979 993.066 112.029 993.066 110.919C993.069 109.809 993.227 108.864 993.538 108.085C993.853 107.303 994.302 106.706 994.886 106.295C995.472 105.884 996.173 105.679 996.989 105.679C997.804 105.679 998.505 105.884 999.092 106.295C999.678 106.706 1000.13 107.303 1000.44 108.085C1000.75 108.867 1000.91 109.812 1000.91 110.919C1000.91 112.033 1000.75 112.984 1000.44 113.773C1000.13 114.558 999.678 115.158 999.092 115.572C998.508 115.987 997.807 116.194 996.989 116.194ZM996.989 114.638C997.625 114.638 998.127 114.325 998.495 113.698C998.866 113.068 999.052 112.142 999.052 110.919C999.052 110.11 998.967 109.431 998.798 108.881C998.629 108.33 998.391 107.916 998.082 107.638C997.774 107.356 997.41 107.215 996.989 107.215C996.356 107.215 995.855 107.53 995.487 108.16C995.119 108.786 994.934 109.706 994.93 110.919C994.927 111.731 995.008 112.414 995.174 112.967C995.343 113.521 995.582 113.938 995.89 114.22C996.198 114.499 996.564 114.638 996.989 114.638Z" fill="white"/>
<defs>
<filter id="filter0_d_34701_40648" x="0" y="0" width="1256" height="456" filterUnits="userSpaceOnUse" color-interpolation-filters="sRGB">
<feFlood flood-opacity="0" result="BackgroundImageFix"/>
<feColorMatrix in="SourceAlpha" type="matrix" values="0 0 0 0 0 0 0 0 0 0 0 0 0 0 0 0 0 0 127 0" result="hardAlpha"/>
<feOffset dy="4"/>
<feGaussianBlur stdDeviation="6"/>
<feComposite in2="hardAlpha" operator="out"/>
<feColorMatrix type="matrix" values="0 0 0 0 0 0 0 0 0 0 0 0 0 0 0 0 0 0 0.05 0"/>
<feBlend mode="normal" in2="BackgroundImageFix" result="effect1_dropShadow_34701_40648"/>
<feBlend mode="normal" in="SourceGraphic" in2="effect1_dropShadow_34701_40648" result="shape"/>
</filter>
<linearGradient id="paint0_linear_34701_40648" x1="132.5" y1="201" x2="132.5" y2="340" gradientUnits="userSpaceOnUse">
<stop stop-color="#7A88FD"/>
<stop offset="1" stop-color="#7A88FD" stop-opacity="0"/>
</linearGradient>
<linearGradient id="paint1_linear_34701_40648" x1="201.5" y1="244" x2="201.5" y2="340" gradientUnits="userSpaceOnUse">
<stop stop-color="#FF9811"/>
<stop offset="1" stop-color="#FF9811" stop-opacity="0"/>
</linearGradient>
<linearGradient id="paint2_linear_34701_40648" x1="1071.5" y1="39" x2="1071.5" y2="340" gradientUnits="userSpaceOnUse">
<stop stop-color="#7A88FD"/>
<stop offset="1" stop-color="#7A88FD" stop-opacity="0"/>
</linearGradient>
<linearGradient id="paint3_linear_34701_40648" x1="1140.5" y1="92" x2="1140.5" y2="340" gradientUnits="userSpaceOnUse">
<stop stop-color="#FF9811"/>
<stop offset="1" stop-color="#FF9811" stop-opacity="0"/>
</linearGradient>
<linearGradient id="paint4_linear_34701_40648" x1="442.5" y1="104" x2="442.5" y2="340" gradientUnits="userSpaceOnUse">
<stop stop-color="#7A88FD"/>
<stop offset="1" stop-color="#7A88FD" stop-opacity="0"/>
</linearGradient>
<linearGradient id="paint5_linear_34701_40648" x1="511.5" y1="177" x2="511.5" y2="340" gradientUnits="userSpaceOnUse">
<stop stop-color="#FF9811"/>
<stop offset="1" stop-color="#FF9811" stop-opacity="0"/>
</linearGradient>
<linearGradient id="paint6_linear_34701_40648" x1="756.5" y1="61" x2="756.5" y2="340" gradientUnits="userSpaceOnUse">
<stop stop-color="#7A88FD"/>
<stop offset="1" stop-color="#7A88FD" stop-opacity="0"/>
</linearGradient>
<linearGradient id="paint7_linear_34701_40648" x1="825.5" y1="85" x2="825.5" y2="340" gradientUnits="userSpaceOnUse">
<stop stop-color="#FF9811"/>
<stop offset="1" stop-color="#FF9811" stop-opacity="0"/>
</linearGradient>
</defs>
</svg>
