<svg width="28" height="22" viewBox="0 0 28 22" fill="none" xmlns="http://www.w3.org/2000/svg">
<path fill-rule="evenodd" clip-rule="evenodd" d="M25.4805 2.37454V0.347155C25.4805 0.155641 25.3248 0 25.1333 0H23.1059C22.9138 0 22.7588 0.155641 22.7588 0.347155C22.7588 0.539248 22.9138 0.694311 23.1059 0.694311H24.2903C17.2228 6.70704 10.0101 9.6029 0.320966 10.3441C0.13003 10.3585 -0.0134605 10.5258 0.00100433 10.7167C0.0148906 10.8989 0.16706 11.0372 0.347003 11.0372C0.355682 11.0372 0.364939 11.0372 0.373618 11.0366C5.16263 10.6704 9.14913 9.82565 12.921 8.37802C17.103 6.77358 20.9906 4.4164 24.7862 1.1838V2.37454C24.7862 2.56664 24.9412 2.7217 25.1333 2.7217C25.3248 2.7217 25.4805 2.56664 25.4805 2.37454ZM22.1003 5.40521C22.1003 5.21312 22.256 5.05805 22.4475 5.05805H26.051C26.2425 5.05805 26.3981 5.21312 26.3981 5.40521V21.1638H27.5408C27.7324 21.1638 27.888 21.3194 27.888 21.5109C27.888 21.7024 27.7324 21.8581 27.5408 21.8581H1.68124C1.48914 21.8581 1.33408 21.7024 1.33408 21.5109C1.33408 21.3194 1.48914 21.1638 1.68124 21.1638H2.82396V13.638C2.82396 13.4459 2.9796 13.2908 3.17111 13.2908H6.77459C6.96668 13.2908 7.12174 13.4459 7.12174 13.638V21.1638H9.24923V10.8266C9.24923 10.6345 9.40487 10.4795 9.59638 10.4795H13.2004C13.3919 10.4795 13.5476 10.6345 13.5476 10.8266V21.1638H15.6751V7.81736C15.6751 7.62527 15.8307 7.47021 16.0222 7.47021H19.6257C19.8178 7.47021 19.9729 7.62527 19.9729 7.81736V21.1638H22.1003V5.40521Z" fill="white"/>
</svg>
