<svg width="29" height="29" viewBox="0 0 29 29" fill="none" xmlns="http://www.w3.org/2000/svg">
<path d="M23.2621 10.9956L7.99986 2.17783C7.56359 1.91972 7.06676 1.78171 6.55986 1.77783C5.76304 1.77783 4.99884 2.09437 4.4354 2.65781C3.87196 3.22126 3.55542 3.98545 3.55542 4.78228V23.7067C3.55552 24.2355 3.69727 24.7546 3.96593 25.21C4.23459 25.6655 4.62034 26.0406 5.08309 26.2965C5.54584 26.5524 6.06869 26.6796 6.59727 26.665C7.12584 26.6504 7.64086 26.4944 8.08875 26.2134L23.3687 16.56C23.8439 16.2627 24.2338 15.8474 24.5007 15.3545C24.7675 14.8616 24.9021 14.308 24.8914 13.7476C24.8807 13.1872 24.7249 12.6392 24.4394 12.1569C24.1538 11.6746 23.7482 11.2745 23.2621 10.9956Z" fill="white"/>
</svg>
