<svg width="22" height="16" viewBox="0 0 22 16" fill="none" xmlns="http://www.w3.org/2000/svg">
<path d="M22 15V1C22 0.447754 21.5527 0 21 0H1C0.447266 0 0 0.447754 0 1V15C0 15.5522 0.447266 16 1 16H21C21.5527 16 22 15.5522 22 15ZM7 12C4.79083 12 3 10.2091 3 8C3 5.79083 4.79083 4 7 4C9.20917 4 11 5.79083 11 8C11 10.2091 9.20917 12 7 12ZM18.5 13H13.5C13.2236 13 13 12.7764 13 12.5C13 12.2236 13.2236 12 13.5 12H18.5C18.7764 12 19 12.2236 19 12.5C19 12.7764 18.7764 13 18.5 13ZM18.5 10H13.5C13.2236 10 13 9.77637 13 9.5C13 9.22363 13.2236 9 13.5 9H18.5C18.7764 9 19 9.22363 19 9.5C19 9.77637 18.7764 10 18.5 10ZM18.5 7H13.5C13.2236 7 13 6.77637 13 6.5C13 6.22363 13.2236 6 13.5 6H18.5C18.7764 6 19 6.22363 19 6.5C19 6.77637 18.7764 7 18.5 7ZM18.5 4H13.5C13.2236 4 13 3.77637 13 3.5C13 3.22363 13.2236 3 13.5 3H18.5C18.7764 3 19 3.22363 19 3.5C19 3.77637 18.7764 4 18.5 4Z" fill="#2E2A94"/>
</svg>
