<svg width="48" height="48" viewBox="0 0 48 48" fill="none" xmlns="http://www.w3.org/2000/svg">
<path d="M6 7V41H43" stroke="#242177" stroke-linecap="round" stroke-linejoin="round"/>
<rect x="9.38477" y="27.6924" width="7.2426" height="4.26035" fill="#F2D78F"/>
<rect x="18.0469" y="27.6924" width="7.2426" height="4.26035" fill="#EBCB76"/>
<rect x="26.7109" y="27.6924" width="7.2426" height="4.26035" fill="#D4B460"/>
<rect x="35.373" y="27.6924" width="7.2426" height="4.26035" fill="#B79A4E"/>
<rect x="18.0469" y="21.8699" width="7.2426" height="4.26035" fill="#EBCB76"/>
<rect x="26.7109" y="21.8699" width="7.2426" height="4.26035" fill="#D4B460"/>
<rect x="35.373" y="21.8699" width="7.2426" height="4.26035" fill="#B79A4E"/>
<rect x="26.7109" y="16.0474" width="7.2426" height="4.26035" fill="#D4B460"/>
<rect x="35.373" y="16.0474" width="7.2426" height="4.26035" fill="#B79A4E"/>
<rect x="35.373" y="10.2249" width="7.2426" height="4.26035" fill="#B79A4E"/>
<rect x="9.38477" y="33.5146" width="7.2426" height="4.26035" fill="#F2D78F"/>
<rect x="18.0469" y="33.5146" width="7.2426" height="4.26035" fill="#EBCB76"/>
<rect x="26.7109" y="33.5146" width="7.2426" height="4.26035" fill="#D4B460"/>
<rect x="35.373" y="33.5146" width="7.2426" height="4.26035" fill="#B79A4E"/>
</svg>
