<svg width="48" height="48" viewBox="0 0 48 48" fill="none" xmlns="http://www.w3.org/2000/svg">
<path d="M9.78616 25L15.5723 28.2075L9.78616 31.1006L4 28.2075L9.78616 25Z" fill="#EBCB76"/>
<path d="M9.78616 36.3207V31.1006L4 28.2075V32.9245L9.78616 36.3207Z" fill="#CEAB4F"/>
<path d="M9.7861 36.3207V31.1006L15.5723 28.2075V32.9245L9.7861 36.3207Z" fill="#AB8D3E"/>
<path d="M24.3584 25L30.1446 28.2075L24.3584 31.1006L18.5723 28.2075L24.3584 25Z" fill="#EBCB76"/>
<path d="M24.3584 36.3207V31.1006L18.5723 28.2075V32.9245L24.3584 36.3207Z" fill="#CEAB4F"/>
<path d="M24.3584 36.3207V31.1006L30.1445 28.2075V32.9245L24.3584 36.3207Z" fill="#AB8D3E"/>
<path d="M38.9307 25L44.7169 28.2075L38.9307 31.1006L33.1445 28.2075L38.9307 25Z" fill="#EBCB76"/>
<path d="M38.9307 36.3207V31.1006L33.1445 28.2075V32.9245L38.9307 36.3207Z" fill="#CEAB4F"/>
<path d="M38.9306 36.3207V31.1006L44.7168 28.2075V32.9245L38.9306 36.3207Z" fill="#AB8D3E"/>
<path d="M39.1758 20.2299C39.1758 17.5553 37.0076 15.3871 34.333 15.3871L29.4809 15.3871C27.2288 15.3871 25.1884 14.0592 24.2765 12C23.3646 14.0592 21.3242 15.3871 19.0721 15.3871L14.8425 15.3871C12.1679 15.3871 9.99968 17.5553 9.99968 20.2299" stroke="#3A35B4" stroke-linecap="round"/>
</svg>
