<svg width="24" height="24" viewBox="0 0 24 24" fill="none" xmlns="http://www.w3.org/2000/svg">
<path d="M18.8215 6.66626C18.8215 7.8629 17.8515 8.83298 16.6549 8.83298C15.4582 8.83298 14.4883 7.8629 14.4883 6.66626C14.4883 5.46974 15.4582 4.49966 16.6549 4.49966C17.8515 4.49966 18.8215 5.46974 18.8215 6.66626Z" fill="#7986FD"/>
<path d="M16.6549 9.33297C15.1842 9.33297 13.9883 8.13694 13.9883 6.66626C13.9883 5.19569 15.1842 3.99966 16.6549 3.99966C18.1256 3.99966 19.3215 5.19569 19.3215 6.66626C19.3215 8.13694 18.1256 9.33297 16.6549 9.33297ZM16.6549 4.99965C15.7356 4.99965 14.9883 5.74769 14.9883 6.66626C14.9883 7.58495 15.7356 8.33298 16.6549 8.33298C17.5742 8.33298 18.3215 7.58495 18.3215 6.66626C18.3215 5.74769 17.5742 4.99965 16.6549 4.99965Z" fill="#7986FD"/>
<path d="M18.8215 17.3329C18.8215 18.5294 17.8515 19.4995 16.6549 19.4995C15.4582 19.4995 14.4883 18.5294 14.4883 17.3329C14.4883 16.1362 15.4582 15.1662 16.6549 15.1662C17.8515 15.1662 18.8215 16.1362 18.8215 17.3329Z" fill="#7986FD"/>
<path d="M16.6549 19.9995C15.1842 19.9995 13.9883 18.8034 13.9883 17.3329C13.9883 15.8622 15.1842 14.6662 16.6549 14.6662C18.1256 14.6662 19.3215 15.8622 19.3215 17.3329C19.3215 18.8034 18.1256 19.9995 16.6549 19.9995ZM16.6549 15.6662C15.7356 15.6662 14.9883 16.4142 14.9883 17.3329C14.9883 18.2514 15.7356 18.9995 16.6549 18.9995C17.5742 18.9995 18.3215 18.2514 18.3215 17.3329C18.3215 16.4142 17.5742 15.6662 16.6549 15.6662Z" fill="#7986FD"/>
<path d="M9.48566 11.9998C9.48566 13.1964 8.51558 14.1664 7.31894 14.1664C6.12242 14.1664 5.15234 13.1964 5.15234 11.9998C5.15234 10.8031 6.12242 9.83316 7.31894 9.83316C8.51558 9.83316 9.48566 10.8031 9.48566 11.9998Z" fill="#7986FD"/>
<path d="M7.31894 14.6663C5.84837 14.6663 4.65234 13.4704 4.65234 11.9998C4.65234 10.5291 5.84837 9.33316 7.31894 9.33316C8.78962 9.33316 9.98565 10.5291 9.98565 11.9998C9.98565 13.4704 8.78962 14.6663 7.31894 14.6663ZM7.31894 10.3331C6.39964 10.3331 5.65233 11.0811 5.65233 11.9998C5.65233 12.9184 6.39964 13.6664 7.31894 13.6664C8.23836 13.6664 8.98566 12.9184 8.98566 11.9998C8.98566 11.0811 8.23836 10.3331 7.31894 10.3331Z" fill="#7986FD"/>
<path d="M8.88998 11.6798C8.65793 11.6798 8.43259 11.5591 8.30991 11.3431C8.1279 11.0238 8.23996 10.6164 8.5593 10.4337L14.7451 6.90714C15.0645 6.72379 15.4718 6.83585 15.6545 7.15641C15.8365 7.47574 15.7245 7.88308 15.4052 8.06582L9.2192 11.5924C9.1152 11.6517 9.00192 11.6798 8.88998 11.6798Z" fill="#7986FD"/>
<path d="M15.0784 17.1795C14.9663 17.1795 14.8531 17.1514 14.7491 17.0921L8.56311 13.5655C8.24378 13.3835 8.13184 12.9761 8.31385 12.6561C8.49512 12.3361 8.90307 12.2235 9.22314 12.4068L15.4091 15.9334C15.7284 16.1154 15.8404 16.5227 15.6584 16.8428C15.5351 17.0587 15.3097 17.1795 15.0784 17.1795Z" fill="#7986FD"/>
</svg>
