<svg width="1232" height="329" viewBox="0 0 1232 329" fill="none" xmlns="http://www.w3.org/2000/svg">
<g clip-path="url(#clip0_32154_1365)">
<path d="M0 16C0 7.16344 7.16344 0 16 0H1216C1224.84 0 1232 7.16344 1232 16V313C1232 321.837 1224.84 329 1216 329H16C7.16345 329 0 321.837 0 313V16Z" fill="white"/>
<rect x="-8" y="-20" width="1240" height="434" fill="url(#paint0_linear_32154_1365)" fill-opacity="0.5"/>
<path d="M1114.53 371.736L1114.53 309.972" stroke="url(#paint1_linear_32154_1365)" stroke-width="1.25795"/>
<path d="M1055.41 371.736L1055.41 326.972" stroke="url(#paint2_linear_32154_1365)" stroke-width="1.25795"/>
<path d="M996.281 372.303L996.281 287.873" stroke="url(#paint3_linear_32154_1365)" stroke-width="1.25795"/>
<path d="M935.414 371.506L935.414 310.192" stroke="url(#paint4_linear_32154_1365)" stroke-width="1.25795"/>
<path d="M828.531 371.737L828.531 310.065" stroke="url(#paint5_linear_32154_1365)" stroke-width="1.25795"/>
<path d="M769.41 371.736L769.41 327.039" stroke="url(#paint6_linear_32154_1365)" stroke-width="1.25795"/>
<path d="M710.285 372.303L710.285 288" stroke="url(#paint7_linear_32154_1365)" stroke-width="1.25795"/>
<path d="M649.414 371.507L649.414 310.285" stroke="url(#paint8_linear_32154_1365)" stroke-width="1.25795"/>
<path d="M888.141 353.372L888.141 327" stroke="url(#paint9_linear_32154_1365)" stroke-width="1.25795"/>
<path d="M713.491 163H518.492C516.43 163 514.742 164.687 514.742 166.75V189.25C514.742 245.087 560.155 290.5 615.992 290.5C671.829 290.5 717.241 245.087 717.241 189.25V166.75C717.241 164.687 715.554 163 713.491 163Z" fill="url(#paint10_linear_32154_1365)"/>
<path d="M619.766 241.748V290.385C618.528 290.46 617.253 290.498 616.016 290.498C614.778 290.498 613.503 290.46 612.266 290.385V241.748C612.266 239.686 613.953 237.998 616.016 237.998C618.078 237.998 619.766 239.686 619.766 241.748Z" fill="#8780FF"/>
<path d="M597.242 239.125V288.737C594.692 288.287 592.217 287.725 589.742 287.012V239.125C589.742 237.062 591.43 235.375 593.492 235.375C595.555 235.375 597.242 237.062 597.242 239.125Z" fill="#8780FF"/>
<path d="M574.758 230.725V281.687C572.208 280.562 569.695 279.324 567.258 277.937V230.725C567.258 228.662 568.945 226.975 571.008 226.975C573.07 226.975 574.758 228.662 574.758 230.725Z" fill="#8780FF"/>
<path d="M552.234 214.525V267.813C549.609 265.713 547.097 263.463 544.734 261.1V214.525C544.734 212.463 546.422 210.775 548.484 210.775C550.547 210.775 552.234 212.463 552.234 214.525Z" fill="#8780FF"/>
<path d="M642.25 239.125V287.012C639.775 287.725 637.3 288.287 634.75 288.737V239.125C634.75 237.062 636.437 235.375 638.5 235.375C640.562 235.375 642.25 237.062 642.25 239.125Z" fill="#8780FF"/>
<path d="M664.734 230.725V277.937C662.297 279.324 659.784 280.562 657.234 281.687V230.725C657.234 228.662 658.922 226.975 660.984 226.975C663.047 226.975 664.734 228.662 664.734 230.725Z" fill="#8780FF"/>
<path d="M687.258 214.525V261.1C684.895 263.463 682.383 265.713 679.758 267.813V214.525C679.758 212.463 681.445 210.775 683.508 210.775C685.57 210.775 687.258 212.463 687.258 214.525Z" fill="#8780FF"/>
<path d="M709.742 192.025V227.388C707.68 232.563 705.167 237.513 702.242 242.2V192.025C702.242 189.963 703.93 188.275 705.992 188.275C708.055 188.275 709.742 189.963 709.742 192.025Z" fill="#8780FF"/>
<path d="M529.75 199.523V242.198C526.825 237.511 524.312 232.561 522.25 227.386V199.523C522.25 197.461 523.937 195.773 526 195.773C528.062 195.773 529.75 197.461 529.75 199.523Z" fill="#8780FF"/>
<path d="M615.992 267.999C671.91 267.999 717.241 222.668 717.241 166.75C717.241 110.831 671.91 65.5 615.992 65.5C560.073 65.5 514.742 110.831 514.742 166.75C514.742 222.668 560.073 267.999 615.992 267.999Z" fill="url(#paint11_linear_32154_1365)"/>
<path d="M616 241.749C657.421 241.749 690.999 208.171 690.999 166.75C690.999 125.329 657.421 91.75 616 91.75C574.579 91.75 541 125.329 541 166.75C541 208.171 574.579 241.749 616 241.749Z" fill="url(#paint12_linear_32154_1365)"/>
<path d="M586.008 155.5C586.008 157.563 587.695 159.25 589.758 159.25H623.133C621.408 167.8 613.833 174.25 604.758 174.25H589.758C588.183 174.25 586.758 175.263 586.233 176.763C585.708 178.263 586.195 179.95 587.433 180.925L624.933 210.925C625.608 211.488 626.47 211.75 627.258 211.75C628.345 211.75 629.433 211.263 630.183 210.325C631.458 208.713 631.195 206.35 629.583 205.038L600.445 181.713H604.758C617.958 181.713 628.87 171.925 630.708 159.213H649.758C651.82 159.213 653.508 157.525 653.508 155.463C653.508 153.4 651.82 151.713 649.758 151.713H630.708C629.883 145.863 627.108 140.65 623.095 136.713H649.758C651.82 136.713 653.508 135.025 653.508 132.963C653.508 130.9 651.82 129.213 649.758 129.213H589.758C587.695 129.213 586.008 130.9 586.008 132.963C586.008 135.025 587.695 136.713 589.758 136.713H604.758C613.795 136.713 621.37 143.163 623.133 151.713H589.758C587.695 151.713 586.008 153.4 586.008 155.463V155.5Z" fill="#3025E0"/>
</g>
<defs>
<linearGradient id="paint0_linear_32154_1365" x1="1722.74" y1="-203.664" x2="265.424" y2="807.908" gradientUnits="userSpaceOnUse">
<stop stop-color="#9A94FF"/>
<stop offset="1" stop-color="#D6D3FF"/>
</linearGradient>
<linearGradient id="paint1_linear_32154_1365" x1="1115.03" y1="309.972" x2="1115.03" y2="371.736" gradientUnits="userSpaceOnUse">
<stop stop-color="#2E2A94" stop-opacity="0"/>
<stop offset="1" stop-color="#2E2A94"/>
</linearGradient>
<linearGradient id="paint2_linear_32154_1365" x1="1055.91" y1="326.972" x2="1055.91" y2="371.736" gradientUnits="userSpaceOnUse">
<stop stop-color="#2E2A94" stop-opacity="0"/>
<stop offset="1" stop-color="#2E2A94"/>
</linearGradient>
<linearGradient id="paint3_linear_32154_1365" x1="996.781" y1="287.873" x2="996.781" y2="372.303" gradientUnits="userSpaceOnUse">
<stop stop-color="#2E2A94" stop-opacity="0"/>
<stop offset="1" stop-color="#2E2A94"/>
</linearGradient>
<linearGradient id="paint4_linear_32154_1365" x1="935.914" y1="310.192" x2="935.914" y2="371.506" gradientUnits="userSpaceOnUse">
<stop stop-color="#2E2A94" stop-opacity="0"/>
<stop offset="1" stop-color="#2E2A94"/>
</linearGradient>
<linearGradient id="paint5_linear_32154_1365" x1="829.031" y1="310.065" x2="829.031" y2="371.737" gradientUnits="userSpaceOnUse">
<stop stop-color="#2E2A94" stop-opacity="0"/>
<stop offset="1" stop-color="#2E2A94"/>
</linearGradient>
<linearGradient id="paint6_linear_32154_1365" x1="769.91" y1="327.039" x2="769.91" y2="371.736" gradientUnits="userSpaceOnUse">
<stop stop-color="#2E2A94" stop-opacity="0"/>
<stop offset="1" stop-color="#2E2A94"/>
</linearGradient>
<linearGradient id="paint7_linear_32154_1365" x1="710.785" y1="288" x2="710.785" y2="372.303" gradientUnits="userSpaceOnUse">
<stop stop-color="#2E2A94" stop-opacity="0"/>
<stop offset="1" stop-color="#2E2A94"/>
</linearGradient>
<linearGradient id="paint8_linear_32154_1365" x1="649.914" y1="310.285" x2="649.914" y2="371.507" gradientUnits="userSpaceOnUse">
<stop stop-color="#2E2A94" stop-opacity="0"/>
<stop offset="1" stop-color="#2E2A94"/>
</linearGradient>
<linearGradient id="paint9_linear_32154_1365" x1="888.641" y1="327" x2="888.641" y2="353.372" gradientUnits="userSpaceOnUse">
<stop stop-color="#2E2A94" stop-opacity="0"/>
<stop offset="1" stop-color="#2E2A94"/>
</linearGradient>
<linearGradient id="paint10_linear_32154_1365" x1="716.871" y1="162.492" x2="484.136" y2="238.773" gradientUnits="userSpaceOnUse">
<stop stop-color="#0F00FF"/>
<stop offset="1" stop-color="white"/>
</linearGradient>
<linearGradient id="paint11_linear_32154_1365" x1="697.058" y1="78.0389" x2="460.146" y2="44.4885" gradientUnits="userSpaceOnUse">
<stop stop-color="#0F00FF"/>
<stop offset="1" stop-color="white"/>
</linearGradient>
<linearGradient id="paint12_linear_32154_1365" x1="483.313" y1="299.436" x2="616.474" y2="228.174" gradientUnits="userSpaceOnUse">
<stop stop-color="#B096ED"/>
<stop offset="0.0014" stop-color="#B096ED"/>
<stop offset="0.299" stop-color="#CDBCF3"/>
<stop offset="0.5742" stop-color="#E2D7F7"/>
<stop offset="0.8165" stop-color="#EFE8F9"/>
<stop offset="1" stop-color="#F3EEFA"/>
</linearGradient>
<clipPath id="clip0_32154_1365">
<path d="M0 16C0 7.16344 7.16344 0 16 0H1216C1224.84 0 1232 7.16344 1232 16V313C1232 321.837 1224.84 329 1216 329H16C7.16345 329 0 321.837 0 313V16Z" fill="white"/>
</clipPath>
</defs>
</svg>
