<svg width="340" height="329" viewBox="0 0 340 329" fill="none" xmlns="http://www.w3.org/2000/svg">
<g clip-path="url(#clip0_32154_1535)">
<path d="M0 16C0 7.16344 7.16344 0 16 0H324C332.837 0 340 7.16344 340 16V313C340 321.837 332.837 329 324 329H16C7.16344 329 0 321.837 0 313V16Z" fill="white"/>
<rect x="-8" y="-20" width="358" height="434" fill="url(#paint0_linear_32154_1535)" fill-opacity="0.5"/>
<path d="M280.491 152.998H59.4922C57.1547 152.998 55.2422 154.911 55.2422 157.248V182.748C55.2422 246.03 106.709 297.497 169.992 297.497C233.274 297.497 284.741 246.03 284.741 182.748V157.248C284.741 154.911 282.829 152.998 280.491 152.998Z" fill="url(#paint1_linear_32154_1535)"/>
<path d="M174.266 242.248V297.37C172.863 297.455 171.418 297.498 170.016 297.498C168.613 297.498 167.168 297.455 165.766 297.37V242.248C165.766 239.911 167.678 237.998 170.016 237.998C172.353 237.998 174.266 239.911 174.266 242.248Z" fill="#8780FF"/>
<path d="M148.742 239.275V295.503C145.852 294.993 143.047 294.355 140.242 293.548V239.275C140.242 236.938 142.155 235.025 144.492 235.025C146.83 235.025 148.742 236.938 148.742 239.275Z" fill="#8780FF"/>
<path d="M123.258 229.756V287.513C120.368 286.238 117.52 284.836 114.758 283.263V229.756C114.758 227.418 116.67 225.506 119.008 225.506C121.345 225.506 123.258 227.418 123.258 229.756Z" fill="#8780FF"/>
<path d="M97.7343 211.395V271.788C94.7594 269.408 91.9119 266.858 89.2344 264.18V211.395C89.2344 209.058 91.1469 207.146 93.4844 207.146C95.8218 207.146 97.7343 209.058 97.7343 211.395Z" fill="#8780FF"/>
<path d="M199.75 239.275V293.548C196.945 294.355 194.14 294.993 191.25 295.503V239.275C191.25 236.938 193.162 235.025 195.5 235.025C197.837 235.025 199.75 236.938 199.75 239.275Z" fill="#8780FF"/>
<path d="M225.234 229.756V283.263C222.472 284.836 219.624 286.238 216.734 287.513V229.756C216.734 227.418 218.647 225.506 220.984 225.506C223.322 225.506 225.234 227.418 225.234 229.756Z" fill="#8780FF"/>
<path d="M250.758 211.395V264.18C248.08 266.858 245.233 269.408 242.258 271.788V211.395C242.258 209.058 244.17 207.146 246.508 207.146C248.845 207.146 250.758 209.058 250.758 211.395Z" fill="#8780FF"/>
<path d="M276.242 185.896V225.974C273.905 231.839 271.057 237.449 267.742 242.761V185.896C267.742 183.559 269.655 181.646 271.992 181.646C274.33 181.646 276.242 183.559 276.242 185.896Z" fill="#8780FF"/>
<path d="M72.25 194.395V242.76C68.935 237.448 66.0875 231.838 63.75 225.973V194.395C63.75 192.058 65.6625 190.146 68 190.146C70.3375 190.146 72.25 192.058 72.25 194.395Z" fill="#8780FF"/>
<path d="M169.992 271.999C233.366 271.999 284.741 220.624 284.741 157.25C284.741 93.8751 233.366 42.5 169.992 42.5C106.617 42.5 55.2422 93.8751 55.2422 157.25C55.2422 220.624 106.617 271.999 169.992 271.999Z" fill="url(#paint2_linear_32154_1535)"/>
<path d="M170 242.249C216.944 242.249 254.999 204.194 254.999 157.25C254.999 110.306 216.944 72.25 170 72.25C123.056 72.25 85 110.306 85 157.25C85 204.194 123.056 242.249 170 242.249Z" fill="url(#paint3_linear_32154_1535)"/>
<path d="M136.008 144.501C136.008 146.839 137.92 148.751 140.258 148.751H178.083C176.128 158.441 167.543 165.751 157.258 165.751H140.258C138.473 165.751 136.858 166.899 136.263 168.599C135.668 170.299 136.22 172.211 137.623 173.316L180.123 207.316C180.888 207.954 181.865 208.251 182.758 208.251C183.99 208.251 185.223 207.699 186.073 206.636C187.518 204.809 187.22 202.131 185.393 200.644L152.37 174.209H157.258C172.218 174.209 184.585 163.116 186.668 148.709H208.258C210.595 148.709 212.508 146.796 212.508 144.459C212.508 142.121 210.595 140.209 208.258 140.209H186.668C185.733 133.579 182.588 127.671 178.04 123.209H208.258C210.595 123.209 212.508 121.296 212.508 118.959C212.508 116.621 210.595 114.709 208.258 114.709H140.258C137.92 114.709 136.008 116.621 136.008 118.959C136.008 121.296 137.92 123.209 140.258 123.209H157.258C167.5 123.209 176.085 130.519 178.083 140.209H140.258C137.92 140.209 136.008 142.121 136.008 144.459V144.501Z" fill="#3025E0"/>
</g>
<defs>
<linearGradient id="paint0_linear_32154_1535" x1="491.682" y1="-203.664" x2="-107.709" y2="-83.5441" gradientUnits="userSpaceOnUse">
<stop stop-color="#9A94FF"/>
<stop offset="1" stop-color="#D6D3FF"/>
</linearGradient>
<linearGradient id="paint1_linear_32154_1535" x1="284.321" y1="152.422" x2="20.5549" y2="238.874" gradientUnits="userSpaceOnUse">
<stop stop-color="#0F00FF"/>
<stop offset="1" stop-color="white"/>
</linearGradient>
<linearGradient id="paint2_linear_32154_1535" x1="261.867" y1="56.7107" x2="-6.63404" y2="18.687" gradientUnits="userSpaceOnUse">
<stop stop-color="#0F00FF"/>
<stop offset="1" stop-color="white"/>
</linearGradient>
<linearGradient id="paint3_linear_32154_1535" x1="19.6209" y1="307.628" x2="170.538" y2="226.863" gradientUnits="userSpaceOnUse">
<stop stop-color="#B096ED"/>
<stop offset="0.0014" stop-color="#B096ED"/>
<stop offset="0.299" stop-color="#CDBCF3"/>
<stop offset="0.5742" stop-color="#E2D7F7"/>
<stop offset="0.8165" stop-color="#EFE8F9"/>
<stop offset="1" stop-color="#F3EEFA"/>
</linearGradient>
<clipPath id="clip0_32154_1535">
<path d="M0 16C0 7.16344 7.16344 0 16 0H324C332.837 0 340 7.16344 340 16V313C340 321.837 332.837 329 324 329H16C7.16344 329 0 321.837 0 313V16Z" fill="white"/>
</clipPath>
</defs>
</svg>
