<svg width="48" height="48" viewBox="0 0 48 48" fill="none" xmlns="http://www.w3.org/2000/svg">
<path d="M31.4883 11.2435L26.8652 9.79883L33.2219 8.64307L38.1339 10.3767L31.4883 11.2435Z" fill="#CEAB4F"/>
<path d="M26.8652 31.7583L26.8653 9.79883L31.4884 11.2435L31.4883 33.7808L26.8652 31.7583Z" fill="#AB8D3E"/>
<path d="M31.4884 11.2433L31.4883 33.7806L38.1339 32.047L38.134 10.3765L31.4884 11.2433Z" fill="#EBCB76"/>
<path d="M22.2402 18.1781L17.6172 16.7334L23.9739 15.5776L28.8858 17.3113L22.2402 18.1781Z" fill="#15125E"/>
<path d="M17.6172 34.6477L17.6173 16.7334L22.2403 18.1781L22.2402 36.6703L17.6172 34.6477Z" fill="#15125E"/>
<path d="M22.2423 18.1779L22.2422 36.67L28.8878 34.9364L28.8879 17.311L22.2423 18.1779Z" fill="#2E2A94"/>
<path d="M13.0957 25.4198L8.47266 23.9751L14.8293 22.8193L19.7413 24.553L13.0957 25.4198Z" fill="#CEAB4F"/>
<path d="M8.47266 36.9774V23.9751L13.0957 25.4198V39L8.47266 36.9774Z" fill="#AB8D3E"/>
<path d="M13.0957 25.42V39.0002L19.7413 37.2666V24.5532L13.0957 25.42Z" fill="#EBCB76"/>
</svg>
