<svg width="16" height="16" viewBox="0 0 16 16" fill="none" xmlns="http://www.w3.org/2000/svg">
<path d="M13.6673 9.00016C13.6673 12.1298 11.1303 14.6668 8.00065 14.6668C4.87104 14.6668 2.33398 12.1298 2.33398 9.00016C2.33398 5.87055 4.87104 3.3335 8.00065 3.3335C11.1303 3.3335 13.6673 5.87055 13.6673 9.00016Z" stroke="#EE212E"/>
<path d="M10 1.60954C9.36422 1.42972 8.69335 1.3335 8 1.3335C7.30665 1.3335 6.63578 1.42972 6 1.60954" stroke="#EE212E" stroke-linecap="round"/>
<path d="M9 9.3335C9 9.88578 8.55228 10.3335 8 10.3335C7.44772 10.3335 7 9.88578 7 9.3335C7 8.78121 7.44772 8.3335 8 8.3335C8.55228 8.3335 9 8.78121 9 9.3335Z" stroke="#EE212E"/>
<path d="M8 8V6" stroke="#EE212E" stroke-linecap="round" stroke-linejoin="round"/>
</svg>
