<svg width="32" height="32" viewBox="0 0 32 32" fill="none" xmlns="http://www.w3.org/2000/svg">
<path d="M20.6396 0.00248817C20.6467 0.00412026 20.6537 0.00655657 20.6602 0.00973724C22.3981 0.852533 23.2499 2.84787 22.655 4.68666L22.4604 5.28812L22.4566 5.29989L21.9564 6.13358C21.8423 6.32362 21.7015 6.49624 21.5381 6.646L20.756 7.36303C20.5687 7.53478 20.4142 7.7393 20.3005 7.96663L18.1407 12.2866C17.8489 12.8701 17.9182 13.5694 18.3187 14.0844C19.3789 15.4475 20.0306 17.0833 20.1982 18.802L20.2633 19.469C20.3436 20.2924 20.3315 21.1222 20.2267 21.9429L20.1323 22.682C19.866 24.768 18.8774 26.6948 17.3382 28.1278C16.7835 28.6442 16.1659 29.0886 15.4998 29.4501L15.2128 29.606C13.5182 30.5259 11.6206 31.0077 9.69246 31.0077H7.23291V13.9118H8.71193L12.2958 9.09934C12.4481 8.89489 12.6333 8.71719 12.8438 8.57344L16.6484 5.97519C16.89 5.8102 17.0941 5.59614 17.2475 5.34698L20.4869 0.0829436C20.5017 0.0588842 20.5224 0.0390115 20.547 0.0252152L20.5698 0.0124813C20.591 0.000605112 20.6159 -0.00295668 20.6396 0.00248817Z" fill="url(#paint0_linear_34986_23082)"/>
<path d="M9.86304 14.2461H24.9863V31.9995H14.2466C11.8256 31.9995 9.86304 30.0369 9.86304 27.616V14.2461Z" fill="url(#paint1_linear_34986_23082)"/>
<rect x="20.822" y="14.2461" width="8.76712" height="4.38356" rx="2.19178" fill="url(#paint2_linear_34986_23082)"/>
<rect x="20.822" y="23.2324" width="9.86301" height="4.38356" rx="2.19178" fill="url(#paint3_linear_34986_23082)"/>
<rect x="20.822" y="18.6299" width="10.9589" height="4.60274" rx="2.30137" fill="url(#paint4_linear_34986_23082)"/>
<rect x="20.822" y="27.6162" width="7.89041" height="4.38356" rx="2.19178" fill="url(#paint5_linear_34986_23082)"/>
<path d="M0 13.3701H5.91781C7.12829 13.3701 8.10959 14.3514 8.10959 15.5619V31.7811H0V13.3701Z" fill="url(#paint6_linear_34986_23082)"/>
<path d="M24.3289 14.9043V18.192H23.1234C22.2155 18.192 21.4795 17.456 21.4795 16.5481C21.4795 15.6403 22.2155 14.9043 23.1234 14.9043H24.3289Z" fill="url(#paint7_linear_34986_23082)"/>
<path d="M24.3289 19.2881V22.5758H23.1234C22.2155 22.5758 21.4795 21.8398 21.4795 20.9319C21.4795 20.0241 22.2155 19.2881 23.1234 19.2881H24.3289Z" fill="url(#paint8_linear_34986_23082)"/>
<path d="M24.3289 23.6709V26.9586H23.1234C22.2155 26.9586 21.4795 26.2226 21.4795 25.3147C21.4795 24.4069 22.2155 23.6709 23.1234 23.6709H24.3289Z" fill="url(#paint9_linear_34986_23082)"/>
<path d="M24.3289 28.0547V31.3424H23.1234C22.2155 31.3424 21.4795 30.6064 21.4795 29.6985C21.4795 28.7907 22.2155 28.0547 23.1234 28.0547H24.3289Z" fill="url(#paint10_linear_34986_23082)"/>
<defs>
<linearGradient id="paint0_linear_34986_23082" x1="8.76716" y1="32.1096" x2="27.1781" y2="-9.09589" gradientUnits="userSpaceOnUse">
<stop stop-color="#0F00FF"/>
<stop offset="0.916375" stop-color="white"/>
</linearGradient>
<linearGradient id="paint1_linear_34986_23082" x1="35.2877" y1="30.0269" x2="21.1044" y2="-1.25713" gradientUnits="userSpaceOnUse">
<stop stop-color="#0F00FF"/>
<stop offset="1" stop-color="white" stop-opacity="0.5"/>
</linearGradient>
<linearGradient id="paint2_linear_34986_23082" x1="24.201" y1="13.8077" x2="27.2141" y2="21.0266" gradientUnits="userSpaceOnUse">
<stop stop-color="white"/>
<stop offset="0.899038" stop-color="#0F00FF"/>
</linearGradient>
<linearGradient id="paint3_linear_34986_23082" x1="24.6234" y1="22.7941" x2="27.3878" y2="30.2449" gradientUnits="userSpaceOnUse">
<stop stop-color="white"/>
<stop offset="0.899038" stop-color="#0F00FF"/>
</linearGradient>
<linearGradient id="paint4_linear_34986_23082" x1="25.0458" y1="18.1696" x2="27.8247" y2="26.0956" gradientUnits="userSpaceOnUse">
<stop stop-color="white"/>
<stop offset="0.899038" stop-color="#0F00FF"/>
</linearGradient>
<linearGradient id="paint5_linear_34986_23082" x1="38.8048" y1="21.5009" x2="15.3821" y2="40.5426" gradientUnits="userSpaceOnUse">
<stop stop-color="white"/>
<stop offset="0.899038" stop-color="#0F00FF"/>
</linearGradient>
<linearGradient id="paint6_linear_34986_23082" x1="9.53425" y1="36.8222" x2="-5.0528" y2="12.3822" gradientUnits="userSpaceOnUse">
<stop stop-color="#0F00FF"/>
<stop offset="1" stop-color="white"/>
</linearGradient>
<linearGradient id="paint7_linear_34986_23082" x1="25.2056" y1="16.2194" x2="22.3563" y2="15.5618" gradientUnits="userSpaceOnUse">
<stop stop-color="white" stop-opacity="0"/>
<stop offset="1" stop-color="white"/>
</linearGradient>
<linearGradient id="paint8_linear_34986_23082" x1="25.2056" y1="20.6032" x2="22.3563" y2="19.9456" gradientUnits="userSpaceOnUse">
<stop stop-color="white" stop-opacity="0"/>
<stop offset="1" stop-color="white"/>
</linearGradient>
<linearGradient id="paint9_linear_34986_23082" x1="25.2056" y1="24.986" x2="22.3563" y2="24.3284" gradientUnits="userSpaceOnUse">
<stop stop-color="white" stop-opacity="0"/>
<stop offset="1" stop-color="white"/>
</linearGradient>
<linearGradient id="paint10_linear_34986_23082" x1="25.2056" y1="29.3698" x2="22.3563" y2="28.7122" gradientUnits="userSpaceOnUse">
<stop stop-color="white" stop-opacity="0"/>
<stop offset="1" stop-color="white"/>
</linearGradient>
</defs>
</svg>
