<svg width="32" height="32" viewBox="0 0 32 32" fill="none" xmlns="http://www.w3.org/2000/svg">
<path d="M11.1414 31.9975C11.1343 31.9959 11.1274 31.9934 11.1208 31.9903C9.38286 31.1475 8.5311 29.1521 9.12601 27.3133L9.32057 26.7119L9.32442 26.7001L9.82464 25.8664C9.93866 25.6764 10.0795 25.5038 10.2429 25.354L11.025 24.637C11.2123 24.4652 11.3668 24.2607 11.4805 24.0334L13.6403 19.7134C13.9321 19.1299 13.8628 18.4306 13.4623 17.9156C12.4021 16.5525 11.7504 14.9167 11.5828 13.198L11.5177 12.531C11.4374 11.7076 11.4495 10.8778 11.5543 10.0571L11.6487 9.31804C11.915 7.23202 12.9037 5.30519 14.4428 3.8722C14.9975 3.35577 15.6151 2.91142 16.2812 2.54985L16.5682 2.39403C18.2628 1.47414 20.1604 0.99229 22.0885 0.992275H24.5481V18.0882H23.0691L19.4852 22.9007C19.3329 23.1051 19.1477 23.2828 18.9372 23.4266L15.1326 26.0248C14.891 26.1898 14.6869 26.4039 14.5335 26.653L11.2941 31.9171C11.2793 31.9411 11.2586 31.961 11.234 31.9748L11.2112 31.9875C11.19 31.9994 11.1651 32.003 11.1414 31.9975Z" fill="url(#paint0_linear_34550_93705)"/>
<path d="M21.918 17.7539H6.79468V0.000482559H17.5344C19.9554 0.000482559 21.918 1.96307 21.918 4.38404V17.7539Z" fill="url(#paint1_linear_34550_93705)"/>
<rect x="10.959" y="17.7539" width="8.76712" height="4.38356" rx="2.19178" transform="rotate(180 10.959 17.7539)" fill="url(#paint2_linear_34550_93705)"/>
<rect x="10.959" y="8.76758" width="9.86301" height="4.38356" rx="2.19178" transform="rotate(180 10.959 8.76758)" fill="url(#paint3_linear_34550_93705)"/>
<rect x="10.959" y="13.3701" width="10.9589" height="4.60274" rx="2.30137" transform="rotate(180 10.959 13.3701)" fill="url(#paint4_linear_34550_93705)"/>
<rect x="10.959" y="4.38379" width="7.89041" height="4.38356" rx="2.19178" transform="rotate(180 10.959 4.38379)" fill="url(#paint5_linear_34550_93705)"/>
<path d="M31.781 18.6299H25.8632C24.6527 18.6299 23.6714 17.6486 23.6714 16.4381V0.218924H31.781V18.6299Z" fill="url(#paint6_linear_34550_93705)"/>
<path d="M7.45215 17.0957V13.808H8.65763C9.56549 13.808 10.3015 14.544 10.3015 15.4519C10.3015 16.3597 9.56549 17.0957 8.65763 17.0957H7.45215Z" fill="url(#paint7_linear_34550_93705)"/>
<path d="M7.45215 12.7119V9.42424H8.65763C9.56549 9.42424 10.3015 10.1602 10.3015 11.0681C10.3015 11.9759 9.56549 12.7119 8.65763 12.7119H7.45215Z" fill="url(#paint8_linear_34550_93705)"/>
<path d="M7.45215 8.3291V5.04143H8.65763C9.56549 5.04143 10.3015 5.7774 10.3015 6.68527C10.3015 7.59313 9.56549 8.3291 8.65763 8.3291H7.45215Z" fill="url(#paint9_linear_34550_93705)"/>
<path d="M7.45215 3.94531V0.657641H8.65763C9.56549 0.657641 10.3015 1.39361 10.3015 2.30148C10.3015 3.20934 9.56549 3.94531 8.65763 3.94531H7.45215Z" fill="url(#paint10_linear_34550_93705)"/>
<defs>
<linearGradient id="paint0_linear_34550_93705" x1="23.0138" y1="-0.109588" x2="4.60289" y2="41.0959" gradientUnits="userSpaceOnUse">
<stop stop-color="#0F00FF"/>
<stop offset="0.916375" stop-color="white"/>
</linearGradient>
<linearGradient id="paint1_linear_34550_93705" x1="-3.50669" y1="1.97308" x2="10.6766" y2="33.2571" gradientUnits="userSpaceOnUse">
<stop stop-color="#0F00FF"/>
<stop offset="1" stop-color="white" stop-opacity="0.5"/>
</linearGradient>
<linearGradient id="paint2_linear_34550_93705" x1="14.338" y1="17.3156" x2="17.3511" y2="24.5344" gradientUnits="userSpaceOnUse">
<stop stop-color="white"/>
<stop offset="0.899038" stop-color="#0F00FF"/>
</linearGradient>
<linearGradient id="paint3_linear_34550_93705" x1="14.7604" y1="8.32922" x2="17.5247" y2="15.7801" gradientUnits="userSpaceOnUse">
<stop stop-color="white"/>
<stop offset="0.899038" stop-color="#0F00FF"/>
</linearGradient>
<linearGradient id="paint4_linear_34550_93705" x1="15.1827" y1="12.9098" x2="17.9616" y2="20.8358" gradientUnits="userSpaceOnUse">
<stop stop-color="white"/>
<stop offset="0.899038" stop-color="#0F00FF"/>
</linearGradient>
<linearGradient id="paint5_linear_34550_93705" x1="28.9418" y1="-1.73155" x2="5.51907" y2="17.3102" gradientUnits="userSpaceOnUse">
<stop stop-color="white"/>
<stop offset="0.899038" stop-color="#0F00FF"/>
</linearGradient>
<linearGradient id="paint6_linear_34550_93705" x1="22.2468" y1="-4.82217" x2="36.8338" y2="19.6178" gradientUnits="userSpaceOnUse">
<stop stop-color="#0F00FF"/>
<stop offset="1" stop-color="white"/>
</linearGradient>
<linearGradient id="paint7_linear_34550_93705" x1="6.57544" y1="15.7806" x2="9.42475" y2="16.4382" gradientUnits="userSpaceOnUse">
<stop stop-color="white" stop-opacity="0"/>
<stop offset="1" stop-color="white"/>
</linearGradient>
<linearGradient id="paint8_linear_34550_93705" x1="6.57544" y1="11.3968" x2="9.42475" y2="12.0544" gradientUnits="userSpaceOnUse">
<stop stop-color="white" stop-opacity="0"/>
<stop offset="1" stop-color="white"/>
</linearGradient>
<linearGradient id="paint9_linear_34550_93705" x1="6.57544" y1="7.01403" x2="9.42475" y2="7.67157" gradientUnits="userSpaceOnUse">
<stop stop-color="white" stop-opacity="0"/>
<stop offset="1" stop-color="white"/>
</linearGradient>
<linearGradient id="paint10_linear_34550_93705" x1="6.57544" y1="2.63024" x2="9.42475" y2="3.28778" gradientUnits="userSpaceOnUse">
<stop stop-color="white" stop-opacity="0"/>
<stop offset="1" stop-color="white"/>
</linearGradient>
</defs>
</svg>
