<svg width="44" height="44" viewBox="0 0 44 44" fill="none" xmlns="http://www.w3.org/2000/svg">
<path d="M24.0322 4.30396C31.428 4.30396 37.4238 12.2272 37.4238 22.0002C37.4237 31.7731 31.4279 39.6956 24.0322 39.6956H21.8799C21.8873 39.694 21.8949 39.6913 21.9023 39.6897C21.8154 39.6927 21.7281 39.6956 21.6406 39.6956C15.3015 39.6955 10.1622 31.7731 10.1621 22.0002C10.1621 12.2273 15.3014 4.30403 21.6406 4.30396C21.7281 4.30396 21.8154 4.30584 21.9023 4.30884C21.895 4.30726 21.8872 4.30552 21.8799 4.30396C22.5972 4.30395 23.2996 4.30396 24.0322 4.30396Z" fill="#EBCB76"/>
<path d="M19.489 4.3042C20.2217 4.3042 20.9237 4.3042 21.6411 4.3042C15.2686 5.66477 10.402 13.195 10.402 21.9999C10.402 30.8046 15.2687 38.3349 21.6411 39.6955C20.9237 39.6955 20.2217 39.6955 19.489 39.6955C12.0931 39.6955 6.09766 31.7729 6.09766 21.9999C6.09766 12.2268 12.0931 4.3042 19.489 4.3042Z" fill="#2E2A94"/>
<path d="M23.3945 14.1086V21.9999L26.5032 26.5434" stroke="#2E2A94" stroke-linecap="round"/>
</svg>
